<svg width="100%" height="100%" viewBox="0 0 2500 2273" version="1.1" xmlns="http://www.w3.org/2000/svg" xmlns:xlink="http://www.w3.org/1999/xlink" xml:space="preserve" xmlns:serif="http://www.serif.com/" style="fill-rule:evenodd;clip-rule:evenodd;stroke-linejoin:round;stroke-miterlimit:2;">
	<path d="M4.545,1763.77c7.575,-12.121 19.696,-12.88 36.364,-2.273c378.786,219.698 790.909,329.545 1236.36,329.545c296.968,0 590.15,-55.302 879.545,-165.909c7.575,-3.029 18.559,-7.575 32.955,-13.636c14.393,-6.061 24.62,-10.607 30.682,-13.636c22.727,-9.091 40.529,-4.546 53.409,13.636c12.877,18.182 8.711,34.848 -12.5,50c-27.273,19.698 -62.123,42.425 -104.546,68.182c-130.304,77.273 -275.759,137.12 -436.363,179.545c-160.607,42.425 -317.425,63.637 -470.455,63.637c-236.364,0 -459.85,-41.289 -670.455,-123.864c-210.606,-82.575 -399.243,-198.864 -565.909,-348.864c-9.091,-7.575 -13.636,-15.152 -13.636,-22.727c0,-4.545 1.514,-9.091 4.545,-13.636Zm684.091,-647.728c0,-104.545 25.757,-193.938 77.273,-268.181c51.514,-74.244 121.968,-130.303 211.364,-168.182c81.818,-34.848 182.575,-59.848 302.272,-75c40.91,-4.546 107.575,-10.607 200,-18.182l0,-38.636c0,-96.971 -10.606,-162.121 -31.818,-195.455c-31.818,-45.454 -81.818,-68.182 -150,-68.182l-18.182,0c-50,4.546 -93.181,20.455 -129.545,47.728c-36.364,27.272 -59.85,65.152 -70.455,113.636c-6.061,30.302 -21.213,47.727 -45.454,52.273l-261.364,-31.819c-25.759,-6.061 -38.636,-19.697 -38.636,-40.909c0,-4.545 0.757,-9.847 2.273,-15.909c25.756,-134.847 89.013,-234.847 189.772,-300c100.757,-65.152 218.559,-101.516 353.409,-109.091l56.819,0c172.727,0 307.575,44.698 404.545,134.091c15.21,15.221 29.264,31.554 42.046,48.864c12.877,17.425 23.104,32.954 30.681,46.591c7.575,13.636 14.394,33.334 20.455,59.091c6.059,25.757 10.604,43.561 13.636,53.409c3.03,9.848 5.303,31.061 6.818,63.636c1.514,32.575 2.273,51.893 2.273,57.955l0,550c0,39.393 5.682,75.379 17.046,107.954c11.363,32.575 22.347,56.062 32.954,70.455c10.605,14.393 28.03,37.5 52.273,69.318c9.091,13.636 13.636,25.757 13.636,36.364c0,12.12 -6.061,22.727 -18.182,31.818c-125.759,109.091 -193.94,168.182 -204.545,177.273c-18.182,13.636 -40.152,15.152 -65.909,4.545c-21.214,-18.182 -39.773,-35.607 -55.682,-52.273c-15.909,-16.666 -27.273,-28.788 -34.091,-36.363c-6.818,-7.575 -17.804,-22.348 -32.954,-44.319c-15.153,-21.97 -25.759,-36.743 -31.819,-44.318c-84.85,92.425 -168.181,150 -250,172.728c-51.515,15.152 -115.152,22.727 -190.909,22.727c-116.668,0 -212.5,-35.984 -287.5,-107.955c-75,-71.97 -112.5,-173.863 -112.5,-305.682Zm390.909,-45.454c0,59.091 14.773,106.439 44.319,142.045c29.545,35.607 69.318,53.409 119.318,53.409c4.545,0 10.984,-0.756 19.318,-2.272c8.332,-1.516 14.014,-2.273 17.045,-2.273c63.637,-16.666 112.878,-57.575 147.728,-122.727c16.666,-28.789 29.166,-60.228 37.5,-94.318c8.332,-34.091 12.877,-61.744 13.636,-82.955c0.757,-21.211 1.136,-56.061 1.136,-104.545l0,-56.819c-87.879,0 -154.545,6.062 -200,18.182c-133.334,37.88 -200,121.971 -200,252.273Zm954.546,731.818c3.029,-6.061 7.575,-12.12 13.636,-18.182c37.878,-25.757 74.241,-43.182 109.091,-52.272c57.575,-15.153 113.637,-23.485 168.182,-25c15.15,-1.516 29.545,-0.757 43.182,2.272c68.182,6.062 109.091,17.425 122.727,34.091c6.059,9.091 9.091,22.727 9.091,40.909l0,15.909c0,53.03 -14.395,115.53 -43.182,187.5c-28.788,71.971 -68.941,129.925 -120.454,173.864c-7.578,6.061 -14.396,9.091 -20.455,9.091c-3.032,0 -6.061,-0.757 -9.091,-2.273c-9.091,-4.545 -11.363,-12.879 -6.818,-25c56.059,-131.818 84.091,-223.484 84.091,-275c0,-16.666 -3.032,-28.788 -9.091,-36.363c-15.152,-18.182 -57.577,-27.273 -127.273,-27.273c-25.759,0 -56.061,1.516 -90.909,4.545c-37.879,4.546 -72.727,9.091 -104.545,13.637c-9.091,0 -15.153,-1.516 -18.182,-4.546c-3.032,-3.029 -3.789,-6.061 -2.273,-9.091c0,-1.516 0.757,-3.788 2.273,-6.818Z" style="fill:#fff;fill-rule:nonzero;" />
</svg>
