<svg width="100%" height="100%" viewBox="0 0 1440 320" version="1.1" xmlns="http://www.w3.org/2000/svg" xmlns:xlink="http://www.w3.org/1999/xlink" xml:space="preserve" xmlns:serif="http://www.serif.com/" style="background: white;fill-rule:evenodd;clip-rule:evenodd;stroke-linejoin:round;stroke-miterlimit:2;"><path d="M0,128l60,-10.7c60,-10.3 180,-32.3 300,-21.3c120,11 240,53 360,53.3c120,-0.3 240,-42.3 360,-69.3c120,-27 240,-37 300,-42.7l60,-5.3l0,288l-60,0l-1320,0l-60,0l0,-192Z" style="background: white;fill:#18cdb5;fill-rule:nonzero;"/><path d="M636.478,110.994c-0.51,-0.46 -1.226,-0.48 -1.685,0.03c-1.058,1.113 -2.072,1.394 -2.929,0.867c-2.384,-1.306 -3.841,-7.349 -2.026,-14.792c1.541,-6.656 1.245,-11.272 -0.891,-13.849c-1.183,-1.311 -2.733,-1.974 -4.534,-1.966c-1.695,-2.371 -4.149,-3.931 -7.153,-4.518l-0.232,-0.045l-28.77,-5.626l-18.024,-3.524c-14.35,-2.686 -21.236,6.763 -24.863,11.812c-0.987,1.367 -2.134,2.942 -3.397,4.494c-3.26,4.401 -6.98,9.312 -8.858,12.784l-2.625,-3.753c-0.279,-0.414 -0.741,-0.504 -1.11,-0.457c-0.485,0.025 -0.784,0.327 -0.99,0.766c-0.228,0.556 -1.823,5.642 -0.632,8.754c-0.268,1.987 -1.132,5.177 -1.928,8.02c-0.796,2.843 -1.524,5.34 -1.68,6.749c-0.022,0.116 -0.09,0.463 -0.273,0.787c-0.48,1.225 -1.555,3.654 1.804,6.11c0.834,0.643 1.713,1.055 2.637,1.236c2.196,0.429 3.946,-0.548 4.843,-1.452c0.459,-0.51 0.803,-1.043 0.916,-1.621c1.083,-0.628 3.386,-1.977 7.505,-5.25c5.568,-4.549 6.138,-6.237 4.369,-9.462c1.886,-1.671 4.981,-1.545 8.794,-0.8l0.693,0.136c-0.811,4.76 -5.73,15.194 -9.799,19.437c-0.299,0.301 -0.389,0.763 -0.226,1.155c0.164,0.392 0.465,0.691 0.927,0.781l5.893,1.152c0.462,0.091 0.854,-0.073 1.175,-0.49c1.447,-1.876 3.762,-5.742 6.148,-9.354c1.238,-2.037 2.592,-4.052 3.463,-5.441c0.631,1.683 1.053,3.205 1.196,4.313c0.571,3.83 -0.903,10.14 -1.563,12.29c-0.068,0.346 -0.02,0.716 0.166,0.992c0.186,0.276 0.51,0.459 0.741,0.505l5.43,1.062c0.693,0.135 1.246,-0.237 1.382,-0.93l4.111,-21.029l0.671,0.251c5.732,1.361 11.579,2.744 15.139,3.56l0.346,0.068c1.502,0.294 2.796,0.427 3.904,0.284c0.487,0.575 0.997,1.034 1.738,1.539l-0.826,1.158c-0.322,0.417 -0.435,0.995 -0.41,1.48c0.141,0.507 0.397,1.037 0.814,1.358c0.834,0.643 2.196,0.43 2.839,-0.404l1.147,-1.575c0.555,0.228 1.11,0.457 1.688,0.57l-0.316,1.617c-0.09,0.462 -0.043,0.832 0.121,1.223c0.256,0.53 0.766,0.99 1.459,1.125c1.04,0.204 2.145,-0.54 2.255,-1.718l0.317,-1.617c0.831,0.042 1.592,-0.169 2.353,-0.38c0.54,2.145 0.619,4.2 0.3,5.217c-0.889,2.705 -3.84,9.206 -7.034,12.66c-0.299,0.301 -0.39,0.763 -0.226,1.155c0.163,0.392 0.464,0.691 0.927,0.781l6.239,1.22c0.462,0.091 0.969,-0.05 1.175,-0.49c0.023,-0.115 3.855,-5.604 6.994,-11.228c-0.559,4.089 -2.528,8.023 -3.811,10.291c-0.184,0.324 -0.251,0.671 -0.088,1.063c0.163,0.391 0.487,0.575 0.834,0.643l5.661,1.107c0.463,0.09 0.993,-0.166 1.314,-0.583c0.228,-0.555 4.121,-8.192 5.6,-13.301c1.707,-5.664 0.25,-11.707 -1.223,-15.833c-1.565,-4.265 -0.913,-13.734 0.506,-16.696c1.898,-4.187 2.111,-8.344 0.872,-11.825c0.556,0.228 0.995,0.434 1.483,1.009c1.183,1.311 2.12,4.494 0.443,11.843c-2.132,9.06 -0.049,15.585 3.192,17.419c0.439,0.205 0.879,0.411 1.226,0.479c1.502,0.294 3.046,-0.244 4.518,-1.635c0.344,-0.533 0.364,-1.249 -0.146,-1.708Zm-79.051,6.735c-1.238,2.037 -2.637,4.283 -3.83,6.089l-3.119,-0.61c3.234,-4.886 6.391,-11.826 7.227,-16.101c1.851,0.961 3.127,2.411 4.011,4.023c-0.987,1.366 -2.546,3.821 -4.289,6.599Zm56.884,9.083c-1.534,2.939 -3.415,5.81 -4.814,8.056l-3.582,-0.7c1.949,-3.218 3.503,-6.873 4.164,-9.023c0.866,-2.59 -0.29,-8.334 -2.174,-11.581c-0.977,-1.751 -2.228,-2.715 -3.499,-2.964c-1.849,-0.361 -3.394,0.176 -4.961,0.83c-2.19,0.771 -4.518,1.635 -8.562,0.845l-0.347,-0.068c-3.582,-0.701 -9.429,-2.084 -15.023,-3.538l-1.826,-0.477c-0.347,-0.067 -0.716,-0.02 -0.992,0.166c-0.276,0.186 -0.46,0.51 -0.505,0.741l-3.502,17.909l-2.888,-0.564c0.542,-2.773 0.966,-6.169 0.539,-8.892c-0.546,-3.346 -2.682,-11.441 -10.333,-13.417l-0.924,-0.18c-4.391,-0.859 -8.779,-1.117 -11.581,2.174c-0.322,0.417 -0.297,0.901 -0.133,1.293c1.442,2.441 1.698,2.971 -3.433,7.126c-5.43,4.457 -7.505,5.251 -7.62,5.228c-0.646,0.234 -0.99,0.766 -0.756,1.412c-0.023,0.115 -0.206,0.439 -0.505,0.741c-1.127,0.859 -2.675,0.796 -4.041,-0.191c-1.877,-1.446 -1.603,-2.232 -1.03,-3.32c0.206,-0.44 0.411,-0.879 0.409,-1.479c0.11,-1.179 0.838,-3.675 1.612,-6.403c0.863,-3.19 1.888,-6.589 2.063,-8.714c0.046,-0.231 -0.025,-0.484 -0.118,-0.622c-0.605,-1.198 -0.314,-3.301 0.025,-5.034l2.346,3.338c0.279,0.414 0.626,0.482 1.11,0.457c0.37,-0.048 0.784,-0.327 0.99,-0.766c0.708,-1.781 2.383,-4.213 4.241,-6.968c0.375,1.153 0.84,1.843 1.372,2.187c0.209,0.161 0.44,0.206 0.671,0.251c0.809,0.159 1.708,-0.146 2.722,-0.427c2.03,-0.563 4.589,-1.382 7.993,0.843c1.273,0.849 2.313,1.052 3.235,0.633c1.59,-0.769 1.786,-3.61 1.956,-6.935c0.173,-2.726 0.298,-5.82 1.378,-7.048c0.322,-0.417 0.713,-0.581 1.083,-0.629c0.969,-0.05 2.197,1.03 3.403,2.225c1.507,1.495 3.339,3.172 5.019,1.942c1.542,-1.138 2.346,-2.181 2.479,-3.475c0.223,-1.755 -0.664,-3.968 -2.892,-6.683c-2.879,-3.682 -7.913,-3.706 -11.926,-2.812c3.569,-2.301 8.158,-3.683 14.512,-2.44l6.124,1.197c-1.635,1 -2.991,2.414 -3.561,4.102c-0.57,1.688 0.083,3.255 1.658,4.403l0.302,0.299c4.192,3.099 9.542,7.024 6.88,10.822c-1.996,2.849 -2.807,7.609 -0.877,10.625c0.743,1.105 1.949,2.301 4.26,2.752c1.04,0.204 2.356,0.221 3.833,0.03c4.199,-0.618 14.419,-2.579 17.49,-7.856c1.078,-1.829 1.115,-3.861 0.228,-6.073c-1.959,-4.702 -6.144,-6 -8.987,-6.796c-0.902,-0.296 -2.035,-0.638 -2.221,-0.914c0,0 0.023,-0.116 0.183,-0.324c0.666,-0.95 1.771,-1.693 2.761,-2.46c1.381,-0.929 2.923,-2.067 3.008,-3.73l15.945,3.118c2.889,0.565 5.182,2.333 6.37,4.844c1.608,3.434 1.119,7.777 -1.332,12.336c-5.108,9.557 -6.958,14.114 -5.255,18.286c1.374,2.788 1.387,5.789 -2.164,12.292Zm7.745,-13.84c1.424,3.757 2.741,9.293 1.169,14.264c-0.934,2.936 -2.511,6.707 -3.769,9.46l-3.235,-0.633c1.532,-3.539 2.76,-7.978 2.164,-12.293c1.645,-4.117 1.77,-7.211 0.463,-10.346c-0.979,-2.35 -0.46,-5.008 2.333,-10.7c-0.284,3.903 0.011,7.92 0.875,10.248Zm-89.775,-6.518c-0.694,-0.136 -1.384,0.329 -1.52,1.022c-0.135,0.694 0.329,1.384 1.023,1.52c0.693,0.135 1.384,-0.329 1.519,-1.023c0.251,-0.67 -0.213,-1.361 -1.022,-1.519Zm40.164,-7.861c-0.834,-0.643 -1.025,-2.12 -1.193,-3.713c-0.171,-2.192 -0.413,-4.639 -2.772,-5.46c-1.456,-0.525 -2.68,-0.404 -3.669,0.362c-1.427,1.161 -2.087,3.311 -2.31,5.067l-0.091,0.462c-0.173,2.725 -0.592,7.322 5.811,8.934l0.578,0.113c3.813,0.745 4.845,-0.852 5.211,-1.501c0.641,-1.434 0.033,-3.232 -1.565,-4.264Zm48.063,-12.675c-1.12,-2.858 -3.462,-4.995 -6.212,-5.653l-0.231,-0.045c-1.733,-0.339 -7.437,-0.615 -8.284,1.259c-0.206,0.44 -0.226,1.155 0.701,1.937c2.643,2.436 4.876,6.351 4.008,8.341c-0.802,1.642 -0.565,2.888 -0.101,3.579c0.513,1.06 1.578,1.748 2.965,2.019c1.848,0.361 4.709,-0.159 6.545,-2.799c1.444,-2.477 1.707,-5.664 0.609,-8.638Z" style="fill:#1d1d1b;fill-rule:nonzero;"/><path d="M287.233,61.309c0.705,0.575 1.568,0.923 2.475,0.998c-0.149,2.305 -0.01,4.619 0.413,6.889c0.522,1.976 -0.226,10.096 -0.522,13.561c-0.069,0.718 -0.117,1.273 -0.143,1.584c-0.14,1.862 -1.263,8.101 -1.269,8.1l-0.168,0.816l6.673,0.257l0.026,-0.678c0.093,-1.081 -0.415,-2.13 -1.321,-2.727c-0.243,-0.913 -0.943,-4.267 0.733,-7.224c0.392,-0.664 0.805,-1.504 1.213,-2.385c0.836,1.567 2.248,5.275 2.236,12.466l-0.027,0.678l5.235,0.202l0.213,-0.243c0.403,-0.488 0.598,-1.115 0.543,-1.745c-0.089,-0.646 -0.427,-1.232 -0.942,-1.632c-0.323,-2.016 -1.219,-6.953 -1.265,-7.179l0.005,-0.122l-0.064,-0.111c-0.272,-0.745 -0.213,-1.571 0.162,-2.269c0.606,-1.457 1.836,-4.473 2.316,-5.636c2.289,0.319 5.409,0.609 9.518,0.768c1.619,0.062 3.403,0.104 5.353,0.124c0.005,2.527 -0.01,11.545 -0.554,14.396c-0.545,2.852 -0.355,3.579 -0.07,3.936c0.138,0.183 0.35,0.295 0.579,0.308l5.085,0.196l0.026,-0.678c0.02,-0.509 -0.02,-2.813 -1.174,-3.719c0.231,-1.058 0.984,-3.861 1.804,-6.797c2.076,6.036 0.417,10.305 0.402,10.345l-0.44,0.866l6.435,0.248l0.026,-0.678c0.004,-0.109 0.153,-2.561 -1.327,-3.814c-0.185,-6.119 2.021,-14.923 2.253,-15.817l6.647,-12.647l5.056,-4.158c0.588,0.07 1.197,0.121 1.794,0.144c1.14,0.063 2.283,-0.014 3.404,-0.229c1.192,-0.267 1.972,-0.759 2.318,-1.466c0.155,-0.313 0.287,-0.559 0.396,-0.766c0.733,-1.391 0.616,-1.687 -0.491,-3.984c-0.214,-0.45 -0.478,-0.99 -0.779,-1.64c-2.171,-4.647 -3.621,-5.783 -3.753,-5.876l-11.716,-9.477l5.54,7.955c-0.508,0.03 -1.003,0.173 -1.449,0.42c-1.183,-0.487 -2.58,-0.887 -3.49,-0.542c-0.45,0.162 -0.798,0.526 -0.941,0.982c-0.223,0.921 0.061,1.893 0.744,2.549l-6.758,5.321c-2.034,-0.078 -16.1,-0.742 -23.306,-0.898c-7.206,-0.155 -9.571,1.832 -11.884,3.699l-0.652,0.524c-1.019,-0.154 -4.002,-0.459 -5.592,0.953c-0.722,0.659 -1.088,1.625 -0.983,2.597c0.015,1.239 0.543,2.419 1.457,3.255Zm12.915,18.718c-0.534,1.056 -0.582,2.295 -0.13,3.39c0.14,0.766 1.025,5.649 1.274,7.288l0.044,0.28l0.224,0.165c0.325,0.186 0.558,0.497 0.646,0.86c0.017,0.159 -0.008,0.32 -0.072,0.466l-3.228,-0.124c-0.052,-8.511 -2.103,-12.21 -2.882,-13.313c0.825,-1.87 1.607,-3.836 2.189,-5.348c1.337,0.475 2.718,0.818 4.123,1.021c-0.532,1.304 -1.627,3.971 -2.188,5.315Zm21.347,11.205c0.376,0.117 0.639,1.037 0.738,1.991l-3.214,-0.123c0.011,-0.888 0.12,-1.773 0.326,-2.636c0.598,-2.999 0.614,-12.058 0.605,-14.652l2.554,-0.004c0.216,1.766 0.552,3.515 1.007,5.234c-0.637,2.251 -2.462,8.734 -2.493,9.534l-0.02,0.522l0.497,0.134Zm-28.561,-35.469c0.308,-0.24 0.61,-0.486 0.911,-0.732c2.223,-1.823 4.327,-3.542 10.997,-3.4c7.728,0.162 23.367,0.9 23.523,0.906l0.25,0.01l7.305,-5.749c0.62,0.493 1.285,0.926 1.987,1.292l0.631,-1.205c-1.398,-0.733 -3.309,-2.239 -3.022,-3.165c0.015,-0.068 0.067,-0.121 0.134,-0.138c0.779,-0.296 3.09,0.71 4.411,1.481l0.684,-1.169l-0.153,-0.087c0.182,0.016 0.363,0.048 0.54,0.095l0.579,0.831l1.116,-0.779l-1.718,-2.463l4.392,3.564c0,0 1.317,1.07 3.358,5.379c0.306,0.691 0.572,1.204 0.785,1.653l0.264,0.554c-0.427,0.416 -0.711,0.956 -0.813,1.544c-0.082,0.609 0.053,1.227 0.381,1.746c-0.348,0.241 -0.743,0.404 -1.159,0.479c-2.83,0.638 -7.751,-0.299 -8.436,-0.842l-0.849,1.061c0.789,0.469 1.663,0.778 2.573,0.907l-4.341,3.561l-6.817,12.994l-0.052,0.14c-0.104,0.404 -2.599,9.978 -2.304,16.61l-0.014,0.353l0.298,0.188c0.621,0.528 0.989,1.296 1.013,2.11l-3.201,-0.123c0.81,-3.476 0.574,-7.115 -0.677,-10.457c-1.326,-3.978 -1.987,-8.147 -1.956,-12.34l-1.356,-0.052c-0.026,1.308 0.026,2.616 0.155,3.917c-16.792,0.121 -22.206,-1.432 -23.69,-2.026c0.272,-0.723 0.446,-1.192 0.47,-1.272l-1.28,-0.464c-0.003,0.082 -2.849,7.856 -4.939,11.524c-2.266,3.988 -0.839,8.382 -0.779,8.568l0.105,0.289l0.274,0.119c0.38,0.181 0.662,0.52 0.772,0.926l-3.655,-0.141c0.312,-1.746 1.038,-5.956 1.152,-7.5c0.012,-0.312 0.073,-0.853 0.141,-1.563c0.538,-5.847 1.016,-12.09 0.5,-14.038c-0.64,-2.415 -0.751,-11.329 1.51,-13.096Zm-5.284,0.713c0.802,-0.709 2.374,-0.791 3.566,-0.718c-0.823,1.62 -1.301,3.394 -1.403,5.209c-0.618,-0.053 -1.207,-0.289 -1.692,-0.677c-0.635,-0.603 -0.993,-1.443 -0.99,-2.32c-0.08,-0.552 0.114,-1.11 0.519,-1.494Z" style="fill-rule:nonzero;"/><path d="M343.552,47.52c0.562,0.022 1,0.495 0.978,1.056c-0.021,0.562 -0.495,1 -1.056,0.978c-0.561,-0.021 -1,-0.495 -0.978,-1.056c0.022,-0.561 0.495,-1 1.056,-0.978Z"/><path d="M299.767,54.682c0.922,-0.141 2.047,-0.261 3.286,-0.349l-0.09,-1.362c-1.293,0.086 -2.439,0.212 -3.409,0.358c-4.42,0.692 -6,5.025 -6.061,5.199l1.28,0.45c0.075,-0.011 1.414,-3.735 4.994,-4.296Z" style="fill-rule:nonzero;"/><path d="M309.633,54.179l0.052,-1.356c0,0 -1.512,-0.059 -3.484,0.022l0.036,1.359c1.91,-0.055 3.382,-0.026 3.396,-0.025Z" style="fill-rule:nonzero;"/><path d="M874.13,44.191c0.541,-0.112 1.07,0.237 1.181,0.778c0.111,0.54 -0.237,1.069 -0.778,1.181c-0.541,0.111 -1.07,-0.238 -1.181,-0.779c-0.111,-0.54 0.238,-1.069 0.778,-1.18Z"/><path d="M950.395,76.973c0.927,1.034 1.983,2.196 3.289,2.192c0.683,-0.018 1.324,-0.336 1.751,-0.87c1.45,-1.636 0.805,-3.432 0.052,-5.503c-1.012,-2.534 -1.566,-5.227 -1.635,-7.954c0.117,-2.064 -0.778,-4.061 -2.396,-5.347c-2.042,-1.489 -4.812,-1.308 -6.342,-1.054c-0.535,-1.411 -2.347,-2.825 -5.381,-4.223c-4.779,-2.193 -21.905,1.808 -38.036,6.024c-1.588,0.418 -2.81,0.731 -3.521,0.897c-0.517,0.148 -1.074,0.074 -1.533,-0.205c-1.866,-1.179 -2.855,-5.743 -3.901,-10.582c-0.377,-1.831 -0.766,-3.722 -1.287,-5.564c-2.399,-9.083 -12.14,-13.512 -17.537,-12.403c-0.002,0.001 -0.004,0.001 -0.007,0.002c-0.537,0.11 -0.888,0.643 -0.778,1.181c0.052,0.251 0.199,0.473 0.41,0.62c1.909,1.343 2.573,4.075 2.784,5.349c-1.991,0.94 -7.581,3.845 -8.82,7.5c-0.451,1.251 -0.319,2.641 0.36,3.785c0.999,1.734 4.137,1.252 6.34,0.646c-0.414,5.19 -1.257,22.239 4.306,31.866c6.463,11.177 7.094,11.813 11.858,14.774c1.57,0.984 3.162,3.015 4.696,4.966c2.074,2.637 4.157,5.322 6.593,5.945c0.94,4.227 1.253,9.073 0.11,9.972c-0.736,0.537 -1.537,0.979 -2.383,1.317c-1.525,0.681 -3.62,1.612 -2.609,4.242c0.175,0.461 0.666,0.727 1.148,0.621l6.573,-1.351c0.291,-0.121 6.965,-3.117 2.638,-16.959c0.437,-0.406 0.849,-0.838 1.347,-1.298c3.96,-3.877 9.326,-9.258 23.085,-8.381c2.123,0.698 4.115,1.744 5.894,3.097c1.585,1.203 3.354,2.142 5.238,2.782c0.173,2.731 -0.075,7.335 -1.921,7.837c-1.225,0.267 -2.287,1.025 -2.939,2.095c-0.515,0.962 -0.649,2.084 -0.375,3.14c0.141,0.504 0.655,0.816 1.167,0.71l6.729,-1.384c0.32,-0.077 0.583,-0.306 0.701,-0.614c0.153,-0.297 3.519,-7.216 2.433,-13.537c0.584,-0.748 1.064,-1.571 1.427,-2.448c2.238,-5.299 2.324,-14.066 -1.201,-22.274l0.687,-0.631c0.351,0.318 0.681,0.659 0.986,1.022Zm-80.794,-27.155c-0.387,-0.647 -0.462,-1.434 -0.206,-2.142c0.693,-2.042 3.528,-4.044 5.863,-5.351c1.134,1.124 2.475,2.017 3.95,2.629c-1.304,1.558 -2.768,2.975 -4.368,4.226c-2.485,0.827 -4.941,1.046 -5.239,0.638Zm34.16,72.098l-5.094,1.047c0.467,-0.353 0.984,-0.635 1.534,-0.836c0.996,-0.411 1.935,-0.947 2.795,-1.596c2.418,-1.895 1.302,-8.567 0.693,-11.525c0.245,-0.064 0.484,-0.147 0.715,-0.249c0.358,-0.163 0.7,-0.356 1.024,-0.579c3.098,10.645 -1.11,13.419 -1.667,13.738Zm40.679,-8.364l-5.103,1.049c0.199,-0.963 0.985,-1.703 1.959,-1.842c3.431,-0.941 3.542,-6.854 3.404,-9.511c0.376,-0.01 0.749,-0.053 1.117,-0.127c0.284,-0.064 0.559,-0.161 0.819,-0.291c0.352,4.542 -1.553,9.283 -2.196,10.722Zm3.368,-38.885c-0.484,-0.963 -1.019,-1.911 -1.606,-2.845c-2.319,-3.414 -5.203,-6.409 -8.528,-8.854c-0.222,-0.148 -0.494,-0.2 -0.755,-0.147c-0.538,0.111 -0.889,0.644 -0.779,1.182c0.054,0.259 0.207,0.486 0.427,0.632c3.099,2.309 5.794,5.115 7.976,8.304c6.24,9.794 5.521,20.396 3.518,25.157c-0.741,1.755 -1.727,2.917 -2.629,3.103c-2.282,0.469 -4.402,-0.953 -6.856,-2.613c-0.699,-0.469 -1.433,-0.961 -2.204,-1.435c-6.542,-4.903 -7.401,-14.099 -7.412,-14.199c-0.003,-0.04 -0.009,-0.079 -0.017,-0.119c-0.111,-0.541 -0.648,-0.895 -1.189,-0.783c-0.497,0.102 -0.843,0.564 -0.801,1.07c0.493,4.34 2.087,8.483 4.628,12.034c-3.357,-0.25 -6.732,-0.054 -10.038,0.584c-2.664,0.532 -5.225,1.49 -7.584,2.836c1.326,-3.479 2.356,-9.397 0.309,-18.359c-0.111,-0.537 -0.644,-0.888 -1.181,-0.778c-0.537,0.111 -0.889,0.644 -0.778,1.181c3.223,13.987 -1.599,19.981 -2.02,20.466c-1.238,1.03 -2.283,2.052 -3.206,2.977c-1.004,1.134 -2.185,2.097 -3.497,2.853c-2.029,0.907 -4.085,-1.447 -6.974,-5.121c-1.645,-2.091 -3.345,-4.253 -5.199,-5.424c-4.339,-2.732 -4.786,-3.018 -11.186,-14.035c-5.68,-9.848 -4.211,-28.822 -3.936,-31.758c5.564,-4.564 5.243,-5.927 5.131,-6.374c-0.136,-0.547 -0.588,-0.961 -1.145,-1.051c-1.152,-0.368 -2.205,-0.993 -3.081,-1.827l0.612,-0.248c0.391,-0.168 0.634,-0.567 0.603,-0.992c-0.174,-2.091 -0.866,-4.107 -2.012,-5.865c4.491,0.394 11.255,3.996 13.101,11.089c0.475,1.812 0.879,3.678 1.261,5.488c1.179,5.485 2.205,10.226 4.785,11.85c0.913,0.572 2.024,0.739 3.066,0.462c0.725,-0.149 1.941,-0.491 3.558,-0.916c8.721,-2.273 31.917,-8.328 36.696,-6.136c4.072,1.879 4.363,3.095 4.387,3.263c-0.133,0.332 -0.078,0.711 0.143,0.992c0.257,0.328 0.693,0.463 1.09,0.337c1.021,-0.301 4.036,-0.829 5.816,0.479c1.092,0.931 1.676,2.33 1.57,3.761c0.079,2.941 0.676,5.846 1.764,8.58c0.744,2.083 0.937,2.819 0.332,3.505c0,0 -0.175,0.189 -0.267,0.188c-0.418,0.004 -1.28,-0.962 -1.797,-1.54c-0.835,-0.931 -1.559,-1.721 -2.489,-1.775c-0.425,-0.021 -0.84,0.134 -1.147,0.43l-0.46,0.391Z" style="fill-rule:nonzero;"/><path d="M888.456,63.072c-7.414,7.436 -5.62,22.319 -5.561,22.951c0.07,0.542 0.574,0.931 1.116,0.862l0.079,-0.016c0.509,-0.103 0.857,-0.586 0.794,-1.102c-0.03,-0.147 -1.736,-14.549 5.023,-21.298c0.23,-0.239 0.328,-0.577 0.261,-0.901c-0.111,-0.541 -0.648,-0.895 -1.189,-0.784c-0.199,0.041 -0.381,0.142 -0.523,0.288Z" style="fill-rule:nonzero;"/><g><path d="M62.281,100.611c0.519,-0.057 0.988,0.321 1.045,0.843c0.057,0.523 -0.318,0.994 -0.838,1.05c-0.52,0.057 -0.988,-0.321 -1.045,-0.844c-0.057,-0.522 0.318,-0.993 0.838,-1.049Z"/><g><path d="M61.131,73.759c0.52,-0.057 0.988,0.321 1.045,0.844c0.057,0.523 -0.318,0.993 -0.838,1.05c-0.519,0.057 -0.988,-0.321 -1.045,-0.844c-0.057,-0.523 0.318,-0.993 0.838,-1.05Z"/><path d="M57.593,74.146c0.52,-0.057 0.988,0.321 1.046,0.844c0.057,0.523 -0.319,0.993 -0.838,1.05c-0.52,0.057 -0.988,-0.321 -1.045,-0.844c-0.058,-0.523 0.318,-0.993 0.837,-1.05Z"/></g><path d="M62.274,77.845c0.407,0.329 0.473,0.929 0.147,1.339l-1.592,1.994c-0.165,0.207 -0.401,0.326 -0.642,0.351c-0.242,0.026 -0.492,-0.04 -0.695,-0.204l-1.983,-1.603c-0.409,-0.33 -0.475,-0.931 -0.147,-1.339c0.326,-0.411 0.923,-0.476 1.33,-0.146l1.25,1.01l1.003,-1.256c0.326,-0.411 0.922,-0.476 1.329,-0.146Z" style="fill-rule:nonzero;"/><path d="M63.585,88.445c0.103,0.227 0.167,0.464 0.193,0.707c0.04,0.365 -0.008,0.733 -0.138,1.071c-0.126,0.339 -0.331,0.647 -0.597,0.908c-0.481,0.47 -1.092,0.727 -1.714,0.797c-0.624,0.067 -1.277,-0.052 -1.847,-0.407c-0.315,-0.197 -0.58,-0.455 -0.779,-0.758c-0.199,-0.302 -0.326,-0.651 -0.366,-1.016c-0.027,-0.243 -0.015,-0.49 0.036,-0.732l1.146,-5.357c0.087,-0.403 0.415,-0.7 0.823,-0.745c0.405,-0.044 0.79,0.175 0.963,0.55l2.28,4.982Zm-1.689,0.913c-0.004,-0.042 -0.014,-0.078 -0.033,-0.12l-1.089,-2.384l-0.548,2.563c-0.011,0.045 -0.013,0.085 -0.009,0.124c0.007,0.057 0.027,0.116 0.067,0.176c0.04,0.063 0.103,0.127 0.193,0.185c0.168,0.106 0.404,0.158 0.644,0.132c0.238,-0.026 0.46,-0.128 0.601,-0.268c0.078,-0.076 0.123,-0.153 0.149,-0.223c0.025,-0.066 0.032,-0.127 0.025,-0.185Z" style="fill-rule:nonzero;"/><path d="M41.182,105.042c-0.108,0.056 -0.22,0.09 -0.334,0.102c-0.031,0.004 -0.065,0.006 -0.096,0.005c-0.036,0.002 -0.069,-0.001 -0.102,-0.005c-0.027,-0.003 -0.054,-0.006 -0.082,-0.013c-0.024,-0.003 -0.048,-0.008 -0.071,-0.016c-0.02,-0.006 -0.043,-0.013 -0.063,-0.02c-0.02,-0.006 -0.043,-0.014 -0.061,-0.024c-0.025,-0.009 -0.048,-0.02 -0.069,-0.031c-0.027,-0.016 -0.052,-0.03 -0.078,-0.048c-0.096,-0.062 -0.181,-0.142 -0.249,-0.24c-0.012,-0.017 -0.024,-0.033 -0.033,-0.052c-0.014,-0.021 -0.027,-0.043 -0.039,-0.064c-0.053,-0.101 -0.087,-0.215 -0.1,-0.336c-0.038,-0.344 -0.192,-0.666 -0.429,-0.912c-0.238,-0.246 -0.551,-0.414 -0.925,-0.457c-0.839,-0.097 -1.569,-0.489 -2.089,-1.045c-0.523,-0.554 -0.851,-1.262 -0.934,-2.021c-0.042,-0.391 -0.02,-0.796 0.079,-1.193c0.099,-0.398 0.271,-0.788 0.522,-1.147c0.226,-0.329 0.305,-0.692 0.267,-1.051c-0.028,-0.259 -0.123,-0.515 -0.274,-0.729c-0.15,-0.213 -0.353,-0.392 -0.615,-0.512c-0.582,-0.266 -1.055,-0.678 -1.39,-1.162c-0.335,-0.482 -0.534,-1.036 -0.596,-1.603c-0.062,-0.567 0.012,-1.151 0.235,-1.695c0.222,-0.545 0.596,-1.048 1.106,-1.435l0,0.002c0.229,-0.176 0.389,-0.394 0.491,-0.637c0.1,-0.241 0.138,-0.507 0.109,-0.768c-0.041,-0.359 -0.197,-0.695 -0.489,-0.967l0,-0.002c-0.322,-0.296 -0.575,-0.64 -0.757,-1.009c-0.183,-0.367 -0.293,-0.758 -0.335,-1.147c-0.083,-0.758 0.084,-1.522 0.474,-2.176c0.195,-0.325 0.449,-0.623 0.754,-0.876c0.304,-0.252 0.659,-0.456 1.06,-0.593c0.356,-0.126 0.625,-0.354 0.804,-0.645c0.179,-0.292 0.259,-0.642 0.222,-0.985c-0.022,-0.2 -0.085,-0.398 -0.191,-0.587l0,-0.002c-0.24,-0.424 -0.38,-0.877 -0.429,-1.326c-0.075,-0.686 0.062,-1.362 0.361,-1.947c0.297,-0.586 0.759,-1.087 1.348,-1.426c0.391,-0.225 0.838,-0.377 1.318,-0.428c0.105,-0.011 0.213,-0.019 0.32,-0.021l0.004,0.002c0.051,-0.002 0.096,-0.005 0.138,-0.009c0.42,-0.046 0.777,-0.258 1.025,-0.569c0.248,-0.313 0.374,-0.71 0.328,-1.132c-0.005,-0.047 -0.01,-0.093 -0.019,-0.142c-0.022,-0.105 -0.039,-0.211 -0.051,-0.319c-0.053,-0.484 -0.003,-0.954 0.132,-1.389c0.133,-0.434 0.348,-0.829 0.629,-1.167c0.555,-0.678 1.359,-1.141 2.271,-1.24c0.445,-0.051 0.913,-0.009 1.375,0.133c0.212,0.064 0.415,0.08 0.614,0.058c0.339,-0.037 0.662,-0.191 0.906,-0.431c0.243,-0.239 0.41,-0.551 0.451,-0.928c0.096,-0.844 0.486,-1.577 1.035,-2.1c0.549,-0.526 1.255,-0.852 2.007,-0.936c0.386,-0.042 0.789,-0.02 1.185,0.081c0.395,0.098 0.784,0.274 1.14,0.524l0,-0.002c0.325,0.23 0.691,0.313 1.044,0.274c0.26,-0.028 0.51,-0.123 0.724,-0.273c0.212,-0.152 0.388,-0.357 0.509,-0.62l0.001,-0.004c0.264,-0.582 0.672,-1.058 1.15,-1.392c0.481,-0.336 1.028,-0.539 1.594,-0.601c0.564,-0.061 1.144,0.018 1.684,0.243c0.542,0.223 1.04,0.599 1.425,1.112c0.175,0.233 0.392,0.392 0.63,0.495c0.242,0.103 0.507,0.141 0.766,0.113c0.357,-0.041 0.69,-0.199 0.96,-0.492c0.295,-0.323 0.636,-0.578 1.001,-0.759c0.364,-0.185 0.751,-0.293 1.141,-0.335c0.753,-0.081 1.511,0.084 2.16,0.48c0.651,0.391 1.19,1.02 1.465,1.826l0.002,0.002c0.122,0.358 0.349,0.627 0.639,0.807c0.29,0.181 0.638,0.261 0.98,0.224c0.197,-0.022 0.394,-0.081 0.59,-0.192c0.416,-0.236 0.867,-0.378 1.309,-0.427c0.684,-0.075 1.355,0.066 1.934,0.366c0.582,0.303 1.081,0.767 1.418,1.359c0.225,0.396 0.377,0.846 0.43,1.328c0.011,0.106 0.017,0.215 0.019,0.322l0.001,0.008c-0.001,0.049 0.002,0.093 0.007,0.136c0.046,0.422 0.257,0.781 0.567,1.034c0.311,0.25 0.706,0.377 1.126,0.333c0.046,-0.005 0.095,-0.012 0.143,-0.024l-0.008,0.003c0.107,-0.024 0.215,-0.042 0.322,-0.053c0.48,-0.053 0.949,-0.001 1.38,0.134c0.43,0.136 0.822,0.355 1.161,0.633c0.671,0.562 1.133,1.375 1.235,2.29c0.049,0.45 0.008,0.92 -0.131,1.384c-0.064,0.212 -0.08,0.42 -0.058,0.618c0.037,0.344 0.191,0.67 0.429,0.916c0.238,0.246 0.55,0.41 0.925,0.456c0.839,0.097 1.566,0.489 2.085,1.044c0.524,0.554 0.851,1.262 0.933,2.02c0.043,0.39 0.02,0.795 -0.078,1.193c-0.097,0.399 -0.27,0.789 -0.52,1.148l0.002,0c-0.226,0.328 -0.309,0.694 -0.27,1.051c0.029,0.259 0.123,0.511 0.273,0.727c0.15,0.215 0.355,0.394 0.617,0.516l0,-0.002c0.582,0.267 1.055,0.678 1.39,1.162c0.335,0.484 0.534,1.038 0.596,1.604c0.062,0.567 -0.012,1.15 -0.235,1.695c-0.223,0.544 -0.596,1.049 -1.106,1.435c-0.229,0.174 -0.391,0.392 -0.491,0.633c-0.1,0.241 -0.137,0.511 -0.109,0.77c0.039,0.359 0.198,0.697 0.491,0.97c0.32,0.296 0.573,0.638 0.753,1.005c0.182,0.367 0.292,0.759 0.335,1.148c0.083,0.759 -0.082,1.521 -0.474,2.176c-0.193,0.328 -0.447,0.626 -0.751,0.878c-0.306,0.251 -0.662,0.455 -1.059,0.594c-0.356,0.122 -0.625,0.354 -0.804,0.645c-0.18,0.292 -0.259,0.642 -0.222,0.985c0.057,0.522 -0.316,0.991 -0.834,1.05l-0.002,0c-0.115,0.013 -0.233,0.004 -0.348,-0.027l-3.586,-0.971l-0.002,0c-0.002,0.073 -0.009,0.148 -0.015,0.22l-0.004,0.038c-0.088,0.694 -0.278,1.32 -0.55,1.864c-0.272,0.545 -0.622,1.01 -1.019,1.387c-0.799,0.755 -1.767,1.164 -2.702,1.267c-0.118,0.012 -0.226,0.024 -0.338,0.029c-0.099,0.183 -0.201,0.367 -0.308,0.547c-0.927,1.592 -2.163,3.007 -3.634,4.173l0.12,1.1c0.103,0.941 -0.184,1.846 -0.729,2.529c-0.356,0.447 -0.827,0.807 -1.369,1.028l0.118,1.077l3.674,-0.402c0.52,-0.057 0.988,0.321 1.045,0.845c0.057,0.521 -0.317,0.993 -0.838,1.05l-5.875,0.642c-0.521,0.057 -0.986,-0.322 -1.043,-0.844c-0.058,-0.523 0.316,-0.993 0.836,-1.05l0.32,-0.035l-0.118,-1.075c-0.579,-0.099 -1.113,-0.348 -1.557,-0.708c-0.381,-0.308 -0.698,-0.698 -0.922,-1.15c-0.583,0.13 -1.18,0.229 -1.786,0.295c-0.603,0.066 -1.211,0.099 -1.809,0.097c-0.12,0.489 -0.345,0.941 -0.651,1.323c-0.355,0.448 -0.825,0.805 -1.369,1.029l0.118,1.077l0.322,-0.036c0.521,-0.057 0.988,0.321 1.046,0.845c0.057,0.522 -0.318,0.993 -0.839,1.05l-5.877,0.643c-0.519,0.057 -0.986,-0.323 -1.043,-0.844c-0.058,-0.524 0.317,-0.994 0.836,-1.051l3.675,-0.402l-0.118,-1.076c-0.579,-0.102 -1.115,-0.348 -1.557,-0.709c-0.683,-0.548 -1.158,-1.37 -1.261,-2.311l-0.12,-1.102c-1.69,-0.817 -3.201,-1.932 -4.451,-3.286c-0.143,-0.155 -0.282,-0.31 -0.421,-0.472c-0.112,0.02 -0.224,0.036 -0.34,0.049c-0.702,0.077 -1.455,-0.012 -2.189,-0.298c-0.732,-0.285 -1.44,-0.777 -2.014,-1.489c-0.381,-0.472 -0.702,-1.043 -0.938,-1.701l-0.012,-0.038c-0.021,-0.069 -0.043,-0.141 -0.065,-0.213l-3.297,1.725Zm5.91,-16.238c0.659,-0.898 1.408,-1.735 2.232,-2.502l-7.612,-5.125c-0.434,-0.292 -0.552,-0.884 -0.263,-1.321c0.29,-0.439 0.879,-0.554 1.313,-0.263l8.082,5.441c0.039,-0.029 0.079,-0.058 0.117,-0.085c0.72,-0.562 1.325,-1.235 1.788,-1.986l-0.002,0l-6.298,-8.647c-0.308,-0.424 -0.217,-1.02 0.202,-1.332c0.422,-0.309 1.014,-0.217 1.323,0.207l5.624,7.718c0.168,-0.721 0.218,-1.474 0.133,-2.245l-0.48,-4.387c-0.087,-0.8 0.004,-1.59 0.242,-2.317c0.236,-0.73 0.621,-1.397 1.116,-1.975c0.99,-1.155 2.434,-1.95 4.09,-2.131c2.485,-0.27 4.801,0.902 5.971,2.884c0.388,0.658 0.648,1.409 0.736,2.209l0.48,4.387c0.084,0.767 0.295,1.49 0.612,2.154l3.826,-8.762c0.21,-0.481 0.768,-0.699 1.247,-0.487c0.479,0.211 0.696,0.775 0.487,1.256l-4.288,9.817c0.614,0.633 1.351,1.164 2.176,1.558c0.008,0.003 0.014,0.006 0.022,0.009c0.036,0.016 0.073,0.034 0.108,0.05l6.714,-7.061c0.362,-0.379 0.96,-0.39 1.337,-0.027c0.379,0.363 0.392,0.967 0.031,1.346l-6.322,6.647c0.972,0.571 1.884,1.227 2.725,1.962l6.045,-2.997c0.468,-0.232 1.036,-0.038 1.267,0.435c0.231,0.471 0.039,1.042 -0.429,1.275l-5.446,2.7c0.307,0.339 0.602,0.69 0.881,1.052c0.542,0.705 1.029,1.454 1.454,2.238l0,0.002l3.388,-0.379c0.519,-0.058 0.988,0.319 1.046,0.842c0.059,0.524 -0.316,0.993 -0.834,1.052l-2.753,0.308c0.511,1.307 0.858,2.696 1.017,4.147c0.035,0.324 0.06,0.647 0.076,0.967l2.978,0.807c0.085,-0.309 0.213,-0.605 0.382,-0.877c0.195,-0.324 0.449,-0.619 0.752,-0.865c0.302,-0.247 0.651,-0.448 1.043,-0.582c0.372,-0.13 0.631,-0.363 0.808,-0.654c0.175,-0.291 0.251,-0.647 0.214,-0.986c-0.019,-0.177 -0.067,-0.344 -0.146,-0.506c-0.081,-0.16 -0.19,-0.313 -0.342,-0.455c-0.635,-0.587 -1.003,-1.361 -1.09,-2.155c0,-0.002 -0.001,-0.006 -0.001,-0.008c-0.063,-0.578 0.018,-1.167 0.243,-1.709c0.224,-0.545 0.594,-1.043 1.097,-1.424c0.241,-0.181 0.398,-0.399 0.497,-0.638c0.096,-0.236 0.132,-0.502 0.104,-0.761c-0.028,-0.259 -0.121,-0.509 -0.267,-0.721c-0.147,-0.214 -0.348,-0.389 -0.622,-0.515c-0.574,-0.267 -1.043,-0.672 -1.379,-1.153c-0.335,-0.484 -0.544,-1.04 -0.607,-1.617c-0.089,-0.794 0.103,-1.634 0.597,-2.347l0,-0.002c0.118,-0.17 0.192,-0.34 0.236,-0.516c0.042,-0.173 0.052,-0.351 0.033,-0.527c-0.037,-0.338 -0.188,-0.669 -0.422,-0.915c-0.237,-0.248 -0.539,-0.415 -0.931,-0.462c-0.82,-0.097 -1.542,-0.478 -2.065,-1.024c-0.527,-0.547 -0.87,-1.26 -0.955,-2.035c-0.049,-0.449 -0.01,-0.918 0.128,-1.378l-0.001,-0.001c0.067,-0.218 0.085,-0.425 0.063,-0.622c-0.033,-0.299 -0.158,-0.583 -0.348,-0.816c-0.191,-0.231 -0.445,-0.405 -0.729,-0.494c-0.19,-0.06 -0.392,-0.084 -0.611,-0.06c-0.046,0.005 -0.093,0.012 -0.143,0.024l-0.006,0.001c-0.102,0.021 -0.205,0.038 -0.309,0.049c-0.937,0.103 -1.836,-0.192 -2.516,-0.743c-0.681,-0.548 -1.162,-1.369 -1.265,-2.312c-0.012,-0.106 -0.018,-0.215 -0.02,-0.322c-0.002,-0.049 -0.003,-0.097 -0.008,-0.144c-0.026,-0.22 -0.09,-0.415 -0.19,-0.589c-0.098,-0.172 -0.231,-0.324 -0.387,-0.449c-0.315,-0.248 -0.719,-0.371 -1.115,-0.327c-0.197,0.021 -0.392,0.08 -0.589,0.195l-0.003,0.003c-0.415,0.231 -0.861,0.372 -1.308,0.42c-0.77,0.085 -1.533,-0.096 -2.177,-0.498c-0.645,-0.397 -1.168,-1.025 -1.437,-1.807c-0.132,-0.376 -0.362,-0.639 -0.654,-0.817c-0.29,-0.177 -0.639,-0.254 -0.977,-0.217c-0.176,0.019 -0.346,0.067 -0.505,0.146c-0.161,0.082 -0.31,0.191 -0.449,0.345c-0.585,0.64 -1.36,1.006 -2.148,1.093c-0.575,0.063 -1.159,-0.02 -1.7,-0.247c-0.538,-0.227 -1.033,-0.599 -1.414,-1.105c-0.18,-0.242 -0.395,-0.402 -0.634,-0.5c-0.238,-0.099 -0.501,-0.136 -0.756,-0.108c-0.255,0.028 -0.506,0.121 -0.716,0.269c-0.211,0.148 -0.388,0.352 -0.514,0.625c-0.261,0.577 -0.663,1.049 -1.143,1.386c-0.476,0.339 -1.032,0.545 -1.605,0.608c-0.002,0 -0.006,0.001 -0.008,0.001c-0.788,0.086 -1.618,-0.109 -2.325,-0.603c-0.169,-0.121 -0.341,-0.195 -0.513,-0.24c-0.173,-0.042 -0.349,-0.053 -0.523,-0.034c-0.337,0.037 -0.666,0.188 -0.911,0.423c-0.244,0.238 -0.41,0.544 -0.458,0.938c-0.093,0.824 -0.472,1.55 -1.012,2.077c-0.541,0.532 -1.25,0.873 -2.018,0.957c-0.448,0.049 -0.913,0.009 -1.368,-0.128l-0.004,-0.001c-0.216,-0.068 -0.421,-0.083 -0.616,-0.062c-0.298,0.033 -0.581,0.157 -0.808,0.349c-0.232,0.192 -0.405,0.447 -0.495,0.731c-0.056,0.192 -0.078,0.398 -0.054,0.617c0.005,0.047 0.012,0.094 0.023,0.145l0.001,0.003c0.019,0.105 0.035,0.209 0.046,0.313c0.103,0.941 -0.187,1.846 -0.731,2.531c-0.547,0.685 -1.36,1.167 -2.296,1.269c-0.108,0.012 -0.213,0.018 -0.32,0.02c-0.052,0.002 -0.098,0.004 -0.143,0.009c-0.219,0.024 -0.413,0.089 -0.586,0.189c-0.172,0.099 -0.323,0.232 -0.444,0.39c-0.246,0.315 -0.369,0.723 -0.324,1.121c0.022,0.199 0.081,0.395 0.193,0.593c0.236,0.418 0.376,0.871 0.425,1.323c0.085,0.774 -0.095,1.546 -0.49,2.191c-0.198,0.325 -0.452,0.617 -0.754,0.864c-0.302,0.246 -0.652,0.446 -1.041,0.582c-0.374,0.131 -0.636,0.36 -0.812,0.655c-0.176,0.291 -0.252,0.644 -0.215,0.982c0.019,0.176 0.07,0.347 0.148,0.507c0.079,0.162 0.19,0.313 0.34,0.453c0.641,0.591 1.007,1.373 1.091,2.165c0.064,0.579 -0.018,1.167 -0.242,1.712c-0.223,0.542 -0.595,1.037 -1.096,1.422c-0.242,0.183 -0.398,0.396 -0.496,0.637c-0.098,0.239 -0.135,0.503 -0.106,0.762c0.028,0.259 0.121,0.51 0.268,0.721c0.148,0.212 0.347,0.39 0.623,0.515c0.571,0.263 1.042,0.669 1.377,1.153c0.337,0.481 0.544,1.038 0.607,1.616c0.089,0.794 -0.1,1.634 -0.598,2.348c-0.115,0.171 -0.191,0.345 -0.233,0.517c-0.042,0.176 -0.055,0.349 -0.035,0.526c0.037,0.339 0.187,0.67 0.422,0.917c0.236,0.246 0.541,0.417 0.934,0.463c0.818,0.095 1.54,0.477 2.065,1.022c0.221,0.23 0.412,0.491 0.563,0.775l2.739,-1.435c-0.054,-0.316 -0.099,-0.633 -0.134,-0.956c-0.159,-1.451 -0.12,-2.883 0.095,-4.27l-2.76,0.296c-0.521,0.055 -0.986,-0.323 -1.043,-0.846c-0.056,-0.524 0.319,-0.994 0.84,-1.049l3.396,-0.363l0,-0.002c0.245,-0.858 0.558,-1.695 0.934,-2.498c0.195,-0.414 0.405,-0.82 0.632,-1.218l-5.985,-1.478c-0.509,-0.127 -0.82,-0.643 -0.697,-1.153c0.124,-0.511 0.636,-0.823 1.145,-0.699l6.635,1.64Zm31.26,10.619c0.073,-0.901 0.065,-1.817 -0.036,-2.744c-0.3,-2.722 -1.343,-5.186 -2.933,-7.253c-1.589,-2.063 -3.747,-3.734 -6.219,-4.823c-1.383,-0.652 -2.583,-1.623 -3.485,-2.83c-0.903,-1.203 -1.504,-2.649 -1.677,-4.234l-0.48,-4.387c-0.058,-0.525 -0.225,-1.009 -0.482,-1.445c-0.255,-0.435 -0.6,-0.818 -1.018,-1.132c-0.834,-0.625 -1.935,-0.957 -3.117,-0.827c-1.771,0.192 -3.149,1.366 -3.616,2.807c-0.157,0.482 -0.216,0.99 -0.158,1.516l0.48,4.386c0.175,1.585 -0.099,3.129 -0.719,4.499c-0.619,1.374 -1.585,2.581 -2.796,3.517c-2.173,1.598 -3.919,3.696 -5.024,6.053c-1.102,2.36 -1.589,4.991 -1.291,7.713c0.103,0.938 0.295,1.845 0.566,2.715c0,0.003 0.002,0.008 0.003,0.009c0.168,0.452 0.377,0.817 0.612,1.106c0.243,0.301 0.512,0.53 0.797,0.699c0.3,0.183 0.622,0.298 0.938,0.361c-0.535,-0.897 -0.972,-1.86 -1.293,-2.879c-0.157,-0.501 0.12,-1.035 0.616,-1.192c0.499,-0.162 1.031,0.117 1.188,0.62c0.535,1.692 1.442,3.218 2.633,4.507c0.854,0.923 1.852,1.723 2.963,2.373c0.134,-0.29 0.412,-0.508 0.753,-0.545c0.521,-0.057 0.986,0.321 1.043,0.844l0.307,2.804c0.049,0.426 0.257,0.784 0.565,1.032c0.153,0.124 0.327,0.216 0.517,0.275c0.19,0.058 0.393,0.078 0.604,0.057c0.421,-0.048 0.777,-0.258 1.023,-0.567c0.247,-0.309 0.373,-0.703 0.329,-1.129l-0.081,-0.733c-0.057,-0.526 0.318,-0.994 0.836,-1.051c0.519,-0.056 0.986,0.32 1.044,0.845l0.003,0.034c0.531,0.001 1.071,-0.028 1.599,-0.086c0.538,-0.059 1.066,-0.144 1.58,-0.26l-0.003,-0.036c-0.058,-0.525 0.317,-0.993 0.835,-1.05c0.521,-0.057 0.989,0.319 1.046,0.844l0.08,0.734c0.047,0.425 0.256,0.784 0.563,1.031c0.308,0.249 0.698,0.376 1.122,0.332c0.423,-0.048 0.776,-0.257 1.023,-0.566c0.245,-0.309 0.373,-0.704 0.326,-1.129l-0.307,-2.805c-0.057,-0.524 0.318,-0.993 0.839,-1.05c0.339,-0.037 0.659,0.114 0.853,0.369c0.944,-0.875 1.745,-1.871 2.38,-2.957c0.442,-0.761 0.802,-1.561 1.07,-2.394c0.27,-0.83 0.446,-1.694 0.525,-2.58c0.045,-0.523 0.506,-0.91 1.024,-0.862c0.523,0.048 0.909,0.51 0.861,1.033c-0.093,1.064 -0.309,2.098 -0.636,3.09c0.156,-0.067 0.309,-0.151 0.456,-0.251c0.395,-0.265 0.746,-0.641 1.005,-1.157c0.17,-0.343 0.301,-0.754 0.361,-1.244c0.001,-0.003 0.003,-0.007 0.003,-0.007Z" style="fill-rule:nonzero;"/></g><path d="M1255.6,23.112l0.166,1.111l-3.709,-0.865l-5.774,-7.744c1.511,-1.102 2.713,-2.568 3.497,-4.289c0.935,-2.052 1.212,-4.305 0.803,-6.516l-0.236,-1.269l-1.111,0.656c-0.005,0.003 -0.01,0.007 -0.016,0.011l0,-0.001l-11.405,7.061c-6.116,-1.017 -33.216,-5.114 -51.61,-1.193c-4.193,0.892 -7.532,2.928 -9.657,5.887l-0.981,1.777c-1.527,-1.866 -2.036,-3.579 -1.436,-4.88c1.178,0.451 2.536,0.407 3.434,-0.169c0.635,-0.407 0.952,-1.055 0.851,-1.732c-0.106,-0.705 -0.598,-1.243 -1.318,-1.443c-1.002,-0.278 -2.316,0.12 -3.328,0.946c-0.313,-0.376 -0.515,-0.861 -0.603,-1.448l-1.787,0.268c0.182,1.213 0.689,2.036 1.228,2.587c-0.757,1.411 -1.21,4.022 2.089,7.634c-1.096,3.049 -1.157,6.394 -0.16,9.488l9.16,27.988l3.152,3.401l4.438,-0.667l-1.695,-4.083l-0.65,-4.271l3.253,-6.162l3.626,9.947l2.843,3.462l4.49,-0.674l-1.772,-4.077l-0.661,-4.404l1.25,-5.279c2.596,0.419 5.23,0.434 7.835,0.043l8.857,-1.33l2.473,8.277l2.08,3.758l4.319,-0.648l-0.592,-3.946l1.542,-7.349l6.225,10.217l4.311,-0.647l-0.615,-3.977l0.058,-8.657l0.823,-0.124c6.23,-0.935 12.053,-3.594 16.841,-7.689l2.346,-2.006l-1.089,-7.249l-1.785,0.268l0,0.001Zm-79.062,-11.906c-0.155,0.084 -0.432,0.151 -0.766,0.154c0.33,-0.127 0.615,-0.169 0.766,-0.154Zm71.597,-0.631c-0.575,1.263 -1.417,2.362 -2.467,3.233c-0.031,-1.364 0.247,-2.721 0.822,-3.983c0.576,-1.264 1.416,-2.362 2.467,-3.233c0.032,1.365 -0.246,2.719 -0.822,3.983Zm-49.252,38.798l0.73,4.866l0.947,2.254l-1.15,0.173l-1.996,-2.431l-4.081,-11.193l0.212,-0.402l6.646,1.21l-1.308,5.523Zm38.075,1.656l-1.329,0.199l-6.08,-9.978l7.107,-1.067l-0.057,8.518l0.359,2.328Zm19.581,-21.659l-1.585,1.355c-4.53,3.875 -10.04,6.391 -15.934,7.276l-11.705,1.757l-2.207,10.515l0.372,2.479l-1.299,0.195l-1.343,-2.398l-4.137,-13.849l-0.472,-3.144l-1.787,0.269l0.482,3.207l1.217,4.103l-8.602,1.292c-2.577,0.387 -5.184,0.346 -7.748,-0.121l-7.369,-1.342c1.716,-3.346 2.333,-7.075 1.774,-10.804l-0.5,-3.33l-1.787,0.268l0.5,3.33c0.513,3.42 -0.068,6.842 -1.683,9.896l-5.659,10.719l0.755,4.969l0.91,2.259l-1.207,0.181l-2.234,-2.411l-9.036,-27.609c-0.924,-2.867 -0.81,-5.984 0.319,-8.78l1.472,-2.68c1.86,-2.564 4.791,-4.427 8.534,-5.131c21.992,-4.138 51.606,1.322 51.606,1.322l6.687,-4.141c-0.008,0.019 -0.018,0.036 -0.027,0.054c-0.91,1.997 -1.199,4.192 -0.835,6.348c0.033,0.193 0.125,0.365 0.253,0.505l6.74,9.039l5.051,1.178l0.484,3.224Zm-10.028,-5.766c0.148,0.987 -0.532,1.907 -1.519,2.055c-0.987,0.148 -1.907,-0.532 -2.055,-1.519c-0.148,-0.987 0.532,-1.907 1.519,-2.055c0.987,-0.148 1.907,0.532 2.055,1.519Z" style="fill-rule:nonzero;"/></svg>