<svg width="100%" height="100%" viewBox="0 0 1440 320" version="1.1" xmlns="http://www.w3.org/2000/svg" xmlns:xlink="http://www.w3.org/1999/xlink" xml:space="preserve" xmlns:serif="http://www.serif.com/" style="background: white;margin: 0px;"><path d="M0,128l60,-10.7c60,-10.3 180,-32.3 300,-21.3c120,11 240,53 360,53.3c120,-0.3 240,-42.3 360,-69.3c120,-27 240,-37 300,-42.7l60,-5.3l0,288l-60,0l-1320,0l-60,0l0,-192Z" style="fill:#18cdb5;fill-rule:nonzero;"/><path d="M636.478,110.994c-0.51,-0.46 -1.226,-0.48 -1.685,0.03c-1.058,1.113 -2.072,1.394 -2.929,0.867c-2.384,-1.306 -3.841,-7.349 -2.026,-14.792c1.541,-6.656 1.245,-11.272 -0.891,-13.849c-1.183,-1.311 -2.733,-1.974 -4.534,-1.966c-1.695,-2.371 -4.149,-3.931 -7.153,-4.518l-0.232,-0.045l-28.77,-5.626l-18.024,-3.524c-14.35,-2.686 -21.236,6.763 -24.863,11.812c-0.987,1.367 -2.134,2.942 -3.397,4.494c-3.26,4.401 -6.98,9.312 -8.858,12.784l-2.625,-3.753c-0.279,-0.414 -0.741,-0.504 -1.11,-0.457c-0.485,0.025 -0.784,0.327 -0.99,0.766c-0.228,0.556 -1.823,5.642 -0.632,8.754c-0.268,1.987 -1.132,5.177 -1.928,8.02c-0.796,2.843 -1.524,5.34 -1.68,6.749c-0.022,0.116 -0.09,0.463 -0.273,0.787c-0.48,1.225 -1.555,3.654 1.804,6.11c0.834,0.643 1.713,1.055 2.637,1.236c2.196,0.429 3.946,-0.548 4.843,-1.452c0.459,-0.51 0.803,-1.043 0.916,-1.621c1.083,-0.628 3.386,-1.977 7.505,-5.25c5.568,-4.549 6.138,-6.237 4.369,-9.462c1.886,-1.671 4.981,-1.545 8.794,-0.8l0.693,0.136c-0.811,4.76 -5.73,15.194 -9.799,19.437c-0.299,0.301 -0.389,0.763 -0.226,1.155c0.164,0.392 0.465,0.691 0.927,0.781l5.893,1.152c0.462,0.091 0.854,-0.073 1.175,-0.49c1.447,-1.876 3.762,-5.742 6.148,-9.354c1.238,-2.037 2.592,-4.052 3.463,-5.441c0.631,1.683 1.053,3.205 1.196,4.313c0.571,3.83 -0.903,10.14 -1.563,12.29c-0.068,0.346 -0.02,0.716 0.166,0.992c0.186,0.276 0.51,0.459 0.741,0.505l5.43,1.062c0.693,0.135 1.246,-0.237 1.382,-0.93l4.111,-21.029l0.671,0.251c5.732,1.361 11.579,2.744 15.139,3.56l0.346,0.068c1.502,0.294 2.796,0.427 3.904,0.284c0.487,0.575 0.997,1.034 1.738,1.539l-0.826,1.158c-0.322,0.417 -0.435,0.995 -0.41,1.48c0.141,0.507 0.397,1.037 0.814,1.358c0.834,0.643 2.196,0.43 2.839,-0.404l1.147,-1.575c0.555,0.228 1.11,0.457 1.688,0.57l-0.316,1.617c-0.09,0.462 -0.043,0.832 0.121,1.223c0.256,0.53 0.766,0.99 1.459,1.125c1.04,0.204 2.145,-0.54 2.255,-1.718l0.317,-1.617c0.831,0.042 1.592,-0.169 2.353,-0.38c0.54,2.145 0.619,4.2 0.3,5.217c-0.889,2.705 -3.84,9.206 -7.034,12.66c-0.299,0.301 -0.39,0.763 -0.226,1.155c0.163,0.392 0.464,0.691 0.927,0.781l6.239,1.22c0.462,0.091 0.969,-0.05 1.175,-0.49c0.023,-0.115 3.855,-5.604 6.994,-11.228c-0.559,4.089 -2.528,8.023 -3.811,10.291c-0.184,0.324 -0.251,0.671 -0.088,1.063c0.163,0.391 0.487,0.575 0.834,0.643l5.661,1.107c0.463,0.09 0.993,-0.166 1.314,-0.583c0.228,-0.555 4.121,-8.192 5.6,-13.301c1.707,-5.664 0.25,-11.707 -1.223,-15.833c-1.565,-4.265 -0.913,-13.734 0.506,-16.696c1.898,-4.187 2.111,-8.344 0.872,-11.825c0.556,0.228 0.995,0.434 1.483,1.009c1.183,1.311 2.12,4.494 0.443,11.843c-2.132,9.06 -0.049,15.585 3.192,17.419c0.439,0.205 0.879,0.411 1.226,0.479c1.502,0.294 3.046,-0.244 4.518,-1.635c0.344,-0.533 0.364,-1.249 -0.146,-1.708Zm-79.051,6.735c-1.238,2.037 -2.637,4.283 -3.83,6.089l-3.119,-0.61c3.234,-4.886 6.391,-11.826 7.227,-16.101c1.851,0.961 3.127,2.411 4.011,4.023c-0.987,1.366 -2.546,3.821 -4.289,6.599Zm56.884,9.083c-1.534,2.939 -3.415,5.81 -4.814,8.056l-3.582,-0.7c1.949,-3.218 3.503,-6.873 4.164,-9.023c0.866,-2.59 -0.29,-8.334 -2.174,-11.581c-0.977,-1.751 -2.228,-2.715 -3.499,-2.964c-1.849,-0.361 -3.394,0.176 -4.961,0.83c-2.19,0.771 -4.518,1.635 -8.562,0.845l-0.347,-0.068c-3.582,-0.701 -9.429,-2.084 -15.023,-3.538l-1.826,-0.477c-0.347,-0.067 -0.716,-0.02 -0.992,0.166c-0.276,0.186 -0.46,0.51 -0.505,0.741l-3.502,17.909l-2.888,-0.564c0.542,-2.773 0.966,-6.169 0.539,-8.892c-0.546,-3.346 -2.682,-11.441 -10.333,-13.417l-0.924,-0.18c-4.391,-0.859 -8.779,-1.117 -11.581,2.174c-0.322,0.417 -0.297,0.901 -0.133,1.293c1.442,2.441 1.698,2.971 -3.433,7.126c-5.43,4.457 -7.505,5.251 -7.62,5.228c-0.646,0.234 -0.99,0.766 -0.756,1.412c-0.023,0.115 -0.206,0.439 -0.505,0.741c-1.127,0.859 -2.675,0.796 -4.041,-0.191c-1.877,-1.446 -1.603,-2.232 -1.03,-3.32c0.206,-0.44 0.411,-0.879 0.409,-1.479c0.11,-1.179 0.838,-3.675 1.612,-6.403c0.863,-3.19 1.888,-6.589 2.063,-8.714c0.046,-0.231 -0.025,-0.484 -0.118,-0.622c-0.605,-1.198 -0.314,-3.301 0.025,-5.034l2.346,3.338c0.279,0.414 0.626,0.482 1.11,0.457c0.37,-0.048 0.784,-0.327 0.99,-0.766c0.708,-1.781 2.383,-4.213 4.241,-6.968c0.375,1.153 0.84,1.843 1.372,2.187c0.209,0.161 0.44,0.206 0.671,0.251c0.809,0.159 1.708,-0.146 2.722,-0.427c2.03,-0.563 4.589,-1.382 7.993,0.843c1.273,0.849 2.313,1.052 3.235,0.633c1.59,-0.769 1.786,-3.61 1.956,-6.935c0.173,-2.726 0.298,-5.82 1.378,-7.048c0.322,-0.417 0.713,-0.581 1.083,-0.629c0.969,-0.05 2.197,1.03 3.403,2.225c1.507,1.495 3.339,3.172 5.019,1.942c1.542,-1.138 2.346,-2.181 2.479,-3.475c0.223,-1.755 -0.664,-3.968 -2.892,-6.683c-2.879,-3.682 -7.913,-3.706 -11.926,-2.812c3.569,-2.301 8.158,-3.683 14.512,-2.44l6.124,1.197c-1.635,1 -2.991,2.414 -3.561,4.102c-0.57,1.688 0.083,3.255 1.658,4.403l0.302,0.299c4.192,3.099 9.542,7.024 6.88,10.822c-1.996,2.849 -2.807,7.609 -0.877,10.625c0.743,1.105 1.949,2.301 4.26,2.752c1.04,0.204 2.356,0.221 3.833,0.03c4.199,-0.618 14.419,-2.579 17.49,-7.856c1.078,-1.829 1.115,-3.861 0.228,-6.073c-1.959,-4.702 -6.144,-6 -8.987,-6.796c-0.902,-0.296 -2.035,-0.638 -2.221,-0.914c0,0 0.023,-0.116 0.183,-0.324c0.666,-0.95 1.771,-1.693 2.761,-2.46c1.381,-0.929 2.923,-2.067 3.008,-3.73l15.945,3.118c2.889,0.565 5.182,2.333 6.37,4.844c1.608,3.434 1.119,7.777 -1.332,12.336c-5.108,9.557 -6.958,14.114 -5.255,18.286c1.374,2.788 1.387,5.789 -2.164,12.292Zm7.745,-13.84c1.424,3.757 2.741,9.293 1.169,14.264c-0.934,2.936 -2.511,6.707 -3.769,9.46l-3.235,-0.633c1.532,-3.539 2.76,-7.978 2.164,-12.293c1.645,-4.117 1.77,-7.211 0.463,-10.346c-0.979,-2.35 -0.46,-5.008 2.333,-10.7c-0.284,3.903 0.011,7.92 0.875,10.248Zm-89.775,-6.518c-0.694,-0.136 -1.384,0.329 -1.52,1.022c-0.135,0.694 0.329,1.384 1.023,1.52c0.693,0.135 1.384,-0.329 1.519,-1.023c0.251,-0.67 -0.213,-1.361 -1.022,-1.519Zm40.164,-7.861c-0.834,-0.643 -1.025,-2.12 -1.193,-3.713c-0.171,-2.192 -0.413,-4.639 -2.772,-5.46c-1.456,-0.525 -2.68,-0.404 -3.669,0.362c-1.427,1.161 -2.087,3.311 -2.31,5.067l-0.091,0.462c-0.173,2.725 -0.592,7.322 5.811,8.934l0.578,0.113c3.813,0.745 4.845,-0.852 5.211,-1.501c0.641,-1.434 0.033,-3.232 -1.565,-4.264Zm48.063,-12.675c-1.12,-2.858 -3.462,-4.995 -6.212,-5.653l-0.231,-0.045c-1.733,-0.339 -7.437,-0.615 -8.284,1.259c-0.206,0.44 -0.226,1.155 0.701,1.937c2.643,2.436 4.876,6.351 4.008,8.341c-0.802,1.642 -0.565,2.888 -0.101,3.579c0.513,1.06 1.578,1.748 2.965,2.019c1.848,0.361 4.709,-0.159 6.545,-2.799c1.444,-2.477 1.707,-5.664 0.609,-8.638Z" style="fill:#1d1d1b;fill-rule:nonzero;"/><path d="M287.233,61.309c0.705,0.575 1.568,0.923 2.475,0.998c-0.149,2.305 -0.01,4.619 0.413,6.889c0.522,1.976 -0.226,10.096 -0.522,13.561c-0.069,0.718 -0.117,1.273 -0.143,1.584c-0.14,1.862 -1.263,8.101 -1.269,8.1l-0.168,0.816l6.673,0.257l0.026,-0.678c0.093,-1.081 -0.415,-2.13 -1.321,-2.727c-0.243,-0.913 -0.943,-4.267 0.733,-7.224c0.392,-0.664 0.805,-1.504 1.213,-2.385c0.836,1.567 2.248,5.275 2.236,12.466l-0.027,0.678l5.235,0.202l0.213,-0.243c0.403,-0.488 0.598,-1.115 0.543,-1.745c-0.089,-0.646 -0.427,-1.232 -0.942,-1.632c-0.323,-2.016 -1.219,-6.953 -1.265,-7.179l0.005,-0.122l-0.064,-0.111c-0.272,-0.745 -0.213,-1.571 0.162,-2.269c0.606,-1.457 1.836,-4.473 2.316,-5.636c2.289,0.319 5.409,0.609 9.518,0.768c1.619,0.062 3.403,0.104 5.353,0.124c0.005,2.527 -0.01,11.545 -0.554,14.396c-0.545,2.852 -0.355,3.579 -0.07,3.936c0.138,0.183 0.35,0.295 0.579,0.308l5.085,0.196l0.026,-0.678c0.02,-0.509 -0.02,-2.813 -1.174,-3.719c0.231,-1.058 0.984,-3.861 1.804,-6.797c2.076,6.036 0.417,10.305 0.402,10.345l-0.44,0.866l6.435,0.248l0.026,-0.678c0.004,-0.109 0.153,-2.561 -1.327,-3.814c-0.185,-6.119 2.021,-14.923 2.253,-15.817l6.647,-12.647l5.056,-4.158c0.588,0.07 1.197,0.121 1.794,0.144c1.14,0.063 2.283,-0.014 3.404,-0.229c1.192,-0.267 1.972,-0.759 2.318,-1.466c0.155,-0.313 0.287,-0.559 0.396,-0.766c0.733,-1.391 0.616,-1.687 -0.491,-3.984c-0.214,-0.45 -0.478,-0.99 -0.779,-1.64c-2.171,-4.647 -3.621,-5.783 -3.753,-5.876l-11.716,-9.477l5.54,7.955c-0.508,0.03 -1.003,0.173 -1.449,0.42c-1.183,-0.487 -2.58,-0.887 -3.49,-0.542c-0.45,0.162 -0.798,0.526 -0.941,0.982c-0.223,0.921 0.061,1.893 0.744,2.549l-6.758,5.321c-2.034,-0.078 -16.1,-0.742 -23.306,-0.898c-7.206,-0.155 -9.571,1.832 -11.884,3.699l-0.652,0.524c-1.019,-0.154 -4.002,-0.459 -5.592,0.953c-0.722,0.659 -1.088,1.625 -0.983,2.597c0.015,1.239 0.543,2.419 1.457,3.255Zm12.915,18.718c-0.534,1.056 -0.582,2.295 -0.13,3.39c0.14,0.766 1.025,5.649 1.274,7.288l0.044,0.28l0.224,0.165c0.325,0.186 0.558,0.497 0.646,0.86c0.017,0.159 -0.008,0.32 -0.072,0.466l-3.228,-0.124c-0.052,-8.511 -2.103,-12.21 -2.882,-13.313c0.825,-1.87 1.607,-3.836 2.189,-5.348c1.337,0.475 2.718,0.818 4.123,1.021c-0.532,1.304 -1.627,3.971 -2.188,5.315Zm21.347,11.205c0.376,0.117 0.639,1.037 0.738,1.991l-3.214,-0.123c0.011,-0.888 0.12,-1.773 0.326,-2.636c0.598,-2.999 0.614,-12.058 0.605,-14.652l2.554,-0.004c0.216,1.766 0.552,3.515 1.007,5.234c-0.637,2.251 -2.462,8.734 -2.493,9.534l-0.02,0.522l0.497,0.134Zm-28.561,-35.469c0.308,-0.24 0.61,-0.486 0.911,-0.732c2.223,-1.823 4.327,-3.542 10.997,-3.4c7.728,0.162 23.367,0.9 23.523,0.906l0.25,0.01l7.305,-5.749c0.62,0.493 1.285,0.926 1.987,1.292l0.631,-1.205c-1.398,-0.733 -3.309,-2.239 -3.022,-3.165c0.015,-0.068 0.067,-0.121 0.134,-0.138c0.779,-0.296 3.09,0.71 4.411,1.481l0.684,-1.169l-0.153,-0.087c0.182,0.016 0.363,0.048 0.54,0.095l0.579,0.831l1.116,-0.779l-1.718,-2.463l4.392,3.564c0,0 1.317,1.07 3.358,5.379c0.306,0.691 0.572,1.204 0.785,1.653l0.264,0.554c-0.427,0.416 -0.711,0.956 -0.813,1.544c-0.082,0.609 0.053,1.227 0.381,1.746c-0.348,0.241 -0.743,0.404 -1.159,0.479c-2.83,0.638 -7.751,-0.299 -8.436,-0.842l-0.849,1.061c0.789,0.469 1.663,0.778 2.573,0.907l-4.341,3.561l-6.817,12.994l-0.052,0.14c-0.104,0.404 -2.599,9.978 -2.304,16.61l-0.014,0.353l0.298,0.188c0.621,0.528 0.989,1.296 1.013,2.11l-3.201,-0.123c0.81,-3.476 0.574,-7.115 -0.677,-10.457c-1.326,-3.978 -1.987,-8.147 -1.956,-12.34l-1.356,-0.052c-0.026,1.308 0.026,2.616 0.155,3.917c-16.792,0.121 -22.206,-1.432 -23.69,-2.026c0.272,-0.723 0.446,-1.192 0.47,-1.272l-1.28,-0.464c-0.003,0.082 -2.849,7.856 -4.939,11.524c-2.266,3.988 -0.839,8.382 -0.779,8.568l0.105,0.289l0.274,0.119c0.38,0.181 0.662,0.52 0.772,0.926l-3.655,-0.141c0.312,-1.746 1.038,-5.956 1.152,-7.5c0.012,-0.312 0.073,-0.853 0.141,-1.563c0.538,-5.847 1.016,-12.09 0.5,-14.038c-0.64,-2.415 -0.751,-11.329 1.51,-13.096Zm-5.284,0.713c0.802,-0.709 2.374,-0.791 3.566,-0.718c-0.823,1.62 -1.301,3.394 -1.403,5.209c-0.618,-0.053 -1.207,-0.289 -1.692,-0.677c-0.635,-0.603 -0.993,-1.443 -0.99,-2.32c-0.08,-0.552 0.114,-1.11 0.519,-1.494Z" style="fill-rule:nonzero;"/><path d="M343.552,47.52c0.562,0.022 1,0.495 0.978,1.056c-0.021,0.562 -0.495,1 -1.056,0.978c-0.561,-0.021 -1,-0.495 -0.978,-1.056c0.022,-0.561 0.495,-1 1.056,-0.978Z"/><path d="M299.767,54.682c0.922,-0.141 2.047,-0.261 3.286,-0.349l-0.09,-1.362c-1.293,0.086 -2.439,0.212 -3.409,0.358c-4.42,0.692 -6,5.025 -6.061,5.199l1.28,0.45c0.075,-0.011 1.414,-3.735 4.994,-4.296Z" style="fill-rule:nonzero;"/><path d="M309.633,54.179l0.052,-1.356c0,0 -1.512,-0.059 -3.484,0.022l0.036,1.359c1.91,-0.055 3.382,-0.026 3.396,-0.025Z" style="fill-rule:nonzero;"/><path d="M830.474,54.282c0.54,-0.112 1.069,0.237 1.181,0.778c0.111,0.54 -0.238,1.069 -0.779,1.181c-0.54,0.111 -1.069,-0.238 -1.18,-0.779c-0.112,-0.54 0.237,-1.069 0.778,-1.18Z"/><path d="M906.739,87.064c0.927,1.034 1.982,2.195 3.289,2.192c0.682,-0.018 1.324,-0.337 1.75,-0.87c1.45,-1.636 0.805,-3.433 0.053,-5.503c-1.013,-2.534 -1.566,-5.227 -1.636,-7.954c0.118,-2.064 -0.777,-4.061 -2.395,-5.347c-2.042,-1.489 -4.812,-1.308 -6.343,-1.054c-0.535,-1.411 -2.347,-2.826 -5.38,-4.223c-4.78,-2.193 -21.905,1.808 -38.037,6.024c-1.588,0.418 -2.81,0.731 -3.521,0.897c-0.517,0.148 -1.073,0.074 -1.533,-0.205c-1.865,-1.179 -2.855,-5.743 -3.901,-10.582c-0.376,-1.831 -0.765,-3.722 -1.287,-5.564c-2.398,-9.083 -12.14,-13.512 -17.537,-12.403c-0.002,0.001 -0.004,0.001 -0.006,0.002c-0.537,0.11 -0.889,0.643 -0.778,1.181c0.052,0.251 0.198,0.473 0.409,0.62c1.91,1.343 2.574,4.075 2.785,5.349c-1.992,0.94 -7.581,3.845 -8.821,7.5c-0.45,1.251 -0.318,2.641 0.36,3.785c1,1.734 4.137,1.252 6.34,0.646c-0.413,5.19 -1.257,22.239 4.306,31.866c6.463,11.177 7.094,11.813 11.858,14.774c1.571,0.984 3.162,3.015 4.697,4.966c2.073,2.637 4.157,5.322 6.592,5.944c0.941,4.228 1.253,9.074 0.111,9.973c-0.736,0.537 -1.537,0.979 -2.384,1.317c-1.524,0.68 -3.619,1.612 -2.609,4.242c0.175,0.461 0.667,0.727 1.149,0.621l6.572,-1.351c0.292,-0.121 6.965,-3.117 2.639,-16.959c0.437,-0.406 0.848,-0.838 1.346,-1.298c3.96,-3.877 9.327,-9.258 23.085,-8.381c2.123,0.697 4.116,1.744 5.895,3.097c1.584,1.203 3.353,2.142 5.237,2.782c0.174,2.731 -0.074,7.335 -1.921,7.837c-1.224,0.267 -2.287,1.025 -2.938,2.095c-0.516,0.962 -0.65,2.084 -0.375,3.14c0.141,0.504 0.654,0.816 1.166,0.71l6.73,-1.384c0.32,-0.077 0.582,-0.307 0.7,-0.614c0.154,-0.297 3.519,-7.216 2.434,-13.537c0.584,-0.748 1.064,-1.571 1.426,-2.448c2.239,-5.299 2.325,-14.066 -1.2,-22.274l0.686,-0.632c0.352,0.319 0.681,0.66 0.987,1.023Zm-80.795,-27.155c-0.386,-0.647 -0.462,-1.434 -0.205,-2.142c0.693,-2.042 3.528,-4.044 5.862,-5.351c1.134,1.124 2.476,2.017 3.95,2.629c-1.303,1.558 -2.767,2.974 -4.368,4.226c-2.484,0.827 -4.94,1.046 -5.239,0.638Zm34.16,72.098l-5.093,1.047c0.467,-0.353 0.983,-0.635 1.533,-0.836c0.996,-0.411 1.936,-0.947 2.796,-1.596c2.418,-1.896 1.301,-8.567 0.693,-11.525c0.244,-0.064 0.483,-0.147 0.714,-0.249c0.358,-0.163 0.701,-0.356 1.025,-0.579c3.097,10.645 -1.11,13.419 -1.668,13.738Zm40.679,-8.364l-5.103,1.049c0.199,-0.963 0.986,-1.703 1.959,-1.842c3.431,-0.941 3.542,-6.854 3.405,-9.511c0.375,-0.01 0.749,-0.053 1.117,-0.127c0.283,-0.064 0.558,-0.161 0.818,-0.291c0.352,4.542 -1.552,9.283 -2.196,10.722Zm3.368,-38.885c-0.484,-0.963 -1.019,-1.911 -1.606,-2.845c-2.319,-3.414 -5.203,-6.409 -8.528,-8.854c-0.222,-0.148 -0.494,-0.2 -0.755,-0.147c-0.537,0.111 -0.889,0.644 -0.778,1.182c0.053,0.259 0.206,0.486 0.426,0.632c3.099,2.309 5.794,5.115 7.976,8.304c6.241,9.794 5.521,20.396 3.519,25.157c-0.742,1.755 -1.728,2.917 -2.629,3.103c-2.282,0.469 -4.402,-0.953 -6.857,-2.613c-0.699,-0.469 -1.433,-0.961 -2.204,-1.435c-6.542,-4.903 -7.401,-14.099 -7.411,-14.199c-0.004,-0.04 -0.009,-0.079 -0.018,-0.119c-0.111,-0.541 -0.648,-0.895 -1.189,-0.783c-0.497,0.102 -0.843,0.564 -0.801,1.07c0.494,4.34 2.087,8.482 4.629,12.034c-3.357,-0.25 -6.733,-0.054 -10.038,0.584c-2.664,0.532 -5.225,1.489 -7.585,2.836c1.327,-3.479 2.356,-9.397 0.309,-18.359c-0.11,-0.537 -0.643,-0.888 -1.181,-0.778c-0.537,0.111 -0.888,0.644 -0.778,1.181c3.223,13.987 -1.598,19.981 -2.019,20.466c-1.238,1.03 -2.284,2.052 -3.207,2.977c-1.003,1.134 -2.184,2.097 -3.497,2.852c-2.028,0.908 -4.085,-1.446 -6.974,-5.12c-1.645,-2.091 -3.345,-4.253 -5.199,-5.424c-4.339,-2.732 -4.786,-3.018 -11.185,-14.035c-5.68,-9.848 -4.211,-28.822 -3.937,-31.758c5.565,-4.564 5.244,-5.927 5.131,-6.374c-0.136,-0.547 -0.588,-0.962 -1.145,-1.051c-1.152,-0.368 -2.205,-0.993 -3.081,-1.827l0.613,-0.248c0.391,-0.168 0.633,-0.568 0.602,-0.992c-0.174,-2.091 -0.865,-4.107 -2.012,-5.865c4.491,0.394 11.255,3.996 13.102,11.089c0.474,1.812 0.878,3.678 1.261,5.488c1.179,5.485 2.204,10.226 4.784,11.85c0.914,0.572 2.025,0.739 3.066,0.462c0.725,-0.149 1.941,-0.491 3.559,-0.916c8.721,-2.273 31.916,-8.328 36.696,-6.136c4.072,1.879 4.362,3.095 4.387,3.263c-0.133,0.332 -0.079,0.711 0.143,0.992c0.256,0.328 0.693,0.463 1.09,0.337c1.02,-0.301 4.035,-0.829 5.815,0.479c1.093,0.93 1.677,2.33 1.57,3.761c0.08,2.941 0.677,5.846 1.764,8.58c0.745,2.083 0.937,2.819 0.333,3.505c0,0 -0.176,0.189 -0.268,0.188c-0.418,0.004 -1.28,-0.962 -1.797,-1.54c-0.834,-0.931 -1.558,-1.721 -2.488,-1.775c-0.425,-0.021 -0.841,0.134 -1.147,0.43l-0.461,0.391Z" style="fill-rule:nonzero;"/><path d="M844.8,73.163c-7.415,7.436 -5.62,22.319 -5.562,22.951c0.071,0.542 0.574,0.931 1.117,0.862l0.078,-0.016c0.509,-0.103 0.858,-0.587 0.794,-1.102c-0.03,-0.147 -1.735,-14.549 5.024,-21.298c0.23,-0.239 0.327,-0.577 0.261,-0.901c-0.112,-0.541 -0.648,-0.895 -1.189,-0.784c-0.2,0.041 -0.382,0.142 -0.523,0.288Z" style="fill-rule:nonzero;"/><g><path d="M66.743,102.422c0.428,-0.062 0.827,0.238 0.889,0.668c0.062,0.431 -0.235,0.831 -0.663,0.893c-0.428,0.062 -0.827,-0.237 -0.889,-0.668c-0.062,-0.431 0.235,-0.831 0.663,-0.893Z"/><g><path d="M65.018,80.239c0.428,-0.062 0.826,0.237 0.889,0.668c0.062,0.431 -0.235,0.831 -0.663,0.893c-0.428,0.062 -0.827,-0.237 -0.889,-0.668c-0.063,-0.431 0.234,-0.831 0.663,-0.893Z"/><path d="M62.102,80.661c0.428,-0.062 0.827,0.237 0.889,0.668c0.062,0.431 -0.235,0.831 -0.663,0.893c-0.428,0.062 -0.827,-0.237 -0.889,-0.668c-0.062,-0.431 0.235,-0.831 0.663,-0.893Z"/></g><path d="M66.081,83.587c0.347,0.26 0.418,0.754 0.16,1.104l-1.259,1.695c-0.131,0.176 -0.322,0.281 -0.521,0.308c-0.2,0.029 -0.408,-0.018 -0.582,-0.148l-1.686,-1.269c-0.348,-0.262 -0.42,-0.756 -0.16,-1.104c0.258,-0.349 0.749,-0.42 1.096,-0.159l1.063,0.8l0.794,-1.069c0.257,-0.349 0.749,-0.42 1.095,-0.158Z" style="fill-rule:nonzero;"/><path d="M67.471,92.319c0.092,0.185 0.152,0.379 0.181,0.579c0.043,0.301 0.014,0.608 -0.083,0.89c-0.096,0.285 -0.256,0.546 -0.468,0.769c-0.385,0.403 -0.883,0.633 -1.396,0.709c-0.514,0.073 -1.058,-0.007 -1.539,-0.284c-0.267,-0.154 -0.494,-0.359 -0.667,-0.604c-0.173,-0.244 -0.289,-0.53 -0.332,-0.83c-0.029,-0.201 -0.026,-0.405 0.009,-0.607l0.794,-4.465c0.06,-0.336 0.323,-0.592 0.658,-0.64c0.335,-0.049 0.66,0.122 0.814,0.427l2.029,4.056Zm-1.37,0.804c-0.005,-0.034 -0.015,-0.064 -0.031,-0.098l-0.97,-1.941l-0.38,2.137c-0.008,0.037 -0.008,0.07 -0.003,0.102c0.007,0.047 0.025,0.096 0.06,0.143c0.035,0.052 0.089,0.103 0.165,0.148c0.142,0.083 0.339,0.119 0.537,0.091c0.196,-0.029 0.377,-0.119 0.489,-0.239c0.063,-0.066 0.097,-0.13 0.117,-0.189c0.019,-0.056 0.023,-0.106 0.016,-0.154Z" style="fill-rule:nonzero;"/><path d="M49.414,106.697c-0.088,0.049 -0.18,0.081 -0.273,0.094c-0.026,0.004 -0.054,0.007 -0.08,0.007c-0.029,0.002 -0.057,0.001 -0.084,-0.001c-0.023,-0.002 -0.045,-0.003 -0.068,-0.008c-0.02,-0.003 -0.04,-0.006 -0.059,-0.012c-0.017,-0.004 -0.036,-0.009 -0.053,-0.015c-0.017,-0.004 -0.036,-0.01 -0.052,-0.017c-0.02,-0.007 -0.04,-0.016 -0.058,-0.025c-0.022,-0.011 -0.044,-0.023 -0.065,-0.036c-0.081,-0.049 -0.155,-0.113 -0.214,-0.192c-0.01,-0.014 -0.02,-0.027 -0.028,-0.043c-0.013,-0.016 -0.024,-0.034 -0.034,-0.051c-0.047,-0.082 -0.078,-0.175 -0.093,-0.275c-0.041,-0.284 -0.178,-0.546 -0.381,-0.743c-0.204,-0.196 -0.468,-0.326 -0.778,-0.351c-0.698,-0.056 -1.312,-0.359 -1.759,-0.804c-0.448,-0.444 -0.74,-1.02 -0.831,-1.646c-0.046,-0.321 -0.039,-0.657 0.031,-0.989c0.07,-0.332 0.202,-0.66 0.399,-0.964c0.177,-0.278 0.232,-0.581 0.191,-0.878c-0.031,-0.213 -0.117,-0.422 -0.249,-0.594c-0.13,-0.173 -0.303,-0.314 -0.523,-0.406c-0.489,-0.203 -0.892,-0.531 -1.184,-0.921c-0.291,-0.39 -0.471,-0.843 -0.539,-1.31c-0.067,-0.468 -0.023,-0.952 0.146,-1.409c0.168,-0.457 0.462,-0.884 0.873,-1.219l0,0.001c0.185,-0.152 0.311,-0.337 0.388,-0.541c0.076,-0.202 0.1,-0.423 0.068,-0.639c-0.044,-0.295 -0.182,-0.569 -0.432,-0.785l0,-0.002c-0.275,-0.236 -0.494,-0.513 -0.656,-0.813c-0.161,-0.298 -0.263,-0.618 -0.31,-0.94c-0.09,-0.624 0.026,-1.261 0.33,-1.813c0.152,-0.275 0.353,-0.529 0.599,-0.747c0.244,-0.217 0.531,-0.396 0.86,-0.521c0.29,-0.115 0.506,-0.311 0.646,-0.557c0.14,-0.246 0.196,-0.538 0.155,-0.821c-0.024,-0.165 -0.082,-0.327 -0.174,-0.48l-0.001,-0.002c-0.21,-0.344 -0.339,-0.715 -0.393,-1.085c-0.082,-0.566 0.012,-1.129 0.243,-1.621c0.229,-0.494 0.597,-0.922 1.073,-1.219c0.318,-0.197 0.684,-0.336 1.079,-0.392c0.087,-0.012 0.176,-0.022 0.264,-0.027l0.003,0.002c0.043,-0.003 0.08,-0.007 0.115,-0.012c0.346,-0.05 0.635,-0.235 0.831,-0.5c0.196,-0.266 0.289,-0.598 0.239,-0.946c-0.006,-0.038 -0.011,-0.077 -0.02,-0.117c-0.021,-0.086 -0.038,-0.173 -0.051,-0.262c-0.058,-0.399 -0.031,-0.789 0.069,-1.154c0.097,-0.362 0.264,-0.695 0.486,-0.983c0.44,-0.577 1.092,-0.983 1.844,-1.092c0.366,-0.054 0.755,-0.033 1.141,0.071c0.178,0.047 0.346,0.054 0.51,0.03c0.279,-0.04 0.542,-0.177 0.737,-0.382c0.194,-0.205 0.323,-0.468 0.347,-0.781c0.054,-0.701 0.357,-1.319 0.796,-1.767c0.438,-0.452 1.013,-0.741 1.633,-0.833c0.318,-0.046 0.652,-0.04 0.983,0.033c0.33,0.069 0.656,0.204 0.958,0.401l0,-0.002c0.276,0.181 0.581,0.239 0.872,0.197c0.214,-0.031 0.418,-0.117 0.591,-0.247c0.171,-0.132 0.31,-0.306 0.403,-0.528l0.001,-0.003c0.201,-0.49 0.525,-0.895 0.912,-1.185c0.387,-0.292 0.835,-0.476 1.301,-0.543c0.465,-0.067 0.947,-0.018 1.4,0.152c0.455,0.169 0.878,0.466 1.211,0.88c0.152,0.187 0.336,0.312 0.536,0.391c0.203,0.078 0.423,0.102 0.637,0.071c0.294,-0.044 0.565,-0.185 0.78,-0.435c0.234,-0.275 0.509,-0.496 0.806,-0.656c0.296,-0.164 0.613,-0.264 0.935,-0.311c0.621,-0.088 1.252,0.027 1.801,0.335c0.549,0.305 1.013,0.81 1.264,1.469l0.002,0.001c0.111,0.293 0.307,0.509 0.552,0.65c0.245,0.141 0.536,0.197 0.817,0.157c0.163,-0.024 0.324,-0.078 0.483,-0.176c0.338,-0.207 0.706,-0.338 1.071,-0.391c0.564,-0.081 1.123,0.016 1.611,0.247c0.49,0.234 0.916,0.604 1.212,1.084c0.197,0.321 0.336,0.689 0.394,1.086c0.012,0.087 0.02,0.177 0.025,0.266l0.001,0.006c0.001,0.041 0.004,0.077 0.01,0.113c0.05,0.348 0.235,0.639 0.498,0.839c0.265,0.197 0.596,0.291 0.942,0.243c0.038,-0.006 0.078,-0.013 0.118,-0.024l-0.007,0.003c0.087,-0.023 0.176,-0.041 0.265,-0.054c0.395,-0.057 0.785,-0.028 1.146,0.072c0.359,0.1 0.69,0.269 0.978,0.49c0.572,0.445 0.977,1.105 1.088,1.859c0.054,0.371 0.033,0.761 -0.068,1.149c-0.047,0.177 -0.055,0.35 -0.031,0.513c0.041,0.283 0.178,0.549 0.382,0.745c0.204,0.197 0.467,0.323 0.778,0.351c0.697,0.056 1.31,0.36 1.756,0.804c0.449,0.443 0.74,1.02 0.83,1.644c0.047,0.322 0.039,0.657 -0.031,0.989c-0.068,0.333 -0.2,0.661 -0.397,0.965l0.002,0c-0.178,0.278 -0.235,0.584 -0.193,0.878c0.031,0.213 0.117,0.419 0.247,0.593c0.13,0.174 0.305,0.316 0.525,0.409l0,-0.002c0.489,0.205 0.892,0.531 1.184,0.922c0.291,0.391 0.471,0.843 0.539,1.31c0.067,0.467 0.023,0.952 -0.146,1.409c-0.168,0.457 -0.462,0.886 -0.873,1.219c-0.185,0.151 -0.313,0.336 -0.388,0.538c-0.076,0.202 -0.099,0.427 -0.068,0.641c0.042,0.295 0.184,0.57 0.434,0.788c0.274,0.236 0.492,0.511 0.652,0.81c0.161,0.299 0.264,0.619 0.31,0.94c0.091,0.626 -0.024,1.261 -0.329,1.814c-0.15,0.277 -0.352,0.531 -0.596,0.748c-0.246,0.217 -0.535,0.396 -0.86,0.522c-0.291,0.111 -0.506,0.311 -0.646,0.557c-0.14,0.247 -0.196,0.538 -0.155,0.822c0.062,0.43 -0.233,0.829 -0.66,0.892l-0.002,0c-0.094,0.014 -0.192,0.01 -0.289,-0.012l-2.994,-0.7l-0.002,0c0.001,0.06 -0.003,0.122 -0.006,0.182l-0.003,0.032c-0.053,0.576 -0.191,1.1 -0.401,1.558c-0.209,0.459 -0.485,0.854 -0.803,1.177c-0.639,0.647 -1.428,1.014 -2.199,1.126c-0.097,0.014 -0.187,0.027 -0.279,0.034c-0.077,0.154 -0.155,0.309 -0.239,0.461c-0.721,1.344 -1.703,2.551 -2.886,3.557l0.131,0.907c0.112,0.776 -0.099,1.533 -0.531,2.114c-0.281,0.38 -0.661,0.691 -1.103,0.89l0.129,0.888l3.028,-0.439c0.429,-0.062 0.827,0.237 0.89,0.669c0.062,0.43 -0.235,0.831 -0.664,0.893l-4.842,0.701c-0.429,0.062 -0.825,-0.239 -0.888,-0.668c-0.062,-0.432 0.233,-0.831 0.662,-0.894l0.263,-0.038l-0.128,-0.886c-0.482,-0.065 -0.931,-0.256 -1.309,-0.541c-0.324,-0.244 -0.597,-0.557 -0.795,-0.924c-0.479,0.124 -0.97,0.223 -1.47,0.295c-0.497,0.072 -0.999,0.117 -1.494,0.132c-0.085,0.409 -0.258,0.789 -0.5,1.114c-0.281,0.381 -0.66,0.69 -1.103,0.891l0.129,0.887l0.265,-0.038c0.429,-0.063 0.827,0.236 0.889,0.668c0.063,0.43 -0.234,0.831 -0.663,0.893l-4.844,0.702c-0.428,0.062 -0.826,-0.239 -0.888,-0.669c-0.062,-0.431 0.234,-0.831 0.661,-0.893l3.03,-0.439l-0.128,-0.887c-0.483,-0.067 -0.934,-0.256 -1.309,-0.541c-0.582,-0.434 -0.998,-1.1 -1.11,-1.876l-0.132,-0.909c-1.421,-0.627 -2.704,-1.506 -3.777,-2.59c-0.123,-0.124 -0.242,-0.249 -0.361,-0.379c-0.093,0.02 -0.185,0.037 -0.281,0.051c-0.578,0.084 -1.204,0.032 -1.819,-0.184c-0.614,-0.214 -1.215,-0.601 -1.709,-1.173c-0.329,-0.38 -0.611,-0.843 -0.826,-1.381l-0.011,-0.031c-0.02,-0.056 -0.039,-0.115 -0.06,-0.174l-2.678,1.522Zm4.421,-13.605c0.52,-0.762 1.116,-1.477 1.775,-2.135l-6.445,-4.021c-0.368,-0.229 -0.482,-0.716 -0.256,-1.085c0.227,-0.372 0.711,-0.484 1.079,-0.255l6.844,4.269c0.031,-0.026 0.063,-0.051 0.094,-0.075c0.579,-0.485 1.061,-1.06 1.422,-1.695l-0.001,0.001l-5.46,-6.973c-0.268,-0.342 -0.21,-0.838 0.128,-1.108c0.34,-0.268 0.833,-0.209 1.1,0.133l4.876,6.224c0.118,-0.601 0.138,-1.226 0.046,-1.862l-0.524,-3.616c-0.095,-0.659 -0.043,-1.315 0.133,-1.923c0.174,-0.611 0.474,-1.175 0.866,-1.667c0.787,-0.984 1.959,-1.683 3.324,-1.881c2.047,-0.295 3.998,0.608 5.023,2.214c0.34,0.533 0.577,1.148 0.672,1.807l0.524,3.616c0.091,0.632 0.287,1.224 0.569,1.764l2.913,-7.359c0.159,-0.404 0.615,-0.601 1.017,-0.44c0.402,0.161 0.599,0.622 0.439,1.026l-3.264,8.246c0.526,0.506 1.151,0.924 1.845,1.226c0.007,0.002 0.012,0.005 0.019,0.007c0.029,0.012 0.061,0.026 0.09,0.038l5.352,-6.035c0.288,-0.324 0.783,-0.351 1.105,-0.062c0.324,0.29 0.352,0.79 0.065,1.113l-5.04,5.682c0.821,0.445 1.594,0.961 2.311,1.545l4.916,-2.654c0.38,-0.205 0.855,-0.061 1.06,0.324c0.205,0.383 0.063,0.86 -0.317,1.067l-4.429,2.391c0.264,0.272 0.519,0.553 0.759,0.845c0.469,0.567 0.894,1.173 1.268,1.81l0,0.001l2.793,-0.411c0.427,-0.063 0.826,0.235 0.889,0.667c0.064,0.431 -0.233,0.83 -0.66,0.894l-2.268,0.334c0.46,1.067 0.787,2.206 0.96,3.402c0.039,0.267 0.069,0.533 0.091,0.798l2.488,0.582c0.061,-0.258 0.158,-0.507 0.29,-0.737c0.152,-0.273 0.354,-0.525 0.597,-0.737c0.243,-0.214 0.526,-0.39 0.846,-0.512c0.305,-0.118 0.512,-0.319 0.65,-0.565c0.137,-0.246 0.19,-0.542 0.149,-0.822c-0.021,-0.145 -0.066,-0.282 -0.135,-0.414c-0.072,-0.13 -0.167,-0.253 -0.296,-0.366c-0.542,-0.468 -0.87,-1.097 -0.965,-1.752c0,-0.001 0,-0.005 0,-0.006c-0.07,-0.477 -0.019,-0.967 0.151,-1.422c0.17,-0.457 0.462,-0.88 0.867,-1.209c0.194,-0.157 0.318,-0.342 0.392,-0.542c0.073,-0.199 0.096,-0.42 0.065,-0.633c-0.031,-0.214 -0.115,-0.418 -0.242,-0.589c-0.128,-0.173 -0.299,-0.312 -0.53,-0.408c-0.482,-0.204 -0.881,-0.526 -1.174,-0.915c-0.291,-0.39 -0.48,-0.844 -0.549,-1.32c-0.096,-0.654 0.039,-1.355 0.427,-1.959l0,-0.002c0.092,-0.144 0.149,-0.287 0.18,-0.433c0.03,-0.145 0.033,-0.292 0.012,-0.438c-0.04,-0.278 -0.174,-0.547 -0.375,-0.744c-0.203,-0.198 -0.458,-0.328 -0.784,-0.356c-0.681,-0.056 -1.289,-0.351 -1.738,-0.787c-0.452,-0.438 -0.756,-1.018 -0.849,-1.657c-0.053,-0.37 -0.034,-0.759 0.066,-1.143l0,-0.002c0.049,-0.182 0.057,-0.353 0.034,-0.516c-0.036,-0.246 -0.148,-0.477 -0.312,-0.664c-0.164,-0.186 -0.38,-0.323 -0.617,-0.388c-0.159,-0.045 -0.327,-0.058 -0.507,-0.032c-0.038,0.005 -0.077,0.012 -0.118,0.024l-0.005,0c-0.084,0.021 -0.169,0.038 -0.254,0.05c-0.773,0.112 -1.525,-0.106 -2.103,-0.542c-0.58,-0.434 -1.001,-1.1 -1.114,-1.877c-0.012,-0.087 -0.02,-0.177 -0.025,-0.266c-0.003,-0.04 -0.005,-0.08 -0.011,-0.119c-0.028,-0.181 -0.087,-0.34 -0.175,-0.481c-0.085,-0.14 -0.2,-0.262 -0.332,-0.361c-0.269,-0.196 -0.606,-0.286 -0.933,-0.238c-0.162,0.023 -0.322,0.078 -0.481,0.179l-0.003,0.002c-0.336,0.203 -0.701,0.332 -1.069,0.385c-0.635,0.092 -1.272,-0.035 -1.816,-0.349c-0.546,-0.31 -0.996,-0.815 -1.241,-1.454c-0.12,-0.308 -0.318,-0.519 -0.565,-0.657c-0.245,-0.138 -0.536,-0.192 -0.815,-0.152c-0.144,0.021 -0.284,0.066 -0.413,0.136c-0.131,0.072 -0.251,0.167 -0.362,0.298c-0.466,0.546 -1.096,0.872 -1.745,0.966c-0.475,0.069 -0.96,0.017 -1.414,-0.155c-0.452,-0.172 -0.872,-0.466 -1.202,-0.874c-0.156,-0.195 -0.338,-0.32 -0.539,-0.395c-0.2,-0.075 -0.418,-0.098 -0.628,-0.068c-0.211,0.031 -0.415,0.115 -0.585,0.244c-0.17,0.128 -0.311,0.302 -0.408,0.532c-0.199,0.484 -0.518,0.887 -0.905,1.179c-0.385,0.295 -0.838,0.481 -1.31,0.55c-0.002,0 -0.005,0 -0.007,0.001c-0.649,0.094 -1.342,-0.044 -1.941,-0.432c-0.144,-0.095 -0.288,-0.152 -0.432,-0.184c-0.144,-0.03 -0.29,-0.034 -0.433,-0.013c-0.278,0.04 -0.546,0.175 -0.742,0.377c-0.195,0.203 -0.324,0.461 -0.352,0.788c-0.053,0.685 -0.345,1.296 -0.777,1.748c-0.433,0.456 -1.009,0.759 -1.642,0.85c-0.37,0.054 -0.755,0.034 -1.136,-0.066l-0.003,-0.001c-0.181,-0.05 -0.351,-0.056 -0.512,-0.033c-0.246,0.036 -0.476,0.146 -0.658,0.312c-0.186,0.165 -0.322,0.382 -0.388,0.619c-0.041,0.161 -0.054,0.331 -0.028,0.512c0.006,0.039 0.013,0.077 0.024,0.119l0.001,0.003c0.019,0.086 0.034,0.172 0.047,0.257c0.112,0.776 -0.101,1.533 -0.532,2.115c-0.433,0.583 -1.092,1.005 -1.863,1.117c-0.089,0.013 -0.176,0.02 -0.265,0.025c-0.042,0.003 -0.081,0.007 -0.118,0.012c-0.18,0.026 -0.338,0.085 -0.478,0.173c-0.14,0.087 -0.262,0.201 -0.357,0.336c-0.194,0.267 -0.285,0.609 -0.235,0.937c0.023,0.163 0.077,0.324 0.176,0.484c0.207,0.34 0.336,0.71 0.39,1.083c0.092,0.638 -0.034,1.282 -0.343,1.826c-0.154,0.275 -0.355,0.524 -0.598,0.737c-0.244,0.212 -0.527,0.389 -0.845,0.512c-0.306,0.119 -0.516,0.316 -0.653,0.565c-0.137,0.246 -0.19,0.541 -0.149,0.819c0.021,0.145 0.067,0.285 0.137,0.415c0.07,0.132 0.166,0.253 0.294,0.365c0.547,0.47 0.872,1.107 0.965,1.76c0.07,0.477 0.019,0.966 -0.151,1.423c-0.169,0.456 -0.462,0.876 -0.865,1.208c-0.196,0.159 -0.319,0.34 -0.393,0.542c-0.074,0.201 -0.097,0.42 -0.066,0.633c0.031,0.214 0.115,0.419 0.243,0.589c0.128,0.171 0.298,0.313 0.53,0.408c0.48,0.201 0.882,0.524 1.173,0.915c0.292,0.388 0.48,0.843 0.549,1.32c0.096,0.654 -0.036,1.355 -0.427,1.959c-0.091,0.145 -0.148,0.291 -0.179,0.435c-0.029,0.146 -0.034,0.29 -0.013,0.436c0.04,0.28 0.174,0.549 0.375,0.746c0.203,0.197 0.46,0.33 0.787,0.357c0.679,0.055 1.288,0.35 1.738,0.786c0.189,0.184 0.354,0.394 0.487,0.624l2.226,-1.266c-0.054,-0.259 -0.1,-0.52 -0.139,-0.787c-0.173,-1.196 -0.182,-2.381 -0.044,-3.535l-2.275,0.324c-0.43,0.061 -0.825,-0.238 -0.888,-0.67c-0.061,-0.432 0.236,-0.831 0.665,-0.892l2.799,-0.398l0,-0.002c0.178,-0.717 0.413,-1.418 0.701,-2.093c0.15,-0.349 0.312,-0.691 0.488,-1.026l-4.994,-1.051c-0.425,-0.09 -0.698,-0.508 -0.61,-0.933c0.088,-0.427 0.502,-0.7 0.927,-0.612l5.536,1.166Zm26.171,7.885c0.034,-0.748 0.001,-1.506 -0.109,-2.27c-0.327,-2.244 -1.261,-4.252 -2.636,-5.916c-1.374,-1.661 -3.208,-2.982 -5.284,-3.812c-1.164,-0.499 -2.184,-1.268 -2.965,-2.24c-0.782,-0.97 -1.321,-2.149 -1.51,-3.455l-0.523,-3.616c-0.063,-0.433 -0.216,-0.829 -0.441,-1.182c-0.223,-0.353 -0.52,-0.659 -0.874,-0.907c-0.709,-0.493 -1.63,-0.736 -2.604,-0.595c-1.46,0.21 -2.565,1.221 -2.911,2.427c-0.115,0.403 -0.149,0.825 -0.087,1.259l0.524,3.615c0.191,1.306 0.008,2.592 -0.465,3.743c-0.473,1.155 -1.237,2.181 -2.212,2.991c-1.752,1.384 -3.136,3.171 -3.983,5.153c-0.843,1.984 -1.17,4.175 -0.845,6.418c0.112,0.773 0.297,1.518 0.546,2.23c0,0.003 0.002,0.007 0.003,0.008c0.152,0.369 0.336,0.665 0.538,0.897c0.21,0.242 0.439,0.424 0.68,0.555c0.254,0.144 0.523,0.23 0.786,0.273c-0.468,-0.728 -0.857,-1.511 -1.152,-2.345c-0.145,-0.41 0.069,-0.86 0.475,-1.005c0.408,-0.148 0.856,0.068 1.001,0.479c0.491,1.385 1.285,2.622 2.308,3.653c0.734,0.739 1.582,1.372 2.52,1.878c0.102,-0.244 0.326,-0.431 0.607,-0.472c0.43,-0.062 0.825,0.237 0.888,0.668l0.335,2.312c0.052,0.35 0.235,0.641 0.497,0.837c0.13,0.098 0.277,0.169 0.436,0.212c0.158,0.043 0.327,0.054 0.501,0.03c0.347,-0.052 0.635,-0.236 0.83,-0.498c0.195,-0.263 0.289,-0.593 0.239,-0.944l-0.087,-0.604c-0.063,-0.434 0.234,-0.832 0.661,-0.893c0.427,-0.062 0.825,0.235 0.888,0.668l0.004,0.028c0.439,-0.014 0.884,-0.054 1.32,-0.117c0.444,-0.064 0.878,-0.15 1.3,-0.261l-0.004,-0.029c-0.063,-0.433 0.234,-0.831 0.661,-0.893c0.429,-0.062 0.827,0.235 0.89,0.668l0.087,0.605c0.051,0.35 0.234,0.641 0.496,0.837c0.261,0.197 0.588,0.291 0.937,0.242c0.349,-0.052 0.635,-0.235 0.83,-0.498c0.194,-0.262 0.289,-0.593 0.238,-0.944l-0.335,-2.311c-0.062,-0.432 0.234,-0.831 0.664,-0.893c0.279,-0.04 0.548,0.075 0.716,0.281c0.756,-0.751 1.39,-1.599 1.884,-2.516c0.344,-0.642 0.618,-1.314 0.816,-2.011c0.2,-0.694 0.32,-1.415 0.36,-2.15c0.023,-0.434 0.393,-0.768 0.823,-0.743c0.433,0.025 0.766,0.396 0.742,0.83c-0.046,0.883 -0.196,1.745 -0.438,2.575c0.128,-0.059 0.252,-0.133 0.371,-0.22c0.319,-0.232 0.599,-0.552 0.798,-0.987c0.131,-0.288 0.227,-0.632 0.263,-1.04c0.001,-0.002 0.002,-0.005 0.002,-0.005Z" style="fill-rule:nonzero;"/></g><path d="M1177.03,33.674l0.214,1.104l-3.742,-0.708l-6.096,-7.493c1.463,-1.165 2.601,-2.681 3.312,-4.434c0.848,-2.089 1.03,-4.352 0.528,-6.543l-0.289,-1.258l-1.082,0.702c-0.006,0.004 -0.011,0.007 -0.016,0.011l-0.001,-0.001l-11.096,7.537c-6.153,-0.759 -33.402,-3.709 -51.614,0.984c-4.152,1.069 -7.403,3.244 -9.401,6.289l-0.905,1.817c-1.604,-1.8 -2.185,-3.49 -1.641,-4.814c1.197,0.4 2.552,0.299 3.424,-0.314c0.618,-0.434 0.908,-1.094 0.777,-1.767c-0.135,-0.7 -0.649,-1.217 -1.377,-1.386c-1.013,-0.235 -2.309,0.217 -3.285,1.085c-0.329,-0.362 -0.551,-0.838 -0.664,-1.421l-1.774,0.343c0.233,1.205 0.774,2.006 1.336,2.533c-0.696,1.442 -1.039,4.07 2.409,7.539c-0.966,3.093 -0.886,6.438 0.241,9.487l10.332,27.576l3.293,3.265l4.405,-0.853l-1.865,-4.008l-0.83,-4.239l2.991,-6.294l4.042,9.784l2.987,3.339l4.457,-0.862l-1.942,-3.999l-0.846,-4.372l1.026,-5.327c2.611,0.309 5.243,0.213 7.829,-0.288l8.793,-1.702l2.821,8.166l2.236,3.666l4.288,-0.83l-0.758,-3.917l1.231,-7.407l6.65,9.945l4.28,-0.828l-0.782,-3.948l-0.307,-8.652l0.817,-0.158c6.184,-1.197 11.89,-4.1 16.501,-8.392l2.259,-2.104l-1.393,-7.197l-1.773,0.343l0,0.001Zm-79.493,-8.56c-0.152,0.09 -0.425,0.169 -0.759,0.186c0.324,-0.14 0.608,-0.194 0.759,-0.186Zm71.506,-3.65c-0.521,1.286 -1.315,2.42 -2.328,3.334c-0.088,-1.362 0.132,-2.729 0.654,-4.014c0.522,-1.287 1.315,-2.42 2.327,-3.334c0.09,1.361 -0.131,2.727 -0.653,4.014Zm-47.572,40.84l0.936,4.831l1.041,2.213l-1.142,0.221l-2.097,-2.345l-4.549,-11.011l0.195,-0.41l6.691,0.929l-1.075,5.572Zm38.112,0.049l-1.32,0.255l-6.495,-9.713l7.056,-1.366l0.302,8.513l0.457,2.311Zm18.65,-22.466l-1.527,1.421c-4.363,4.063 -9.762,6.809 -15.613,7.942l-11.62,2.249l-1.761,10.598l0.476,2.462l-1.29,0.249l-1.442,-2.339l-4.718,-13.662l-0.604,-3.121l-1.774,0.343l0.616,3.185l1.389,4.048l-8.54,1.653c-2.558,0.495 -5.164,0.565 -7.746,0.206l-7.419,-1.03c1.573,-3.415 2.033,-7.167 1.316,-10.869l-0.64,-3.306l-1.773,0.344l0.639,3.305c0.658,3.395 0.221,6.839 -1.263,9.958l-5.203,10.949l0.965,4.932l1.004,2.219l-1.198,0.231l-2.334,-2.314l-10.192,-27.203c-1.044,-2.825 -1.062,-5.945 -0.052,-8.786l1.358,-2.74c1.75,-2.64 4.6,-4.625 8.31,-5.486c21.797,-5.062 51.615,-0.856 51.615,-0.856l6.507,-4.419c-0.007,0.018 -0.017,0.036 -0.025,0.055c-0.825,2.033 -1.021,4.238 -0.566,6.377c0.041,0.192 0.14,0.359 0.274,0.494l7.115,8.747l5.096,0.963l0.62,3.201Zm-10.263,-5.338c0.19,0.98 -0.45,1.928 -1.43,2.118c-0.98,0.189 -1.928,-0.451 -2.117,-1.431c-0.19,-0.98 0.45,-1.928 1.43,-2.117c0.98,-0.19 1.928,0.45 2.117,1.43Z" style="fill-rule:nonzero;"/><path d="M1360.64,15.321c0.418,-0.019 0.772,0.305 0.791,0.723c0.019,0.417 -0.305,0.772 -0.722,0.791c-0.418,0.019 -0.772,-0.305 -0.791,-0.722c-0.019,-0.418 0.304,-0.773 0.722,-0.792Z"/><path d="M1381.3,22.749c-0.066,-1.453 0.008,0.193 -0.11,-2.422c-0.119,-2.616 -1.527,-2.625 -2.423,-2.584c-0.896,0.041 -2.64,0.12 -5.255,0.239c-2.616,0.119 -2.551,-2.795 -2.551,-2.795c-0.175,-3.84 -3.429,-6.81 -7.268,-6.636c-3.839,0.175 -6.81,3.429 -6.635,7.268l0.447,9.842c0.174,3.839 3.428,6.81 7.267,6.636c0,0 5.055,-0.23 7.264,-0.331c2.21,-0.099 9.575,-2.364 9.264,-9.217Z" style="fill:none;fill-rule:nonzero;stroke:#000;stroke-width:1.16px;"/><path d="M1367.73,32.163l0.159,3.499l-2.615,0.119" style="fill:none;fill-rule:nonzero;stroke:#000;stroke-width:1.16px;stroke-linecap:round;stroke-linejoin:round;"/><path d="M1365.53,38.244l2.358,-2.582l0.113,2.47" style="fill:none;fill-rule:nonzero;stroke:#000;stroke-width:1.16px;stroke-linecap:round;stroke-linejoin:round;"/><path d="M1372.38,31.952l0.159,3.499l-2.615,0.118" style="fill:none;fill-rule:nonzero;stroke:#000;stroke-width:1.16px;stroke-linecap:round;stroke-linejoin:round;"/><path d="M1370.18,38.033l2.358,-2.582l0.112,2.47" style="fill:none;fill-rule:nonzero;stroke:#000;stroke-width:1.16px;stroke-linecap:round;stroke-linejoin:round;"/><path d="M1370.67,21.581l5.715,-0.259c0,0 0.443,3.328 -2.699,3.568c0,0 -0.555,1.725 -2.363,1.443" style="fill:none;fill-rule:nonzero;stroke:#000;stroke-width:1.16px;stroke-linecap:round;stroke-linejoin:round;"/><path d="M1357,14.583c-0.215,-0.082 -0.459,-0.031 -0.622,0.133l-1.718,1.728c-0.11,0.111 -0.171,0.263 -0.169,0.42c0.003,0.157 0.07,0.307 0.184,0.414l1.876,1.76c0.116,0.109 0.27,0.163 0.424,0.156c0.074,-0.003 0.147,-0.02 0.216,-0.053c0.215,-0.099 0.349,-0.318 0.339,-0.554l-0.159,-3.488c-0.01,-0.23 -0.156,-0.432 -0.371,-0.516Z" style="fill-rule:nonzero;"/><path d="M1368.45,10.154l-0.101,-2.227c-0.046,-1.003 -0.896,-1.779 -1.899,-1.734c-0.039,0.002 -0.076,0.013 -0.115,0.017c-0.483,-1.197 -1.67,-2.023 -3.033,-1.961c-1.726,0.079 -3.062,1.542 -2.983,3.268l0.092,2.03c0.962,-0.583 2.081,-0.941 3.284,-0.996c1.802,-0.081 3.469,0.535 4.755,1.603Z" style="fill:none;fill-rule:nonzero;stroke:#000;stroke-width:1.16px;stroke-linecap:round;stroke-linejoin:round;"/></svg>