<?xml version="1.0" encoding="UTF-8" standalone="no"?><!DOCTYPE svg PUBLIC "-//W3C//DTD SVG 1.1//EN" "http://www.w3.org/Graphics/SVG/1.1/DTD/svg11.dtd"><svg width="100%" height="100%" viewBox="0 0 1440 320" version="1.1" xmlns="http://www.w3.org/2000/svg" xmlns:xlink="http://www.w3.org/1999/xlink" xml:space="preserve" xmlns:serif="http://www.serif.com/" style="background: white;fill-rule:evenodd;clip-rule:evenodd;stroke-miterlimit:10;"><path d="M0,128l60,-10.7c60,-10.3 180,-32.3 300,-21.3c120,11 240,53 360,53.3c120,-0.3 240,-42.3 360,-69.3c120,-27 240,-37 300,-42.7l60,-5.3l0,288l-60,0l-1320,0l-60,0l0,-192Z" style="fill:#18cdb5;fill-rule:nonzero;"/><path d="M636.478,110.994c-0.51,-0.46 -1.226,-0.48 -1.685,0.03c-1.058,1.113 -2.072,1.394 -2.929,0.867c-2.384,-1.306 -3.841,-7.349 -2.026,-14.792c1.541,-6.656 1.245,-11.272 -0.891,-13.849c-1.183,-1.311 -2.733,-1.974 -4.534,-1.966c-1.695,-2.371 -4.149,-3.931 -7.153,-4.518l-0.232,-0.045l-28.77,-5.626l-18.024,-3.524c-14.35,-2.686 -21.236,6.763 -24.863,11.812c-0.987,1.367 -2.134,2.942 -3.397,4.494c-3.26,4.401 -6.98,9.312 -8.858,12.784l-2.625,-3.753c-0.279,-0.414 -0.741,-0.504 -1.11,-0.457c-0.485,0.025 -0.784,0.327 -0.99,0.766c-0.228,0.556 -1.823,5.642 -0.632,8.754c-0.268,1.987 -1.132,5.177 -1.928,8.02c-0.796,2.843 -1.524,5.34 -1.68,6.749c-0.022,0.116 -0.09,0.463 -0.273,0.787c-0.48,1.225 -1.555,3.654 1.804,6.11c0.834,0.643 1.713,1.055 2.637,1.236c2.196,0.429 3.946,-0.548 4.843,-1.452c0.459,-0.51 0.803,-1.043 0.916,-1.621c1.083,-0.628 3.386,-1.977 7.505,-5.25c5.568,-4.549 6.138,-6.237 4.369,-9.462c1.886,-1.671 4.981,-1.545 8.794,-0.8l0.693,0.136c-0.811,4.76 -5.73,15.194 -9.799,19.437c-0.299,0.301 -0.389,0.763 -0.226,1.155c0.164,0.392 0.465,0.691 0.927,0.781l5.893,1.152c0.462,0.091 0.854,-0.073 1.175,-0.49c1.447,-1.876 3.762,-5.742 6.148,-9.354c1.238,-2.037 2.592,-4.052 3.463,-5.441c0.631,1.683 1.053,3.205 1.196,4.313c0.571,3.83 -0.903,10.14 -1.563,12.29c-0.068,0.346 -0.02,0.716 0.166,0.992c0.186,0.276 0.51,0.459 0.741,0.505l5.43,1.062c0.693,0.135 1.246,-0.237 1.382,-0.93l4.111,-21.029l0.671,0.251c5.732,1.361 11.579,2.744 15.139,3.56l0.346,0.068c1.502,0.294 2.796,0.427 3.904,0.284c0.487,0.575 0.997,1.034 1.738,1.539l-0.826,1.158c-0.322,0.417 -0.435,0.995 -0.41,1.48c0.141,0.507 0.397,1.037 0.814,1.358c0.834,0.643 2.196,0.43 2.839,-0.404l1.147,-1.575c0.555,0.228 1.11,0.457 1.688,0.57l-0.316,1.617c-0.09,0.462 -0.043,0.832 0.121,1.223c0.256,0.53 0.766,0.99 1.459,1.125c1.04,0.204 2.145,-0.54 2.255,-1.718l0.317,-1.617c0.831,0.042 1.592,-0.169 2.353,-0.38c0.54,2.145 0.619,4.2 0.3,5.217c-0.889,2.705 -3.84,9.206 -7.034,12.66c-0.299,0.301 -0.39,0.763 -0.226,1.155c0.163,0.392 0.464,0.691 0.927,0.781l6.239,1.22c0.462,0.091 0.969,-0.05 1.175,-0.49c0.023,-0.115 3.855,-5.604 6.994,-11.228c-0.559,4.089 -2.528,8.023 -3.811,10.291c-0.184,0.324 -0.251,0.671 -0.088,1.063c0.163,0.391 0.487,0.575 0.834,0.643l5.661,1.107c0.463,0.09 0.993,-0.166 1.314,-0.583c0.228,-0.555 4.121,-8.192 5.6,-13.301c1.707,-5.664 0.25,-11.707 -1.223,-15.833c-1.565,-4.265 -0.913,-13.734 0.506,-16.696c1.898,-4.187 2.111,-8.344 0.872,-11.825c0.556,0.228 0.995,0.434 1.483,1.009c1.183,1.311 2.12,4.494 0.443,11.843c-2.132,9.06 -0.049,15.585 3.192,17.419c0.439,0.205 0.879,0.411 1.226,0.479c1.502,0.294 3.046,-0.244 4.518,-1.635c0.344,-0.533 0.364,-1.249 -0.146,-1.708Zm-79.051,6.735c-1.238,2.037 -2.637,4.283 -3.83,6.089l-3.119,-0.61c3.234,-4.886 6.391,-11.826 7.227,-16.101c1.851,0.961 3.127,2.411 4.011,4.023c-0.987,1.366 -2.546,3.821 -4.289,6.599Zm56.884,9.083c-1.534,2.939 -3.415,5.81 -4.814,8.056l-3.582,-0.7c1.949,-3.218 3.503,-6.873 4.164,-9.023c0.866,-2.59 -0.29,-8.334 -2.174,-11.581c-0.977,-1.751 -2.228,-2.715 -3.499,-2.964c-1.849,-0.361 -3.394,0.176 -4.961,0.83c-2.19,0.771 -4.518,1.635 -8.562,0.845l-0.347,-0.068c-3.582,-0.701 -9.429,-2.084 -15.023,-3.538l-1.826,-0.477c-0.347,-0.067 -0.716,-0.02 -0.992,0.166c-0.276,0.186 -0.46,0.51 -0.505,0.741l-3.502,17.909l-2.888,-0.564c0.542,-2.773 0.966,-6.169 0.539,-8.892c-0.546,-3.346 -2.682,-11.441 -10.333,-13.417l-0.924,-0.18c-4.391,-0.859 -8.779,-1.117 -11.581,2.174c-0.322,0.417 -0.297,0.901 -0.133,1.293c1.442,2.441 1.698,2.971 -3.433,7.126c-5.43,4.457 -7.505,5.251 -7.62,5.228c-0.646,0.234 -0.99,0.766 -0.756,1.412c-0.023,0.115 -0.206,0.439 -0.505,0.741c-1.127,0.859 -2.675,0.796 -4.041,-0.191c-1.877,-1.446 -1.603,-2.232 -1.03,-3.32c0.206,-0.44 0.411,-0.879 0.409,-1.479c0.11,-1.179 0.838,-3.675 1.612,-6.403c0.863,-3.19 1.888,-6.589 2.063,-8.714c0.046,-0.231 -0.025,-0.484 -0.118,-0.622c-0.605,-1.198 -0.314,-3.301 0.025,-5.034l2.346,3.338c0.279,0.414 0.626,0.482 1.11,0.457c0.37,-0.048 0.784,-0.327 0.99,-0.766c0.708,-1.781 2.383,-4.213 4.241,-6.968c0.375,1.153 0.84,1.843 1.372,2.187c0.209,0.161 0.44,0.206 0.671,0.251c0.809,0.159 1.708,-0.146 2.722,-0.427c2.03,-0.563 4.589,-1.382 7.993,0.843c1.273,0.849 2.313,1.052 3.235,0.633c1.59,-0.769 1.786,-3.61 1.956,-6.935c0.173,-2.726 0.298,-5.82 1.378,-7.048c0.322,-0.417 0.713,-0.581 1.083,-0.629c0.969,-0.05 2.197,1.03 3.403,2.225c1.507,1.495 3.339,3.172 5.019,1.942c1.542,-1.138 2.346,-2.181 2.479,-3.475c0.223,-1.755 -0.664,-3.968 -2.892,-6.683c-2.879,-3.682 -7.913,-3.706 -11.926,-2.812c3.569,-2.301 8.158,-3.683 14.512,-2.44l6.124,1.197c-1.635,1 -2.991,2.414 -3.561,4.102c-0.57,1.688 0.083,3.255 1.658,4.403l0.302,0.299c4.192,3.099 9.542,7.024 6.88,10.822c-1.996,2.849 -2.807,7.609 -0.877,10.625c0.743,1.105 1.949,2.301 4.26,2.752c1.04,0.204 2.356,0.221 3.833,0.03c4.199,-0.618 14.419,-2.579 17.49,-7.856c1.078,-1.829 1.115,-3.861 0.228,-6.073c-1.959,-4.702 -6.144,-6 -8.987,-6.796c-0.902,-0.296 -2.035,-0.638 -2.221,-0.914c0,0 0.023,-0.116 0.183,-0.324c0.666,-0.95 1.771,-1.693 2.761,-2.46c1.381,-0.929 2.923,-2.067 3.008,-3.73l15.945,3.118c2.889,0.565 5.182,2.333 6.37,4.844c1.608,3.434 1.119,7.777 -1.332,12.336c-5.108,9.557 -6.958,14.114 -5.255,18.286c1.374,2.788 1.387,5.789 -2.164,12.292Zm7.745,-13.84c1.424,3.757 2.741,9.293 1.169,14.264c-0.934,2.936 -2.511,6.707 -3.769,9.46l-3.235,-0.633c1.532,-3.539 2.76,-7.978 2.164,-12.293c1.645,-4.117 1.77,-7.211 0.463,-10.346c-0.979,-2.35 -0.46,-5.008 2.333,-10.7c-0.284,3.903 0.011,7.92 0.875,10.248Zm-89.775,-6.518c-0.694,-0.136 -1.384,0.329 -1.52,1.022c-0.135,0.694 0.329,1.384 1.023,1.52c0.693,0.135 1.384,-0.329 1.519,-1.023c0.251,-0.67 -0.213,-1.361 -1.022,-1.519Zm40.164,-7.861c-0.834,-0.643 -1.025,-2.12 -1.193,-3.713c-0.171,-2.192 -0.413,-4.639 -2.772,-5.46c-1.456,-0.525 -2.68,-0.404 -3.669,0.362c-1.427,1.161 -2.087,3.311 -2.31,5.067l-0.091,0.462c-0.173,2.725 -0.592,7.322 5.811,8.934l0.578,0.113c3.813,0.745 4.845,-0.852 5.211,-1.501c0.641,-1.434 0.033,-3.232 -1.565,-4.264Zm48.063,-12.675c-1.12,-2.858 -3.462,-4.995 -6.212,-5.653l-0.231,-0.045c-1.733,-0.339 -7.437,-0.615 -8.284,1.259c-0.206,0.44 -0.226,1.155 0.701,1.937c2.643,2.436 4.876,6.351 4.008,8.341c-0.802,1.642 -0.565,2.888 -0.101,3.579c0.513,1.06 1.578,1.748 2.965,2.019c1.848,0.361 4.709,-0.159 6.545,-2.799c1.444,-2.477 1.707,-5.664 0.609,-8.638Z" style="fill:#1d1d1b;fill-rule:nonzero;"/><path d="M307.174,66.495c0.612,0.499 1.361,0.801 2.148,0.867c-0.129,2 -0.008,4.009 0.359,5.98c0.452,1.715 -0.197,8.765 -0.454,11.774c-0.059,0.622 -0.101,1.104 -0.124,1.375c-0.121,1.616 -1.096,7.032 -1.102,7.032l-0.145,0.708l5.793,0.223l0.022,-0.589c0.082,-0.938 -0.36,-1.849 -1.147,-2.367c-0.211,-0.792 -0.818,-3.704 0.637,-6.272c0.341,-0.576 0.699,-1.305 1.053,-2.07c0.725,1.36 1.952,4.58 1.941,10.823l-0.023,0.588l4.545,0.175l0.185,-0.211c0.35,-0.423 0.519,-0.967 0.471,-1.514c-0.077,-0.561 -0.371,-1.07 -0.818,-1.417c-0.28,-1.75 -1.058,-6.037 -1.098,-6.233l0.004,-0.106l-0.055,-0.096c-0.236,-0.647 -0.185,-1.364 0.141,-1.97c0.526,-1.265 1.594,-3.883 2.01,-4.893c1.988,0.277 4.696,0.529 8.263,0.667c1.406,0.054 2.955,0.09 4.648,0.108c0.004,2.193 -0.009,10.022 -0.482,12.498c-0.472,2.476 -0.308,3.107 -0.06,3.417c0.12,0.158 0.304,0.256 0.502,0.267l4.415,0.17l0.023,-0.589c0.017,-0.441 -0.018,-2.441 -1.019,-3.228c0.2,-0.918 0.854,-3.352 1.565,-5.901c1.803,5.24 0.363,8.946 0.35,8.981l-0.383,0.752l5.587,0.215l0.023,-0.589c0.003,-0.094 0.133,-2.223 -1.152,-3.31c-0.161,-5.312 1.755,-12.956 1.956,-13.733l5.77,-10.979l4.39,-3.61c0.511,0.061 1.04,0.105 1.558,0.125c0.989,0.055 1.982,-0.012 2.955,-0.199c1.035,-0.231 1.712,-0.659 2.013,-1.272c0.134,-0.272 0.248,-0.486 0.344,-0.665c0.636,-1.208 0.534,-1.465 -0.427,-3.46c-0.186,-0.39 -0.415,-0.859 -0.677,-1.423c-1.884,-4.034 -3.143,-5.02 -3.258,-5.101l-10.171,-8.228l4.81,6.907c-0.442,0.025 -0.872,0.15 -1.258,0.364c-1.027,-0.423 -2.24,-0.77 -3.03,-0.471c-0.391,0.141 -0.694,0.457 -0.817,0.853c-0.194,0.799 0.052,1.644 0.646,2.212l-5.868,4.621c-1.766,-0.068 -13.977,-0.645 -20.233,-0.78c-6.256,-0.135 -8.31,1.59 -10.318,3.211l-0.565,0.455c-0.885,-0.134 -3.475,-0.399 -4.855,0.827c-0.627,0.572 -0.945,1.411 -0.853,2.255c0.012,1.076 0.47,2.1 1.265,2.826Zm11.212,16.25c-0.464,0.917 -0.505,1.993 -0.113,2.943c0.121,0.665 0.89,4.905 1.106,6.328l0.038,0.243l0.195,0.143c0.281,0.161 0.484,0.431 0.56,0.747c0.015,0.138 -0.006,0.277 -0.062,0.404l-2.803,-0.108c-0.045,-7.389 -1.826,-10.6 -2.502,-11.557c0.717,-1.624 1.396,-3.331 1.9,-4.644c1.162,0.413 2.361,0.71 3.58,0.887c-0.462,1.132 -1.412,3.448 -1.899,4.614Zm18.533,9.729c0.326,0.101 0.555,0.899 0.641,1.728l-2.791,-0.107c0.009,-0.771 0.104,-1.539 0.283,-2.289c0.519,-2.603 0.533,-10.468 0.525,-12.72l2.217,-0.003c0.188,1.533 0.48,3.051 0.875,4.544c-0.553,1.953 -2.138,7.582 -2.165,8.276l-0.017,0.454l0.432,0.117Zm-24.796,-30.794c0.267,-0.208 0.529,-0.422 0.791,-0.636c1.93,-1.582 3.756,-3.074 9.547,-2.951c6.709,0.14 20.286,0.781 20.421,0.787l0.218,0.008l6.342,-4.991c0.538,0.428 1.116,0.804 1.725,1.122l0.548,-1.046c-1.214,-0.637 -2.873,-1.944 -2.624,-2.748c0.013,-0.059 0.058,-0.105 0.116,-0.12c0.677,-0.257 2.683,0.616 3.83,1.286l0.594,-1.015l-0.133,-0.076c0.158,0.014 0.315,0.042 0.468,0.083l0.503,0.721l0.97,-0.676l-1.492,-2.139l3.813,3.095c0,0 1.143,0.928 2.915,4.67c0.266,0.599 0.497,1.045 0.682,1.435l0.229,0.48c-0.371,0.362 -0.618,0.831 -0.706,1.341c-0.071,0.528 0.046,1.065 0.331,1.516c-0.302,0.209 -0.646,0.35 -1.007,0.415c-2.456,0.554 -6.729,-0.259 -7.324,-0.73l-0.737,0.921c0.686,0.407 1.445,0.675 2.234,0.788l-3.769,3.091l-5.917,11.281l-0.046,0.122c-0.09,0.35 -2.256,8.662 -2,14.42l-0.012,0.306l0.259,0.163c0.539,0.459 0.858,1.125 0.879,1.832l-2.779,-0.107c0.703,-3.017 0.499,-6.176 -0.588,-9.078c-1.151,-3.453 -1.725,-7.073 -1.698,-10.713l-1.177,-0.045c-0.022,1.135 0.022,2.271 0.134,3.401c-14.578,0.104 -19.278,-1.244 -20.567,-1.76c0.236,-0.627 0.388,-1.034 0.408,-1.104l-1.11,-0.403c-0.003,0.071 -2.474,6.821 -4.289,10.005c-1.967,3.462 -0.728,7.277 -0.676,7.438l0.091,0.251l0.238,0.104c0.33,0.157 0.575,0.451 0.67,0.804l-3.173,-0.122c0.271,-1.517 0.901,-5.172 1,-6.512c0.01,-0.271 0.064,-0.74 0.123,-1.357c0.467,-5.076 0.882,-10.496 0.434,-12.188c-0.556,-2.096 -0.653,-9.835 1.311,-11.369Zm-4.587,0.619c0.695,-0.616 2.06,-0.687 3.095,-0.623c-0.714,1.406 -1.129,2.946 -1.217,4.522c-0.537,-0.046 -1.049,-0.251 -1.469,-0.587c-0.552,-0.524 -0.863,-1.254 -0.86,-2.014c-0.07,-0.48 0.098,-0.965 0.451,-1.298Z" style="fill-rule:nonzero;"/><path d="M356.068,54.524c0.487,0.019 0.868,0.429 0.849,0.917c-0.019,0.487 -0.43,0.868 -0.917,0.849c-0.487,-0.019 -0.868,-0.43 -0.849,-0.917c0.019,-0.488 0.43,-0.868 0.917,-0.849Z"/><path d="M318.055,60.741c0.8,-0.122 1.777,-0.226 2.853,-0.303l-0.078,-1.182c-1.123,0.075 -2.118,0.184 -2.96,0.311c-3.838,0.601 -5.209,4.362 -5.262,4.514l1.111,0.39c0.065,-0.009 1.228,-3.242 4.336,-3.73Z" style="fill-rule:nonzero;"/><path d="M326.62,60.305l0.046,-1.178c0,0 -1.313,-0.05 -3.026,0.019l0.032,1.181c1.658,-0.048 2.936,-0.023 2.948,-0.022Z" style="fill-rule:nonzero;"/><path d="M881.42,42.777c0.536,-0.132 1.078,0.196 1.21,0.732c0.132,0.536 -0.196,1.078 -0.732,1.21c-0.536,0.132 -1.078,-0.197 -1.21,-0.733c-0.132,-0.536 0.196,-1.078 0.732,-1.209Z"/><path d="M958.883,72.619c0.966,0.999 2.065,2.119 3.37,2.066c0.682,-0.045 1.31,-0.388 1.716,-0.937c1.387,-1.69 0.674,-3.461 -0.158,-5.501c-1.108,-2.493 -1.764,-5.163 -1.938,-7.886c0.038,-2.067 -0.932,-4.028 -2.598,-5.251c-2.098,-1.41 -4.859,-1.123 -6.378,-0.811c-0.589,-1.39 -2.454,-2.734 -5.539,-4.014c-4.859,-2.008 -21.819,2.644 -37.778,7.473c-1.571,0.479 -2.78,0.838 -3.484,1.032c-0.511,0.167 -1.07,0.114 -1.54,-0.147c-1.909,-1.106 -3.072,-5.629 -4.302,-10.424c-0.447,-1.816 -0.907,-3.691 -1.499,-5.512c-2.744,-8.985 -12.648,-13.038 -17.999,-11.723c-0.002,0.001 -0.004,0.001 -0.006,0.002c-0.532,0.131 -0.863,0.677 -0.732,1.21c0.061,0.249 0.216,0.465 0.433,0.604c1.959,1.269 2.727,3.974 2.987,5.238c-1.954,1.016 -7.429,4.133 -8.527,7.832c-0.403,1.268 -0.218,2.651 0.504,3.768c1.065,1.695 4.182,1.094 6.36,0.404c-0.215,5.202 -0.406,22.271 5.521,31.678c6.886,10.922 7.541,11.533 12.414,14.31c1.607,0.923 3.275,2.892 4.883,4.783c2.173,2.555 4.358,5.159 6.815,5.688c1.101,4.188 1.599,9.019 0.491,9.96c-0.715,0.565 -1.498,1.038 -2.331,1.408c-1.497,0.738 -3.555,1.749 -2.445,4.339c0.193,0.454 0.694,0.7 1.172,0.577l6.516,-1.602c0.286,-0.132 6.84,-3.381 1.988,-17.047c0.421,-0.423 0.816,-0.87 1.296,-1.349c3.809,-4.025 8.965,-9.607 22.747,-9.257c2.149,0.615 4.18,1.585 6.009,2.869c1.63,1.141 3.433,2.012 5.34,2.58c0.278,2.722 0.206,7.332 -1.62,7.905c-1.213,0.313 -2.246,1.111 -2.856,2.205c-0.478,0.981 -0.569,2.107 -0.255,3.152c0.16,0.498 0.685,0.791 1.193,0.665l6.672,-1.64c0.317,-0.089 0.57,-0.329 0.676,-0.64c0.142,-0.303 3.241,-7.346 1.915,-13.621c0.555,-0.769 1.003,-1.61 1.331,-2.5c2.035,-5.381 1.786,-14.145 -2.051,-22.212l0.662,-0.657c0.364,0.304 0.706,0.633 1.025,0.983Zm-81.774,-24.046c-0.411,-0.631 -0.516,-1.415 -0.287,-2.133c0.614,-2.066 3.371,-4.175 5.654,-5.57c1.176,1.079 2.551,1.92 4.048,2.475c-1.244,1.607 -2.653,3.079 -4.204,4.39c-2.451,0.922 -4.897,1.235 -5.211,0.838Zm36.892,70.739l-5.05,1.241c0.453,-0.37 0.959,-0.671 1.5,-0.893c0.98,-0.449 1.898,-1.021 2.733,-1.702c2.343,-1.987 0.973,-8.611 0.252,-11.544c0.242,-0.072 0.477,-0.165 0.704,-0.276c0.351,-0.176 0.687,-0.382 1.002,-0.617c3.502,10.518 -0.597,13.451 -1.141,13.791Zm40.329,-9.913l-5.059,1.244c0.162,-0.97 0.92,-1.739 1.887,-1.916c3.393,-1.071 3.278,-6.984 3.038,-9.634c0.375,-0.025 0.747,-0.082 1.112,-0.17c0.281,-0.074 0.552,-0.182 0.806,-0.322c0.526,4.526 -1.196,9.336 -1.784,10.798Zm1.879,-38.985c-0.52,-0.943 -1.091,-1.87 -1.713,-2.782c-2.448,-3.323 -5.445,-6.204 -8.861,-8.521c-0.227,-0.139 -0.501,-0.181 -0.76,-0.118c-0.533,0.131 -0.863,0.678 -0.732,1.211c0.063,0.256 0.225,0.478 0.45,0.615c3.185,2.189 5.985,4.89 8.287,7.993c6.611,9.548 6.297,20.17 4.478,25.004c-0.674,1.782 -1.615,2.982 -2.508,3.201c-2.263,0.556 -4.436,-0.784 -6.952,-2.348c-0.716,-0.442 -1.468,-0.906 -2.257,-1.35c-6.724,-4.65 -7.935,-13.806 -7.949,-13.905c-0.005,-0.04 -0.012,-0.079 -0.022,-0.118c-0.132,-0.537 -0.682,-0.87 -1.218,-0.738c-0.493,0.121 -0.821,0.597 -0.759,1.1c0.658,4.318 2.409,8.397 5.085,11.849c-3.364,-0.122 -6.73,0.203 -10.009,0.967c-2.641,0.633 -5.164,1.688 -7.47,3.123c1.193,-3.526 1.995,-9.48 -0.393,-18.357c-0.131,-0.532 -0.677,-0.863 -1.21,-0.732c-0.533,0.131 -0.863,0.677 -0.732,1.21c3.755,13.854 -0.834,20.028 -1.236,20.528c-1.198,1.077 -2.204,2.138 -3.09,3.097c-0.96,1.172 -2.103,2.18 -3.386,2.985c-1.992,0.984 -4.137,-1.29 -7.164,-4.85c-1.724,-2.027 -3.506,-4.123 -5.403,-5.222c-4.44,-2.564 -4.898,-2.833 -11.714,-13.597c-6.052,-9.623 -5.31,-28.64 -5.148,-31.584c5.386,-4.774 5.013,-6.123 4.884,-6.565c-0.157,-0.542 -0.625,-0.939 -1.184,-1.007c-1.165,-0.324 -2.242,-0.908 -3.149,-1.708l0.603,-0.271c0.384,-0.183 0.611,-0.592 0.564,-1.014c-0.254,-2.084 -1.022,-4.071 -2.235,-5.784c4.503,0.222 11.4,3.562 13.516,10.58c0.543,1.792 1.019,3.642 1.47,5.436c1.388,5.436 2.594,10.134 5.234,11.658c0.934,0.536 2.051,0.661 3.081,0.344c0.719,-0.177 1.921,-0.565 3.521,-1.051c8.628,-2.604 31.575,-9.542 36.435,-7.534c4.14,1.721 4.478,2.925 4.508,3.093c-0.12,0.337 -0.051,0.713 0.181,0.985c0.269,0.319 0.71,0.437 1.102,0.296c1.008,-0.341 4.001,-0.984 5.83,0.256c1.127,0.888 1.764,2.264 1.712,3.698c0.192,2.936 0.9,5.816 2.091,8.507c0.824,2.052 1.044,2.781 0.466,3.489c0,0 -0.168,0.196 -0.26,0.198c-0.417,0.02 -1.316,-0.912 -1.854,-1.47c-0.87,-0.898 -1.624,-1.66 -2.555,-1.679c-0.425,-0.005 -0.835,0.167 -1.13,0.474l-0.445,0.408Z" style="fill-rule:nonzero;"/><path d="M896.458,61.097c-7.125,7.713 -4.763,22.518 -4.68,23.146c0.091,0.539 0.609,0.909 1.148,0.82l0.078,-0.02c0.505,-0.122 0.835,-0.619 0.752,-1.132c-0.036,-0.145 -2.291,-14.471 4.205,-21.474c0.221,-0.248 0.305,-0.589 0.226,-0.911c-0.131,-0.536 -0.681,-0.869 -1.218,-0.737c-0.197,0.049 -0.376,0.156 -0.511,0.308Z" style="fill-rule:nonzero;"/><g><path d="M66.519,104.34c0.375,-0.054 0.723,0.207 0.777,0.584c0.055,0.376 -0.205,0.726 -0.579,0.78c-0.375,0.055 -0.723,-0.207 -0.777,-0.584c-0.055,-0.376 0.205,-0.726 0.579,-0.78Z"/><g><path d="M65.011,84.947c0.374,-0.054 0.722,0.207 0.777,0.584c0.055,0.377 -0.205,0.726 -0.58,0.781c-0.374,0.054 -0.722,-0.208 -0.777,-0.585c-0.054,-0.376 0.205,-0.726 0.58,-0.78Z"/><path d="M62.462,85.316c0.374,-0.054 0.723,0.208 0.777,0.584c0.055,0.377 -0.205,0.726 -0.579,0.781c-0.375,0.054 -0.723,-0.208 -0.778,-0.584c-0.054,-0.377 0.206,-0.727 0.58,-0.781Z"/></g><path d="M65.941,87.874c0.302,0.227 0.365,0.659 0.139,0.965l-1.101,1.482c-0.114,0.154 -0.281,0.246 -0.455,0.269c-0.175,0.026 -0.357,-0.016 -0.508,-0.13l-1.475,-1.109c-0.304,-0.228 -0.367,-0.661 -0.14,-0.965c0.226,-0.305 0.656,-0.367 0.959,-0.139l0.929,0.7l0.694,-0.935c0.225,-0.305 0.655,-0.367 0.958,-0.138Z" style="fill-rule:nonzero;"/><path d="M67.156,95.507c0.08,0.162 0.132,0.332 0.157,0.507c0.039,0.263 0.013,0.531 -0.072,0.778c-0.083,0.249 -0.224,0.477 -0.409,0.672c-0.336,0.352 -0.772,0.554 -1.22,0.62c-0.45,0.064 -0.925,-0.006 -1.346,-0.248c-0.233,-0.135 -0.431,-0.315 -0.583,-0.529c-0.152,-0.213 -0.252,-0.463 -0.29,-0.725c-0.026,-0.176 -0.023,-0.355 0.007,-0.531l0.695,-3.903c0.052,-0.294 0.282,-0.518 0.576,-0.56c0.292,-0.042 0.576,0.107 0.71,0.373l1.775,3.546Zm-1.198,0.703c-0.005,-0.03 -0.013,-0.056 -0.027,-0.085l-0.848,-1.697l-0.332,1.867c-0.007,0.033 -0.007,0.062 -0.003,0.09c0.006,0.041 0.022,0.084 0.052,0.125c0.031,0.045 0.078,0.09 0.145,0.129c0.124,0.073 0.296,0.105 0.469,0.08c0.171,-0.025 0.329,-0.104 0.427,-0.209c0.055,-0.057 0.086,-0.114 0.103,-0.165c0.016,-0.049 0.02,-0.093 0.014,-0.135Z" style="fill-rule:nonzero;"/><path d="M51.37,108.077c-0.077,0.043 -0.157,0.07 -0.239,0.082c-0.023,0.003 -0.047,0.006 -0.07,0.006c-0.025,0.002 -0.05,0.001 -0.073,-0.001c-0.02,-0.002 -0.039,-0.003 -0.06,-0.007c-0.017,-0.002 -0.035,-0.005 -0.051,-0.01c-0.015,-0.004 -0.032,-0.009 -0.046,-0.013c-0.015,-0.004 -0.032,-0.009 -0.046,-0.016c-0.018,-0.006 -0.035,-0.013 -0.05,-0.021c-0.02,-0.01 -0.039,-0.02 -0.058,-0.032c-0.07,-0.043 -0.135,-0.099 -0.186,-0.168c-0.009,-0.012 -0.018,-0.023 -0.025,-0.037c-0.011,-0.014 -0.021,-0.03 -0.03,-0.045c-0.041,-0.071 -0.068,-0.153 -0.081,-0.24c-0.036,-0.248 -0.155,-0.477 -0.333,-0.649c-0.178,-0.172 -0.409,-0.286 -0.68,-0.307c-0.61,-0.049 -1.147,-0.314 -1.538,-0.704c-0.392,-0.387 -0.647,-0.891 -0.726,-1.438c-0.041,-0.281 -0.035,-0.575 0.027,-0.865c0.061,-0.29 0.176,-0.577 0.348,-0.843c0.156,-0.243 0.203,-0.508 0.167,-0.767c-0.027,-0.186 -0.102,-0.369 -0.217,-0.52c-0.113,-0.15 -0.265,-0.274 -0.457,-0.354c-0.428,-0.178 -0.781,-0.465 -1.035,-0.806c-0.255,-0.341 -0.412,-0.736 -0.471,-1.145c-0.06,-0.408 -0.021,-0.832 0.127,-1.232c0.147,-0.399 0.404,-0.772 0.763,-1.065l0.001,0.001c0.161,-0.133 0.271,-0.295 0.339,-0.473c0.066,-0.177 0.086,-0.37 0.059,-0.559c-0.039,-0.258 -0.159,-0.497 -0.378,-0.686l0,-0.002c-0.241,-0.206 -0.432,-0.448 -0.573,-0.71c-0.141,-0.261 -0.231,-0.541 -0.271,-0.822c-0.079,-0.546 0.022,-1.103 0.288,-1.585c0.133,-0.24 0.309,-0.462 0.523,-0.653c0.214,-0.19 0.465,-0.346 0.752,-0.455c0.254,-0.101 0.443,-0.272 0.565,-0.488c0.123,-0.215 0.172,-0.47 0.136,-0.718c-0.021,-0.144 -0.072,-0.285 -0.153,-0.419l0,-0.002c-0.184,-0.301 -0.297,-0.625 -0.344,-0.948c-0.071,-0.495 0.011,-0.987 0.213,-1.417c0.2,-0.432 0.521,-0.806 0.938,-1.066c0.278,-0.173 0.597,-0.294 0.943,-0.342c0.076,-0.011 0.154,-0.02 0.231,-0.024l0.003,0.001c0.037,-0.003 0.069,-0.005 0.1,-0.01c0.302,-0.044 0.555,-0.206 0.727,-0.437c0.171,-0.232 0.252,-0.523 0.208,-0.827c-0.004,-0.034 -0.009,-0.067 -0.017,-0.103c-0.018,-0.075 -0.033,-0.151 -0.045,-0.229c-0.05,-0.348 -0.026,-0.69 0.061,-1.008c0.084,-0.317 0.23,-0.608 0.425,-0.86c0.384,-0.504 0.954,-0.859 1.612,-0.954c0.32,-0.048 0.66,-0.029 0.997,0.062c0.155,0.041 0.302,0.047 0.446,0.026c0.244,-0.035 0.474,-0.155 0.645,-0.334c0.169,-0.179 0.282,-0.409 0.302,-0.683c0.048,-0.613 0.312,-1.153 0.696,-1.545c0.383,-0.394 0.886,-0.648 1.428,-0.727c0.278,-0.041 0.57,-0.035 0.859,0.028c0.288,0.061 0.574,0.179 0.838,0.351l0,-0.002c0.241,0.158 0.508,0.209 0.762,0.172c0.187,-0.027 0.365,-0.102 0.517,-0.216c0.149,-0.115 0.271,-0.267 0.352,-0.461l0.001,-0.003c0.176,-0.428 0.459,-0.782 0.797,-1.036c0.339,-0.255 0.73,-0.415 1.137,-0.474c0.407,-0.059 0.829,-0.016 1.225,0.133c0.397,0.147 0.767,0.406 1.058,0.768c0.133,0.164 0.293,0.274 0.468,0.342c0.178,0.068 0.371,0.089 0.557,0.062c0.257,-0.038 0.495,-0.161 0.683,-0.38c0.204,-0.24 0.445,-0.434 0.704,-0.573c0.259,-0.143 0.536,-0.231 0.817,-0.272c0.543,-0.077 1.095,0.023 1.575,0.293c0.48,0.267 0.886,0.708 1.105,1.284l0.002,0.001c0.097,0.256 0.268,0.445 0.482,0.568c0.214,0.123 0.468,0.173 0.714,0.137c0.142,-0.02 0.283,-0.068 0.423,-0.153c0.295,-0.182 0.617,-0.296 0.936,-0.342c0.493,-0.072 0.982,0.014 1.408,0.216c0.429,0.204 0.801,0.527 1.06,0.947c0.172,0.281 0.293,0.602 0.344,0.95c0.011,0.076 0.018,0.154 0.022,0.232l0.001,0.006c0.001,0.036 0.004,0.067 0.008,0.098c0.044,0.304 0.206,0.559 0.436,0.733c0.232,0.173 0.521,0.255 0.823,0.213c0.034,-0.005 0.069,-0.011 0.103,-0.021l-0.005,0.002c0.076,-0.019 0.154,-0.035 0.231,-0.046c0.346,-0.05 0.686,-0.025 1.002,0.062c0.314,0.088 0.603,0.236 0.855,0.429c0.5,0.389 0.854,0.966 0.951,1.625c0.047,0.324 0.029,0.666 -0.06,1.005c-0.04,0.154 -0.047,0.305 -0.026,0.448c0.036,0.247 0.155,0.48 0.333,0.651c0.179,0.172 0.409,0.283 0.681,0.307c0.609,0.049 1.145,0.315 1.534,0.703c0.394,0.387 0.647,0.891 0.726,1.437c0.041,0.281 0.035,0.575 -0.027,0.865c-0.059,0.291 -0.174,0.578 -0.346,0.844l0.001,-0.001c-0.156,0.244 -0.206,0.51 -0.169,0.768c0.027,0.186 0.102,0.366 0.216,0.518c0.114,0.152 0.267,0.276 0.459,0.358l0,-0.002c0.428,0.179 0.78,0.465 1.035,0.806c0.254,0.341 0.412,0.737 0.471,1.145c0.059,0.409 0.02,0.833 -0.127,1.232c-0.147,0.399 -0.404,0.774 -0.764,1.066c-0.161,0.131 -0.273,0.293 -0.339,0.47c-0.066,0.177 -0.086,0.374 -0.059,0.56c0.037,0.259 0.161,0.499 0.379,0.689c0.24,0.207 0.431,0.447 0.57,0.708c0.141,0.261 0.231,0.541 0.271,0.822c0.08,0.547 -0.021,1.103 -0.288,1.586c-0.131,0.242 -0.307,0.464 -0.52,0.654c-0.215,0.189 -0.468,0.346 -0.752,0.456c-0.254,0.097 -0.443,0.272 -0.565,0.487c-0.123,0.216 -0.171,0.471 -0.136,0.718c0.055,0.376 -0.203,0.725 -0.576,0.78l-0.002,0.001c-0.083,0.012 -0.168,0.008 -0.253,-0.011l-2.617,-0.612l-0.002,0c0.001,0.053 -0.003,0.107 -0.006,0.159l-0.001,0.028c-0.047,0.504 -0.168,0.962 -0.351,1.362c-0.183,0.401 -0.424,0.747 -0.702,1.029c-0.559,0.566 -1.249,0.887 -1.923,0.984c-0.084,0.013 -0.163,0.024 -0.244,0.03c-0.066,0.135 -0.135,0.27 -0.208,0.403c-0.631,1.175 -1.489,2.23 -2.524,3.11l0.115,0.793c0.098,0.678 -0.087,1.34 -0.464,1.847c-0.246,0.333 -0.578,0.605 -0.964,0.779l0.112,0.776l2.647,-0.384c0.376,-0.054 0.723,0.207 0.778,0.585c0.055,0.376 -0.205,0.726 -0.58,0.78l-4.233,0.614c-0.375,0.054 -0.721,-0.209 -0.776,-0.585c-0.055,-0.377 0.203,-0.726 0.578,-0.781l0.231,-0.033l-0.112,-0.774c-0.422,-0.058 -0.814,-0.224 -1.145,-0.474c-0.283,-0.213 -0.522,-0.487 -0.695,-0.808c-0.419,0.109 -0.848,0.195 -1.285,0.259c-0.434,0.063 -0.873,0.102 -1.306,0.115c-0.074,0.357 -0.225,0.689 -0.437,0.974c-0.246,0.332 -0.577,0.603 -0.964,0.778l0.112,0.776l0.232,-0.034c0.375,-0.054 0.723,0.207 0.778,0.585c0.054,0.376 -0.205,0.726 -0.58,0.78l-4.235,0.614c-0.374,0.054 -0.722,-0.209 -0.776,-0.584c-0.055,-0.378 0.205,-0.727 0.578,-0.781l2.649,-0.384l-0.113,-0.776c-0.421,-0.059 -0.816,-0.223 -1.144,-0.473c-0.508,-0.379 -0.872,-0.961 -0.97,-1.64l-0.115,-0.794c-1.243,-0.548 -2.364,-1.316 -3.302,-2.264c-0.107,-0.109 -0.212,-0.218 -0.316,-0.331c-0.081,0.017 -0.162,0.032 -0.245,0.044c-0.506,0.073 -1.053,0.028 -1.591,-0.161c-0.536,-0.187 -1.062,-0.525 -1.494,-1.026c-0.288,-0.332 -0.534,-0.736 -0.722,-1.207l-0.009,-0.027c-0.018,-0.049 -0.035,-0.1 -0.053,-0.152l-2.341,1.331Zm3.865,-11.894c0.454,-0.666 0.975,-1.291 1.552,-1.866l-5.635,-3.516c-0.321,-0.2 -0.421,-0.625 -0.223,-0.948c0.198,-0.325 0.621,-0.423 0.943,-0.223l5.983,3.732c0.027,-0.023 0.055,-0.044 0.082,-0.065c0.506,-0.425 0.927,-0.927 1.243,-1.482l-0.001,0l-4.773,-6.095c-0.234,-0.299 -0.184,-0.733 0.112,-0.968c0.297,-0.235 0.728,-0.184 0.962,0.116l4.262,5.441c0.104,-0.526 0.121,-1.073 0.04,-1.628l-0.458,-3.161c-0.083,-0.576 -0.037,-1.15 0.117,-1.682c0.152,-0.534 0.414,-1.026 0.757,-1.457c0.687,-0.86 1.712,-1.471 2.905,-1.644c1.79,-0.258 3.495,0.531 4.392,1.935c0.297,0.467 0.504,1.004 0.587,1.58l0.458,3.161c0.08,0.552 0.251,1.07 0.497,1.543l2.547,-6.434c0.139,-0.354 0.538,-0.525 0.889,-0.384c0.352,0.14 0.524,0.543 0.384,0.896l-2.854,7.209c0.46,0.442 1.007,0.808 1.613,1.072c0.006,0.001 0.011,0.004 0.017,0.006c0.026,0.011 0.053,0.022 0.079,0.033l4.679,-5.276c0.251,-0.283 0.684,-0.307 0.966,-0.054c0.283,0.254 0.308,0.69 0.056,0.973l-4.406,4.968c0.718,0.388 1.394,0.839 2.021,1.35l4.297,-2.32c0.333,-0.18 0.748,-0.054 0.927,0.283c0.179,0.334 0.055,0.752 -0.277,0.933l-3.872,2.09c0.231,0.237 0.453,0.484 0.664,0.739c0.41,0.496 0.781,1.025 1.108,1.582l0,0.001l2.441,-0.359c0.374,-0.056 0.723,0.205 0.778,0.582c0.056,0.378 -0.204,0.726 -0.577,0.782l-1.983,0.292c0.402,0.933 0.688,1.929 0.839,2.974c0.034,0.234 0.061,0.467 0.08,0.697l2.175,0.509c0.053,-0.225 0.138,-0.442 0.253,-0.644c0.133,-0.239 0.31,-0.459 0.522,-0.644c0.213,-0.187 0.46,-0.341 0.74,-0.448c0.266,-0.103 0.448,-0.278 0.569,-0.493c0.119,-0.215 0.165,-0.474 0.13,-0.719c-0.019,-0.127 -0.058,-0.247 -0.119,-0.362c-0.062,-0.114 -0.145,-0.221 -0.259,-0.32c-0.474,-0.409 -0.76,-0.959 -0.843,-1.531c0,-0.002 0,-0.005 0,-0.006c-0.061,-0.417 -0.017,-0.845 0.132,-1.243c0.149,-0.399 0.404,-0.769 0.758,-1.057c0.169,-0.137 0.278,-0.299 0.343,-0.474c0.064,-0.174 0.083,-0.367 0.056,-0.553c-0.027,-0.187 -0.1,-0.365 -0.211,-0.515c-0.112,-0.151 -0.262,-0.273 -0.463,-0.357c-0.422,-0.178 -0.771,-0.46 -1.027,-0.799c-0.254,-0.341 -0.419,-0.739 -0.479,-1.154c-0.085,-0.572 0.033,-1.185 0.373,-1.713l0,-0.001c0.08,-0.126 0.129,-0.251 0.157,-0.38c0.026,-0.126 0.029,-0.255 0.011,-0.382c-0.036,-0.243 -0.153,-0.479 -0.329,-0.651c-0.177,-0.173 -0.4,-0.287 -0.684,-0.31c-0.596,-0.05 -1.128,-0.308 -1.52,-0.689c-0.395,-0.383 -0.661,-0.89 -0.742,-1.448c-0.047,-0.324 -0.03,-0.664 0.058,-1l-0.001,-0.001c0.043,-0.159 0.05,-0.309 0.03,-0.451c-0.031,-0.215 -0.129,-0.418 -0.272,-0.581c-0.144,-0.163 -0.333,-0.283 -0.54,-0.339c-0.139,-0.039 -0.286,-0.051 -0.443,-0.028c-0.034,0.005 -0.067,0.011 -0.103,0.02l-0.005,0.001c-0.073,0.018 -0.147,0.033 -0.222,0.044c-0.675,0.097 -1.333,-0.093 -1.838,-0.474c-0.507,-0.38 -0.876,-0.961 -0.974,-1.641c-0.011,-0.076 -0.018,-0.155 -0.022,-0.232c-0.003,-0.036 -0.005,-0.071 -0.01,-0.104c-0.024,-0.159 -0.076,-0.298 -0.152,-0.421c-0.075,-0.122 -0.175,-0.229 -0.291,-0.316c-0.235,-0.171 -0.53,-0.249 -0.815,-0.208c-0.142,0.021 -0.282,0.068 -0.421,0.156l-0.002,0.002c-0.294,0.178 -0.614,0.291 -0.935,0.337c-0.555,0.081 -1.112,-0.03 -1.588,-0.305c-0.477,-0.271 -0.871,-0.712 -1.085,-1.271c-0.105,-0.269 -0.278,-0.453 -0.493,-0.575c-0.214,-0.12 -0.469,-0.167 -0.713,-0.132c-0.126,0.018 -0.248,0.058 -0.361,0.118c-0.114,0.063 -0.22,0.146 -0.316,0.261c-0.407,0.478 -0.959,0.762 -1.526,0.845c-0.415,0.06 -0.839,0.014 -1.236,-0.136c-0.395,-0.15 -0.762,-0.407 -1.051,-0.764c-0.136,-0.17 -0.295,-0.28 -0.471,-0.345c-0.175,-0.066 -0.365,-0.086 -0.549,-0.059c-0.185,0.026 -0.363,0.1 -0.512,0.212c-0.148,0.113 -0.271,0.264 -0.356,0.466c-0.174,0.423 -0.453,0.775 -0.792,1.03c-0.335,0.258 -0.732,0.421 -1.145,0.481c-0.001,0 -0.004,0 -0.006,0.001c-0.567,0.082 -1.173,-0.038 -1.697,-0.378c-0.125,-0.083 -0.251,-0.132 -0.377,-0.16c-0.126,-0.027 -0.254,-0.03 -0.379,-0.012c-0.243,0.035 -0.477,0.153 -0.648,0.329c-0.171,0.178 -0.283,0.404 -0.308,0.69c-0.046,0.598 -0.302,1.133 -0.679,1.528c-0.379,0.398 -0.882,0.663 -1.436,0.743c-0.323,0.047 -0.66,0.029 -0.992,-0.058l-0.003,-0.001c-0.159,-0.043 -0.307,-0.049 -0.448,-0.029c-0.215,0.031 -0.416,0.128 -0.576,0.273c-0.162,0.145 -0.281,0.334 -0.339,0.541c-0.035,0.141 -0.047,0.289 -0.024,0.448c0.005,0.034 0.011,0.067 0.021,0.104l0.001,0.002c0.016,0.076 0.03,0.15 0.041,0.225c0.098,0.678 -0.089,1.34 -0.465,1.849c-0.378,0.509 -0.955,0.879 -1.629,0.976c-0.078,0.012 -0.154,0.018 -0.231,0.022c-0.037,0.003 -0.071,0.006 -0.103,0.011c-0.158,0.023 -0.296,0.075 -0.419,0.151c-0.122,0.076 -0.228,0.176 -0.312,0.294c-0.169,0.233 -0.248,0.532 -0.205,0.819c0.02,0.143 0.068,0.283 0.154,0.423c0.181,0.297 0.294,0.621 0.341,0.946c0.081,0.559 -0.03,1.121 -0.3,1.598c-0.134,0.24 -0.311,0.457 -0.523,0.644c-0.213,0.185 -0.46,0.339 -0.739,0.447c-0.267,0.104 -0.45,0.276 -0.571,0.494c-0.119,0.215 -0.165,0.473 -0.13,0.716c0.019,0.127 0.059,0.249 0.12,0.363c0.061,0.115 0.145,0.221 0.257,0.319c0.479,0.411 0.763,0.967 0.844,1.538c0.061,0.417 0.016,0.845 -0.132,1.244c-0.148,0.399 -0.404,0.766 -0.757,1.057c-0.17,0.138 -0.278,0.297 -0.343,0.473c-0.065,0.176 -0.084,0.367 -0.057,0.554c0.027,0.186 0.1,0.366 0.212,0.514c0.112,0.15 0.261,0.274 0.463,0.357c0.42,0.176 0.771,0.459 1.025,0.8c0.256,0.339 0.42,0.737 0.48,1.154c0.084,0.572 -0.031,1.184 -0.373,1.713c-0.079,0.127 -0.129,0.254 -0.156,0.38c-0.026,0.128 -0.03,0.254 -0.012,0.381c0.035,0.244 0.153,0.48 0.329,0.652c0.177,0.172 0.401,0.288 0.687,0.312c0.594,0.048 1.126,0.306 1.52,0.687c0.165,0.161 0.309,0.345 0.426,0.546l1.945,-1.107c-0.047,-0.226 -0.087,-0.455 -0.121,-0.688c-0.152,-1.045 -0.16,-2.082 -0.039,-3.09l-1.989,0.283c-0.375,0.053 -0.721,-0.208 -0.776,-0.586c-0.053,-0.377 0.206,-0.726 0.582,-0.779l2.447,-0.349l0,-0.001c0.156,-0.627 0.361,-1.24 0.612,-1.83c0.131,-0.305 0.273,-0.604 0.427,-0.897l-4.366,-0.919c-0.372,-0.079 -0.61,-0.444 -0.533,-0.815c0.076,-0.374 0.439,-0.612 0.81,-0.535l4.84,1.019Zm22.879,6.893c0.03,-0.654 0.001,-1.316 -0.096,-1.984c-0.285,-1.962 -1.102,-3.717 -2.304,-5.172c-1.201,-1.452 -2.804,-2.607 -4.62,-3.332c-1.017,-0.437 -1.909,-1.109 -2.592,-1.959c-0.683,-0.848 -1.154,-1.879 -1.319,-3.02l-0.458,-3.161c-0.055,-0.379 -0.188,-0.725 -0.385,-1.034c-0.195,-0.308 -0.455,-0.576 -0.765,-0.792c-0.619,-0.431 -1.424,-0.644 -2.276,-0.52c-1.276,0.183 -2.242,1.067 -2.544,2.121c-0.101,0.352 -0.131,0.722 -0.076,1.1l0.458,3.161c0.166,1.142 0.007,2.266 -0.407,3.272c-0.413,1.01 -1.081,1.907 -1.934,2.615c-1.531,1.21 -2.741,2.772 -3.481,4.505c-0.738,1.734 -1.024,3.65 -0.74,5.611c0.098,0.675 0.26,1.327 0.478,1.949c0,0.003 0.002,0.006 0.002,0.007c0.133,0.322 0.294,0.581 0.471,0.784c0.183,0.212 0.384,0.371 0.594,0.485c0.222,0.126 0.458,0.201 0.687,0.239c-0.409,-0.636 -0.749,-1.321 -1.007,-2.05c-0.126,-0.359 0.061,-0.752 0.415,-0.878c0.358,-0.13 0.749,0.058 0.876,0.418c0.429,1.21 1.123,2.292 2.017,3.194c0.642,0.646 1.383,1.199 2.203,1.642c0.09,-0.214 0.285,-0.378 0.531,-0.414c0.376,-0.054 0.722,0.208 0.776,0.585l0.293,2.02c0.046,0.307 0.206,0.561 0.434,0.732c0.114,0.086 0.243,0.148 0.381,0.186c0.139,0.037 0.287,0.047 0.439,0.026c0.303,-0.045 0.555,-0.206 0.726,-0.436c0.17,-0.229 0.252,-0.518 0.209,-0.825l-0.077,-0.528c-0.055,-0.379 0.205,-0.727 0.578,-0.781c0.374,-0.054 0.721,0.206 0.776,0.585l0.004,0.024c0.384,-0.012 0.773,-0.047 1.154,-0.102c0.388,-0.056 0.767,-0.131 1.136,-0.228l-0.003,-0.026c-0.055,-0.379 0.204,-0.727 0.578,-0.781c0.375,-0.054 0.723,0.206 0.777,0.585l0.077,0.528c0.044,0.307 0.205,0.561 0.433,0.732c0.229,0.172 0.515,0.255 0.82,0.212c0.304,-0.046 0.555,-0.206 0.725,-0.436c0.17,-0.229 0.252,-0.518 0.208,-0.824l-0.293,-2.021c-0.054,-0.378 0.205,-0.726 0.58,-0.781c0.245,-0.035 0.48,0.066 0.627,0.246c0.661,-0.657 1.215,-1.398 1.647,-2.199c0.3,-0.562 0.54,-1.149 0.713,-1.759c0.175,-0.607 0.28,-1.236 0.315,-1.879c0.02,-0.38 0.343,-0.671 0.719,-0.649c0.379,0.021 0.67,0.346 0.649,0.725c-0.041,0.772 -0.171,1.525 -0.383,2.251c0.112,-0.052 0.22,-0.117 0.324,-0.193c0.279,-0.202 0.524,-0.482 0.698,-0.862c0.114,-0.252 0.198,-0.553 0.23,-0.909c0.001,-0.002 0.002,-0.005 0.002,-0.005Z" style="fill-rule:nonzero;"/></g><path d="M1235.36,31.236l0.129,0.897l-2.987,-0.714l-4.62,-6.272c1.224,-0.881 2.199,-2.058 2.839,-3.442c0.764,-1.65 0.998,-3.466 0.678,-5.25l-0.184,-1.025l-0.899,0.524c-0.004,0.003 -0.008,0.005 -0.013,0.008l0,-0.001l-9.229,5.642c-4.927,-0.849 -26.76,-4.278 -41.61,-1.202c-3.386,0.7 -6.088,2.326 -7.815,4.702l-0.799,1.428c-1.223,-1.511 -1.625,-2.895 -1.135,-3.941c0.948,0.369 2.043,0.34 2.769,-0.12c0.514,-0.325 0.773,-0.846 0.695,-1.393c-0.082,-0.569 -0.477,-1.005 -1.056,-1.169c-0.807,-0.229 -1.868,0.085 -2.688,0.746c-0.251,-0.304 -0.411,-0.696 -0.48,-1.17l-1.442,0.208c0.141,0.979 0.546,1.645 0.978,2.091c-0.616,1.135 -0.994,3.239 1.649,6.166c-0.898,2.454 -0.962,5.151 -0.173,7.65l7.256,22.61l2.527,2.757l3.581,-0.516l-1.348,-3.3l-0.504,-3.447l2.652,-4.954l2.878,8.037l2.276,2.805l3.624,-0.523l-1.41,-3.295l-0.513,-3.554l1.032,-4.252c2.092,0.351 4.215,0.375 6.318,0.072l7.148,-1.031l1.956,6.685l1.659,3.04l3.486,-0.503l-0.459,-3.184l1.278,-5.919l4.972,8.268l3.479,-0.502l-0.477,-3.21l0.086,-6.981l0.664,-0.095c5.028,-0.726 9.736,-2.843 13.615,-6.122l1.902,-1.607l-0.844,-5.851l-1.442,0.208l0.001,0.001Zm-63.696,-9.967c-0.126,0.067 -0.35,0.12 -0.619,0.12c0.267,-0.1 0.497,-0.132 0.619,-0.12Zm57.735,-0.177c-0.47,1.016 -1.154,1.899 -2.005,2.596c-0.018,-1.1 0.212,-2.193 0.682,-3.208c0.47,-1.016 1.153,-1.898 2.004,-2.596c0.019,1.101 -0.211,2.192 -0.681,3.208Zm-39.895,31.056l0.566,3.928l0.753,1.822l-0.928,0.134l-1.598,-1.97l-3.238,-9.044l0.172,-0.323l5.354,1.007l-1.081,4.446Zm30.694,1.513l-1.073,0.154l-4.856,-8.074l5.736,-0.827l-0.085,6.868l0.278,1.879Zm15.89,-17.374l-1.284,1.085c-3.672,3.104 -8.126,5.107 -12.883,5.793l-9.446,1.363l-1.828,8.468l0.288,2.001l-1.048,0.151l-1.072,-1.94l-3.272,-11.186l-0.366,-2.537l-1.442,0.208l0.374,2.588l0.962,3.315l-6.943,1.001c-2.079,0.3 -4.181,0.255 -6.246,-0.134l-5.936,-1.116c1.399,-2.689 1.914,-5.694 1.48,-8.703l-0.387,-2.688l-1.442,0.208l0.387,2.688c0.398,2.76 -0.087,5.516 -1.402,7.971l-4.614,8.618l0.587,4.01l0.722,1.825l-0.974,0.141l-1.79,-1.954l-7.158,-22.305c-0.731,-2.316 -0.625,-4.829 0.298,-7.078l1.2,-2.155c1.511,-2.059 3.883,-3.547 6.905,-4.097c17.752,-3.235 41.606,1.305 41.606,1.305l5.412,-3.308c-0.007,0.015 -0.015,0.029 -0.023,0.044c-0.742,1.605 -0.986,3.374 -0.702,5.114c0.025,0.156 0.099,0.295 0.202,0.409l5.392,7.32l4.068,0.973l0.375,2.602Zm-8.06,-4.696c0.115,0.796 -0.437,1.535 -1.234,1.65c-0.796,0.115 -1.535,-0.438 -1.65,-1.234c-0.115,-0.797 0.438,-1.535 1.234,-1.65c0.797,-0.115 1.535,0.437 1.65,1.234Z" style="fill-rule:nonzero;"/><path d="M1251.86,35.416c0.266,-0.012 0.491,0.194 0.504,0.46c0.012,0.266 -0.194,0.491 -0.46,0.504c-0.266,0.012 -0.492,-0.195 -0.504,-0.46c-0.012,-0.266 0.194,-0.492 0.46,-0.504Z"/><path d="M1265.02,40.145c-0.042,-0.925 0.006,0.123 -0.07,-1.542c-0.075,-1.665 -0.972,-1.671 -1.542,-1.645c-0.571,0.026 -1.681,0.076 -3.347,0.152c-1.665,0.076 -1.624,-1.78 -1.624,-1.78c-0.111,-2.445 -2.183,-4.336 -4.628,-4.225c-2.444,0.111 -4.336,2.183 -4.225,4.627l0.285,6.267c0.111,2.445 2.183,4.337 4.627,4.226c0,0 3.219,-0.147 4.626,-0.21c1.407,-0.064 6.097,-1.506 5.898,-5.87Z" style="fill:none;fill-rule:nonzero;stroke:#000;stroke-width:0.74px;"/><path d="M1256.37,46.14l0.101,2.228l-1.665,0.075" style="fill:none;fill-rule:nonzero;stroke:#000;stroke-width:0.74px;stroke-linecap:round;stroke-linejoin:round;"/><path d="M1254.97,50.012l1.501,-1.644l0.072,1.572" style="fill:none;fill-rule:nonzero;stroke:#000;stroke-width:0.74px;stroke-linecap:round;stroke-linejoin:round;"/><path d="M1259.34,46.005l0.101,2.228l-1.666,0.076" style="fill:none;fill-rule:nonzero;stroke:#000;stroke-width:0.74px;stroke-linecap:round;stroke-linejoin:round;"/><path d="M1257.93,49.877l1.502,-1.644l0.071,1.573" style="fill:none;fill-rule:nonzero;stroke:#000;stroke-width:0.74px;stroke-linecap:round;stroke-linejoin:round;"/><path d="M1258.25,39.402l3.64,-0.166c0,0 0.281,2.12 -1.72,2.273c0,0 -0.352,1.098 -1.504,0.918" style="fill:none;fill-rule:nonzero;stroke:#000;stroke-width:0.74px;stroke-linecap:round;stroke-linejoin:round;"/><path d="M1249.54,34.946c-0.137,-0.053 -0.293,-0.02 -0.396,0.084l-1.094,1.1c-0.07,0.072 -0.109,0.168 -0.107,0.268c0.001,0.1 0.044,0.195 0.117,0.264l1.194,1.12c0.074,0.07 0.172,0.104 0.27,0.1c0.047,-0.002 0.093,-0.013 0.138,-0.034c0.137,-0.063 0.222,-0.203 0.215,-0.353l-0.101,-2.221c-0.006,-0.146 -0.099,-0.275 -0.236,-0.328Z" style="fill-rule:nonzero;"/><path d="M1256.83,32.126l-0.064,-1.419c-0.029,-0.638 -0.571,-1.133 -1.209,-1.104c-0.026,0.001 -0.049,0.008 -0.074,0.011c-0.307,-0.762 -1.063,-1.288 -1.931,-1.248c-1.099,0.05 -1.95,0.981 -1.9,2.08l0.059,1.293c0.613,-0.371 1.325,-0.599 2.091,-0.634c1.147,-0.052 2.209,0.341 3.028,1.021Z" style="fill:none;fill-rule:nonzero;stroke:#000;stroke-width:0.74px;stroke-linecap:round;stroke-linejoin:round;"/></svg>