<?xml version="1.0" encoding="UTF-8" standalone="no"?>
<!DOCTYPE svg PUBLIC "-//W3C//DTD SVG 1.1//EN" "http://www.w3.org/Graphics/SVG/1.1/DTD/svg11.dtd">
<svg width="100%" height="100%" viewBox="0 0 1440 320" version="1.1" xmlns="http://www.w3.org/2000/svg" xmlns:xlink="http://www.w3.org/1999/xlink" xml:space="preserve" xmlns:serif="http://www.serif.com/" style="background: white;fill-rule:evenodd;clip-rule:evenodd;stroke-linejoin:round;stroke-miterlimit:2;">
	<path

   d="M0,128l60,-10.7c60,-10.3 180,-32.3 300,-21.3c120,11 240,53 360,53.3c120,-0.3 240,-42.3 360,-69.3c120,-27 240,-37 300,-42.7l60,-5.3l0,288l-60,0l-1320,0l-60,0l0,-192Z" style="fill:#18cdb5;fill-rule:nonzero;">

 
    </path>
	<path
    d="M636.478,110.994c-0.51,-0.46 -1.226,-0.48 -1.685,0.03c-1.058,1.113 -2.072,1.394 -2.929,0.867c-2.384,-1.306 -3.841,-7.349 -2.026,-14.792c1.541,-6.656 1.245,-11.272 -0.891,-13.849c-1.183,-1.311 -2.733,-1.974 -4.534,-1.966c-1.695,-2.371 -4.149,-3.931 -7.153,-4.518l-0.232,-0.045l-28.77,-5.626l-18.024,-3.524c-14.35,-2.686 -21.236,6.763 -24.863,11.812c-0.987,1.367 -2.134,2.942 -3.397,4.494c-3.26,4.401 -6.98,9.312 -8.858,12.784l-2.625,-3.753c-0.279,-0.414 -0.741,-0.504 -1.11,-0.457c-0.485,0.025 -0.784,0.327 -0.99,0.766c-0.228,0.556 -1.823,5.642 -0.632,8.754c-0.268,1.987 -1.132,5.177 -1.928,8.02c-0.796,2.843 -1.524,5.34 -1.68,6.749c-0.022,0.116 -0.09,0.463 -0.273,0.787c-0.48,1.225 -1.555,3.654 1.804,6.11c0.834,0.643 1.713,1.055 2.637,1.236c2.196,0.429 3.946,-0.548 4.843,-1.452c0.459,-0.51 0.803,-1.043 0.916,-1.621c1.083,-0.628 3.386,-1.977 7.505,-5.25c5.568,-4.549 6.138,-6.237 4.369,-9.462c1.886,-1.671 4.981,-1.545 8.794,-0.8l0.693,0.136c-0.811,4.76 -5.73,15.194 -9.799,19.437c-0.299,0.301 -0.389,0.763 -0.226,1.155c0.164,0.392 0.465,0.691 0.927,0.781l5.893,1.152c0.462,0.091 0.854,-0.073 1.175,-0.49c1.447,-1.876 3.762,-5.742 6.148,-9.354c1.238,-2.037 2.592,-4.052 3.463,-5.441c0.631,1.683 1.053,3.205 1.196,4.313c0.571,3.83 -0.903,10.14 -1.563,12.29c-0.068,0.346 -0.02,0.716 0.166,0.992c0.186,0.276 0.51,0.459 0.741,0.505l5.43,1.062c0.693,0.135 1.246,-0.237 1.382,-0.93l4.111,-21.029l0.671,0.251c5.732,1.361 11.579,2.744 15.139,3.56l0.346,0.068c1.502,0.294 2.796,0.427 3.904,0.284c0.487,0.575 0.997,1.034 1.738,1.539l-0.826,1.158c-0.322,0.417 -0.435,0.995 -0.41,1.48c0.141,0.507 0.397,1.037 0.814,1.358c0.834,0.643 2.196,0.43 2.839,-0.404l1.147,-1.575c0.555,0.228 1.11,0.457 1.688,0.57l-0.316,1.617c-0.09,0.462 -0.043,0.832 0.121,1.223c0.256,0.53 0.766,0.99 1.459,1.125c1.04,0.204 2.145,-0.54 2.255,-1.718l0.317,-1.617c0.831,0.042 1.592,-0.169 2.353,-0.38c0.54,2.145 0.619,4.2 0.3,5.217c-0.889,2.705 -3.84,9.206 -7.034,12.66c-0.299,0.301 -0.39,0.763 -0.226,1.155c0.163,0.392 0.464,0.691 0.927,0.781l6.239,1.22c0.462,0.091 0.969,-0.05 1.175,-0.49c0.023,-0.115 3.855,-5.604 6.994,-11.228c-0.559,4.089 -2.528,8.023 -3.811,10.291c-0.184,0.324 -0.251,0.671 -0.088,1.063c0.163,0.391 0.487,0.575 0.834,0.643l5.661,1.107c0.463,0.09 0.993,-0.166 1.314,-0.583c0.228,-0.555 4.121,-8.192 5.6,-13.301c1.707,-5.664 0.25,-11.707 -1.223,-15.833c-1.565,-4.265 -0.913,-13.734 0.506,-16.696c1.898,-4.187 2.111,-8.344 0.872,-11.825c0.556,0.228 0.995,0.434 1.483,1.009c1.183,1.311 2.12,4.494 0.443,11.843c-2.132,9.06 -0.049,15.585 3.192,17.419c0.439,0.205 0.879,0.411 1.226,0.479c1.502,0.294 3.046,-0.244 4.518,-1.635c0.344,-0.533 0.364,-1.249 -0.146,-1.708Zm-79.051,6.735c-1.238,2.037 -2.637,4.283 -3.83,6.089l-3.119,-0.61c3.234,-4.886 6.391,-11.826 7.227,-16.101c1.851,0.961 3.127,2.411 4.011,4.023c-0.987,1.366 -2.546,3.821 -4.289,6.599Zm56.884,9.083c-1.534,2.939 -3.415,5.81 -4.814,8.056l-3.582,-0.7c1.949,-3.218 3.503,-6.873 4.164,-9.023c0.866,-2.59 -0.29,-8.334 -2.174,-11.581c-0.977,-1.751 -2.228,-2.715 -3.499,-2.964c-1.849,-0.361 -3.394,0.176 -4.961,0.83c-2.19,0.771 -4.518,1.635 -8.562,0.845l-0.347,-0.068c-3.582,-0.701 -9.429,-2.084 -15.023,-3.538l-1.826,-0.477c-0.347,-0.067 -0.716,-0.02 -0.992,0.166c-0.276,0.186 -0.46,0.51 -0.505,0.741l-3.502,17.909l-2.888,-0.564c0.542,-2.773 0.966,-6.169 0.539,-8.892c-0.546,-3.346 -2.682,-11.441 -10.333,-13.417l-0.924,-0.18c-4.391,-0.859 -8.779,-1.117 -11.581,2.174c-0.322,0.417 -0.297,0.901 -0.133,1.293c1.442,2.441 1.698,2.971 -3.433,7.126c-5.43,4.457 -7.505,5.251 -7.62,5.228c-0.646,0.234 -0.99,0.766 -0.756,1.412c-0.023,0.115 -0.206,0.439 -0.505,0.741c-1.127,0.859 -2.675,0.796 -4.041,-0.191c-1.877,-1.446 -1.603,-2.232 -1.03,-3.32c0.206,-0.44 0.411,-0.879 0.409,-1.479c0.11,-1.179 0.838,-3.675 1.612,-6.403c0.863,-3.19 1.888,-6.589 2.063,-8.714c0.046,-0.231 -0.025,-0.484 -0.118,-0.622c-0.605,-1.198 -0.314,-3.301 0.025,-5.034l2.346,3.338c0.279,0.414 0.626,0.482 1.11,0.457c0.37,-0.048 0.784,-0.327 0.99,-0.766c0.708,-1.781 2.383,-4.213 4.241,-6.968c0.375,1.153 0.84,1.843 1.372,2.187c0.209,0.161 0.44,0.206 0.671,0.251c0.809,0.159 1.708,-0.146 2.722,-0.427c2.03,-0.563 4.589,-1.382 7.993,0.843c1.273,0.849 2.313,1.052 3.235,0.633c1.59,-0.769 1.786,-3.61 1.956,-6.935c0.173,-2.726 0.298,-5.82 1.378,-7.048c0.322,-0.417 0.713,-0.581 1.083,-0.629c0.969,-0.05 2.197,1.03 3.403,2.225c1.507,1.495 3.339,3.172 5.019,1.942c1.542,-1.138 2.346,-2.181 2.479,-3.475c0.223,-1.755 -0.664,-3.968 -2.892,-6.683c-2.879,-3.682 -7.913,-3.706 -11.926,-2.812c3.569,-2.301 8.158,-3.683 14.512,-2.44l6.124,1.197c-1.635,1 -2.991,2.414 -3.561,4.102c-0.57,1.688 0.083,3.255 1.658,4.403l0.302,0.299c4.192,3.099 9.542,7.024 6.88,10.822c-1.996,2.849 -2.807,7.609 -0.877,10.625c0.743,1.105 1.949,2.301 4.26,2.752c1.04,0.204 2.356,0.221 3.833,0.03c4.199,-0.618 14.419,-2.579 17.49,-7.856c1.078,-1.829 1.115,-3.861 0.228,-6.073c-1.959,-4.702 -6.144,-6 -8.987,-6.796c-0.902,-0.296 -2.035,-0.638 -2.221,-0.914c0,0 0.023,-0.116 0.183,-0.324c0.666,-0.95 1.771,-1.693 2.761,-2.46c1.381,-0.929 2.923,-2.067 3.008,-3.73l15.945,3.118c2.889,0.565 5.182,2.333 6.37,4.844c1.608,3.434 1.119,7.777 -1.332,12.336c-5.108,9.557 -6.958,14.114 -5.255,18.286c1.374,2.788 1.387,5.789 -2.164,12.292Zm7.745,-13.84c1.424,3.757 2.741,9.293 1.169,14.264c-0.934,2.936 -2.511,6.707 -3.769,9.46l-3.235,-0.633c1.532,-3.539 2.76,-7.978 2.164,-12.293c1.645,-4.117 1.77,-7.211 0.463,-10.346c-0.979,-2.35 -0.46,-5.008 2.333,-10.7c-0.284,3.903 0.011,7.92 0.875,10.248Zm-89.775,-6.518c-0.694,-0.136 -1.384,0.329 -1.52,1.022c-0.135,0.694 0.329,1.384 1.023,1.52c0.693,0.135 1.384,-0.329 1.519,-1.023c0.251,-0.67 -0.213,-1.361 -1.022,-1.519Zm40.164,-7.861c-0.834,-0.643 -1.025,-2.12 -1.193,-3.713c-0.171,-2.192 -0.413,-4.639 -2.772,-5.46c-1.456,-0.525 -2.68,-0.404 -3.669,0.362c-1.427,1.161 -2.087,3.311 -2.31,5.067l-0.091,0.462c-0.173,2.725 -0.592,7.322 5.811,8.934l0.578,0.113c3.813,0.745 4.845,-0.852 5.211,-1.501c0.641,-1.434 0.033,-3.232 -1.565,-4.264Zm48.063,-12.675c-1.12,-2.858 -3.462,-4.995 -6.212,-5.653l-0.231,-0.045c-1.733,-0.339 -7.437,-0.615 -8.284,1.259c-0.206,0.44 -0.226,1.155 0.701,1.937c2.643,2.436 4.876,6.351 4.008,8.341c-0.802,1.642 -0.565,2.888 -0.101,3.579c0.513,1.06 1.578,1.748 2.965,2.019c1.848,0.361 4.709,-0.159 6.545,-2.799c1.444,-2.477 1.707,-5.664 0.609,-8.638Z" style="fill:#1d1d1b;fill-rule:nonzero;" >

    </path>
</svg>
