<svg  
  width="100%" 
  height="100%" 
  viewBox="0 0 1440 320" 
  version="1.1" 
  xmlns="http://www.w3.org/2000/svg" 
  xmlns:xlink="http://www.w3.org/1999/xlink" 
  xml:space="preserve" 
  xmlns:serif="http://www.serif.com/" 
  style="background: white;fill-rule:evenodd;clip-rule:evenodd;stroke-linejoin:round;stroke-miterlimit:2;"
>
  <path 
    fillOpacity="1" 
    d="M0,160l60,10.7c60,10.3 180,32.3 300,16c120,-15.7 240,-69.7 360,-85.4c120,-16.3 240,5.7 360,16c120,10.7 240,10.7 300,10.7l60,0l0,192l-60,0l-1320,0l-60,0l0,-160Z" 
    style="fill:#18cdb5;fill-rule:nonzero;"
  />
  <path 
    d="M637.376,88.033c-0.56,-0.16 -1.114,0.093 -1.274,0.653c-0.391,1.244 -1.06,1.838 -1.91,1.756c-2.306,-0.106 -5.676,-4.171 -7.072,-10.526c-1.312,-5.653 -3.263,-9.064 -5.855,-10.232c-1.392,-0.558 -2.822,-0.484 -4.193,0.195c-2.179,-1.175 -4.634,-1.448 -7.145,-0.774l-0.193,0.052c0,0 -12.458,3.346 -24.048,6.459c-6.76,1.816 -11.782,3.164 -15.066,4.046c-11.949,3.313 -13.671,13.095 -14.551,18.301c-0.242,1.411 -0.529,3.041 -0.913,4.698c-0.842,4.575 -1.844,9.71 -1.98,13.06l-3.404,-1.881c-0.368,-0.212 -0.754,-0.108 -1.018,0.066c-0.36,0.2 -0.476,0.542 -0.468,0.954c0.033,0.509 0.717,4.985 2.788,6.914c0.538,1.615 1.071,4.371 1.526,6.838c0.455,2.466 0.833,4.643 1.241,5.776c0.026,0.096 0.103,0.386 0.085,0.702c0.092,1.114 0.18,3.368 3.659,3.987c0.877,0.179 1.701,0.164 2.474,-0.043c1.835,-0.493 2.805,-1.893 3.151,-2.917c0.16,-0.561 0.223,-1.096 0.094,-1.579c0.591,-0.883 1.843,-2.773 3.762,-6.809c2.548,-5.55 2.352,-7.051 -0.202,-8.85c0.814,-1.979 3.222,-3.04 6.409,-3.896l0.579,-0.155c1.16,3.933 1.306,13.731 -0.212,18.487c-0.115,0.342 -0.011,0.728 0.26,0.966c0.271,0.238 0.612,0.353 0.999,0.25l4.925,-1.323c0.386,-0.104 0.624,-0.375 0.714,-0.813c0.402,-1.972 0.724,-5.786 1.194,-9.433c0.183,-2.016 0.463,-4.059 0.608,-5.444c1.11,1.048 2.001,2.051 2.524,2.843c1.867,2.708 3.1,8.072 3.4,9.959c0.078,0.289 0.252,0.553 0.497,0.694c0.245,0.142 0.561,0.161 0.754,0.109l4.539,-1.219c0.579,-0.156 0.862,-0.646 0.706,-1.226l-4.72,-17.577l0.605,-0.059c4.881,-1.104 9.858,-2.233 12.878,-2.941l0.29,-0.078c1.255,-0.337 2.292,-0.719 3.083,-1.242c0.587,0.257 1.147,0.417 1.901,0.525l-0.197,1.192c-0.09,0.438 0.04,0.921 0.24,1.281c0.297,0.335 0.691,0.643 1.129,0.733c0.876,0.179 1.835,-0.493 2.014,-1.369l0.286,-1.631c0.509,-0.033 1.018,-0.066 1.501,-0.196l0.363,1.353c0.104,0.386 0.278,0.65 0.549,0.887c0.394,0.309 0.954,0.469 1.534,0.313c0.869,-0.233 1.434,-1.213 1.078,-2.153l-0.363,-1.352c0.65,-0.278 1.152,-0.724 1.654,-1.169c1.213,1.434 2.04,2.972 2.177,3.868c0.333,2.395 0.511,8.456 -0.635,12.285c-0.115,0.341 -0.011,0.728 0.259,0.966c0.271,0.237 0.613,0.353 0.999,0.249l5.216,-1.401c0.386,-0.103 0.72,-0.4 0.713,-0.813c-0.026,-0.096 0.847,-5.715 1.14,-11.178c1.101,3.329 1.069,7.065 0.937,9.274c-0.018,0.316 0.059,0.606 0.33,0.844c0.271,0.238 0.587,0.256 0.877,0.178l4.732,-1.27c0.386,-0.104 0.695,-0.498 0.784,-0.936c-0.033,-0.509 0.083,-7.788 -0.698,-12.238c-0.814,-4.958 -4.184,-9.023 -6.849,-11.621c-2.787,-2.668 -5.828,-10.135 -5.852,-12.924c-0.117,-3.904 -1.508,-7.154 -3.753,-9.347c0.509,-0.033 0.921,-0.04 1.508,0.217c1.392,0.558 3.296,2.635 4.763,8.868c1.759,7.707 5.786,11.906 8.943,12.094c0.412,-0.007 0.824,-0.014 1.114,-0.092c1.256,-0.337 2.233,-1.325 2.836,-2.936c0.063,-0.535 -0.189,-1.089 -0.75,-1.249Zm-57.783,34.675c-0.184,2.017 -0.411,4.252 -0.647,6.076l-2.607,0.7c0.642,-4.935 0.456,-11.409 -0.503,-14.982c1.771,0.042 3.286,0.67 4.563,1.57c-0.242,1.411 -0.515,3.866 -0.806,6.636Zm46.785,-14.325c-0.072,2.815 -0.434,5.708 -0.662,7.943l-2.994,0.804c0.284,-3.182 0.104,-6.551 -0.195,-8.438c-0.307,-2.299 -3.335,-6.249 -5.986,-8.022c-1.4,-0.97 -2.714,-1.238 -3.777,-0.953c-1.545,0.415 -2.522,1.402 -3.474,2.486c-1.382,1.407 -2.835,2.936 -6.215,3.844l-0.29,0.078c-2.994,0.804 -7.971,1.934 -12.781,2.915l-1.571,0.318c-0.29,0.078 -0.554,0.253 -0.695,0.498c-0.142,0.245 -0.16,0.56 -0.108,0.754l4.02,14.969l-2.414,0.649c-0.623,-2.318 -1.568,-5.067 -2.912,-6.984c-1.666,-2.349 -6.32,-7.725 -12.894,-6.374l-0.773,0.208c-3.67,0.985 -7.113,2.428 -8.022,5.985c-0.089,0.438 0.111,0.799 0.382,1.037c2.012,1.323 2.406,1.632 0.044,6.718c-2.476,5.428 -3.762,6.809 -3.859,6.835c-0.405,0.42 -0.468,0.954 -0.049,1.359c0.026,0.097 0.007,0.413 -0.108,0.754c-0.539,1.077 -1.743,1.607 -3.154,1.365c-1.972,-0.402 -2.057,-1.104 -2.027,-2.148c-0.007,-0.412 -0.014,-0.824 -0.24,-1.281c-0.356,-0.94 -0.734,-3.117 -1.163,-5.486c-0.533,-2.757 -1.022,-5.732 -1.682,-7.418c-0.051,-0.193 -0.2,-0.361 -0.322,-0.431c-0.91,-0.688 -1.473,-2.4 -1.862,-3.849l3.037,1.669c0.367,0.212 0.657,0.135 1.017,-0.066c0.264,-0.174 0.476,-0.542 0.469,-0.954c-0.126,-1.623 0.244,-4.104 0.632,-6.9c0.716,0.739 1.328,1.093 1.863,1.156c0.219,0.045 0.412,-0.007 0.606,-0.059c0.676,-0.181 1.248,-0.749 1.917,-1.343c1.338,-1.188 2.984,-2.769 6.411,-2.343c1.289,0.171 2.158,-0.062 2.705,-0.727c0.925,-1.18 0.013,-3.42 -1.1,-6.021c-0.886,-2.143 -1.947,-4.55 -1.582,-5.891c0.089,-0.438 0.327,-0.709 0.591,-0.883c0.721,-0.401 2.061,-0.036 3.428,0.425c1.708,0.577 3.732,1.172 4.553,-0.395c0.751,-1.444 0.975,-2.539 0.593,-3.576c-0.486,-1.422 -1.989,-2.779 -4.703,-4.017c-3.572,-1.733 -7.421,0.129 -10.148,2.311c1.863,-3.089 4.847,-5.858 10.158,-7.284c1.352,-0.363 3.091,-0.83 5.119,-1.375c-0.874,1.374 -1.38,2.959 -1.184,4.46c0.196,1.5 1.28,2.452 2.91,2.739l0.342,0.115c4.356,0.797 9.904,1.792 9.292,5.684c-0.458,2.919 0.702,6.853 3.301,8.433c0.98,0.565 2.346,1.026 4.278,0.508c0.869,-0.234 1.879,-0.712 2.934,-1.41c2.973,-2.041 10.036,-7.355 10.407,-12.528c0.139,-1.797 -0.592,-3.361 -2.095,-4.718c-3.252,-2.854 -6.929,-2.281 -9.395,-1.826c-0.799,0.111 -1.791,0.274 -2.036,0.133c0,0 -0.026,-0.097 0.019,-0.316c0.153,-0.973 0.718,-1.953 1.187,-2.907c0.706,-1.225 1.457,-2.669 0.901,-3.97l13.327,-3.579c2.415,-0.649 4.825,-0.157 6.67,1.315c2.509,2.018 3.759,5.514 3.592,9.907c-0.325,9.199 -0.034,13.367 2.824,15.912c2.09,1.613 3.222,3.898 2.943,10.186Zm0.736,-13.452c2.491,2.334 5.564,6.065 6.222,10.444c0.385,2.589 0.591,6.054 0.66,8.624l-2.705,0.726c-0.154,-3.272 -0.875,-7.116 -2.942,-10.185c-0.284,-3.755 -1.345,-6.162 -3.512,-8.065c-1.626,-1.427 -2.223,-3.649 -2.219,-9.034c1.242,3.084 2.967,6.037 4.496,7.49Zm-70.916,28.573c-0.579,0.155 -0.932,0.768 -0.777,1.347c0.156,0.58 0.768,0.933 1.348,0.777c0.579,-0.155 0.933,-0.768 0.777,-1.347c-0.059,-0.606 -0.672,-0.959 -1.348,-0.777Zm27.7,-21.004c-0.876,-0.179 -1.574,-1.234 -2.297,-2.386c-0.95,-1.609 -2.048,-3.385 -4.154,-3.13c-1.307,0.145 -2.195,0.694 -2.664,1.648c-0.654,1.418 -0.355,3.305 0.131,4.728l0.104,0.386c0.886,2.143 2.284,5.806 7.77,4.643c0.193,-0.051 0.386,-0.103 0.483,-0.129c3.187,-0.856 3.377,-2.461 3.415,-3.092c-0.048,-1.333 -1.183,-2.478 -2.788,-2.668Zm31.927,-27.627c-1.923,-1.762 -4.507,-2.517 -6.851,-1.991c-0.096,0.026 -0.193,0.052 -0.193,0.052c-1.449,0.389 -5.903,2.31 -5.848,4.055c0.007,0.413 0.259,0.966 1.258,1.216c2.926,0.871 6.093,3.023 6.173,4.865c0.003,1.552 0.649,2.414 1.261,2.768c0.787,0.617 1.857,0.744 3.016,0.432c1.545,-0.415 3.533,-1.881 3.947,-4.58c0.176,-2.429 -0.814,-4.959 -2.763,-6.817Z" 
    style="fill:#1d1d1b;fill-rule:nonzero;"
  />
</svg>