<?xml version="1.0" encoding="UTF-8" standalone="no"?>
<!DOCTYPE svg PUBLIC "-//W3C//DTD SVG 1.1//EN" "http://www.w3.org/Graphics/SVG/1.1/DTD/svg11.dtd">
<svg width="100%" height="100%" viewBox="0 0 542 507" version="1.1" xmlns="http://www.w3.org/2000/svg" xmlns:xlink="http://www.w3.org/1999/xlink" xml:space="preserve" xmlns:serif="http://www.serif.com/" style="fill-rule:evenodd;clip-rule:evenodd;stroke-linejoin:round;stroke-miterlimit:2;">
	<path d="M208,263.7C208.3,264.7 209.6,265 210.3,264.2C211.8,262.5 212.9,260.4 214,258.4C226.6,235.6 239.6,212.9 251.4,189.6C266,160.7 276.8,130.3 284.2,98.7C286.8,87.9 288.7,77 290.4,66C292.5,52.3 294.4,38.6 295.7,24.9C296.4,17.9 297.1,10.6 293.3,4C292.8,3.2 293.2,2.1 293.5,1.3C293.5,1.2 293.5,1.2 293.6,1.2L293.8,1.2C294.8,1.3 295.9,1.5 296.7,2.2C297.4,2.8 297.8,3.8 298.2,4.6C299,6 299.6,7.4 300.6,8.7C300.8,9 301.1,9.3 301.5,9.5C302.9,10.1 303.5,7.9 303.6,7C303.9,5.5 304.6,2.4 306.6,2.4C308.3,2.3 309,4.7 309.1,6C309.1,6.7 309.2,7.5 309.3,8.2C309.4,8.9 310.2,9.4 310.8,9C312,8.4 312.9,7.5 313.8,6.3C315.4,4.4 316.8,2.3 319,1.1C320,0.5 321,0.3 322.1,0.2L322.2,0.2C322.3,0.2 322.3,0.3 322.3,0.4C322.4,1.1 322.6,1.8 322.6,2.6C322.6,3.7 322.2,4.5 321.7,5.4C321.2,6.5 320.7,7.7 320.3,8.8C319.4,11.1 318.7,13.4 318,15.7C316.6,20.4 315.6,25.1 314.5,29.9C314.3,30.9 314.1,31.9 313.8,32.9C311,44.9 308.2,57 305.1,69C299.8,89.2 294.3,109.3 288.5,129.3C285.7,138.9 282.3,148.4 279.2,157.9C278.9,158.9 278.6,160.6 278.1,162.4C282.3,159.5 286.4,156.5 290,154.3C296.7,150.2 303.5,146.2 310.4,142.5C312.7,141.3 315.3,140.5 316,137.8C317,134.5 315.2,129.3 315.2,125.8C315.6,103 330,84.5 347.6,71.5C359.9,62.3 374,54.9 388.8,50.2C405.5,44.8 421.7,44.8 439,44.3C449.3,44 459.7,43.5 470,42.8C474,42.5 478,41.8 482,41.2C486.2,40.7 490.5,40.4 494.6,39.6C505.5,38.3 515.5,34.1 525.5,29.9C529.6,28.2 533.2,25.3 537,22.9C538.4,22.1 540,21 541,22.9C541.4,23.6 540.5,25.3 539.8,26.1C535.7,30.4 532,34.9 528.8,40.1C520.5,53.6 513.5,67.8 506.3,81.9C498.8,96.5 490.3,110.8 479,122.8C467.8,134.7 455.6,145.8 440.7,153.2C432.3,157.4 423.9,161.8 415.1,164.9C386.3,174.9 352,179.9 328.9,155.4C326.6,153 324.8,150 322.8,147.3C321.4,145.4 320.1,145.1 318.1,146.5C308.4,153.2 298.5,159.7 288.8,166.4C283.8,169.8 278.9,173.4 274.2,177.1C272.7,178.3 271.5,180.1 270.6,181.9C265.5,191.6 260.6,201.4 255.5,211.2C247.9,225.8 240.5,240.4 232.7,254.9C229,261.8 224.7,268.4 220.4,275C212.9,286.7 204.7,298.1 197.9,310.2C190.9,322.7 182.4,334.2 174.7,346.2C170.5,352.6 167,359.4 163.1,366C161.7,368.3 159.3,370.1 159.9,373.9C164.4,371.9 168.7,370 172.9,368C173.4,367.8 173.8,366.9 173.9,366.4C175.2,355.5 180.5,346.4 186.5,337.7C191.4,330.5 196,322.7 202.1,316.4C214.5,303.4 228.9,291.6 244.2,282.1C252.3,277 261.1,274 270,270.8C279.2,267.5 288.8,265.3 298.6,264.1C298.9,264.1 299.2,264 299.5,264C311.2,262.6 322.9,262.8 334.6,262.1C348.5,261.4 362.3,260.2 376.1,258.3C388.9,256.6 402.4,255.1 414.8,251C420.5,249.4 426.1,247.6 431.6,245.7C434.8,244.6 438,243.8 441.1,242.6C444.2,241.5 447,239.6 450.2,238.8C450.7,238.7 451.3,238.6 451.8,238.7C452.9,238.9 453.3,239.7 453.2,240.8C453,243.1 451.6,245.2 450.1,246.9C444.8,252.9 440.1,259.6 435.3,266C423.3,281.9 411.5,297.8 399.9,314C388.5,330 378.5,347 365.7,361.9C362.7,365.4 359.5,368.9 356.3,372.2C346.7,382.1 335.5,389.3 322.9,394.4C311.8,398.9 300.4,404.5 288.6,407C276.2,409.7 263.4,410.9 250.7,410.5C239.1,410.2 227.8,407.6 217.2,403C203.5,397 192.3,386.9 179.2,379.7C176.9,378.4 174.6,376.6 171.9,377.4C167.6,378.7 163.3,381.9 159.3,384C155,386.4 150.7,388.9 146.7,391.9C140.8,396.4 137.4,404.8 133.4,410.9C124.9,424 116,436.7 105.4,448.4C95.6,459.2 85.8,469.9 75.9,480.6C73.5,483.2 71,485.8 68.2,487.9C64,491.2 63.9,496.8 68.3,500.1C69.9,501.3 72.8,502.3 71.4,504.9C69.9,507.7 67,506.4 64.7,505.9C59,504.8 53.4,503.5 47.7,502.4C42.1,501.4 36.4,501.2 30.9,499.8C29.2,499.4 26.8,497.9 26.6,496.7C26.4,494.9 27.5,492.4 28.9,491.3C31.4,489.3 34.5,488 37.3,486.5C43.1,483.4 49,480.7 54.5,477.3C57.4,475.5 59.7,472.6 62.1,470.1C68.6,463.5 75.2,457 81.6,450.2C86.2,445.3 90.7,440.1 94.9,434.8C102.9,424.7 111.1,414.6 118.6,404C131.6,385.6 144.1,366.9 156.8,348.4C162.2,340.5 167.7,332.7 172.6,324.5C178.3,315.1 184.4,305.8 189.1,295.7C193.9,285.5 197.5,277.4 197.8,266.2C197.9,262.2 187.1,264 185,264.3C162.5,266.7 144.7,257.4 127.8,243.4C106.5,226 94,201 84,175.9C73.2,148.7 57.7,124.2 41,100.2C30.6,85.4 20.1,70.8 3.3,63.1C2.2,62.6 1.1,61.9 0.5,60.9C-0.8,58.8 0.5,56.2 2.9,55.9C4.2,55.7 5.5,56.1 6.7,56.5C19.2,59.8 31.5,64.1 43.8,68.2C56.5,72.4 69.2,76.9 81.8,81.7C93.6,86.2 105.3,91.2 117.1,95.8C133.5,102.1 150.3,106.2 166,114.3C186.1,124.7 209.7,139.4 219.2,160.8C222.7,168.7 224.9,177.1 226.8,185.5C229.7,198.5 230.1,212.4 226.1,225.1C223.8,232.5 220.1,239.4 215.4,245.7C213.2,248.7 210.7,251.6 209.2,255C207.8,257.6 207.3,260.8 208,263.7Z" style="fill:rgb(199,17,252);fill-rule:nonzero;" />
</svg>
