<svg xmlns="http://www.w3.org/2000/svg" xmlns:xlink="http://www.w3.org/1999/xlink" version="1.1" x="0px" y="0px" viewBox="0 0 90 112.5" style="enable-background:new 0 0 90 90;" xml:space="preserve">
	<path d="M79.2,45.5c0.1-1.7-0.1-3.2-0.5-4.7c-0.1-0.3-0.1-0.6-0.2-0.8c-0.1-0.3-0.2-0.7-0.3-1c-0.2-0.5-0.4-1-0.7-1.5  c-0.7-1.4-1.8-2.7-3.1-3.3c1.9-17.7,0-34,0-34c-33,25.3-57.6,0-57.6,0c-1.3,13.5-1.4,24.6-0.6,33.8c-1.7,0.6-2.9,2-3.8,3.6  c-0.3,0.5-0.5,1-0.7,1.5c-0.1,0.3-0.2,0.7-0.3,1c-0.1,0.3-0.2,0.6-0.2,0.8c-0.3,1.4-0.5,3-0.5,4.7l0,0c0,3.6,1.5,7.5,3.6,11.2  c2.6,6.9,7.2,13.1,7.2,13.1c-0.7-1.2-0.9-2.7-0.9-4.3c3.9,4.6,7.4,7.7,7.4,7.7c-1.7-1.9-2.4-4.9-2.7-7.9c3.3,5.1,7.1,8.1,10.4,9.8  c-1.2,4.6-3.6,9.8-8.4,12.2c0,0,6.9-2.6,14.5-6.5c4,5.4,8,9.3,8,9.3c-1.6-2.1-1.8-4.7-1.3-7.5c8,4,15.3,6.5,15.3,6.5  c-5.6-2.6-8.2-8.9-9.4-13.9c4.2-2,7.7-5.3,10.4-9.3c-0.3,2.8-1.1,5.5-2.7,7.3c0,0,3.5-3.1,7.4-7.7c0,1.6-0.3,3.1-0.9,4.3  c0,0,4.6-6.2,7.2-13.1C77.8,53,79.3,49.1,79.2,45.5L79.2,45.5z M67.4,23.9c-0.1-2.2-0.9-4.5-2.6-6.2c-0.6-0.6-1.3-1.1-2-1.5  C67,10.2,74.7,23,67.4,23.9z M58.7,26.7c-0.8-0.8-2.2-0.8-3,0c-0.6,0.6-0.8,1.5-0.5,2.3c-0.4-0.2-0.7-0.5-1-0.8  c-2.2-2.2-2.2-5.8,0-8s5.8-2.2,8,0c2.2,2.2,2.2,5.8,0,8c-1,1-2.3,1.6-3.7,1.6c0.1,0,0.1-0.1,0.2-0.1C59.5,28.9,59.5,27.6,58.7,26.7z   M52,30.5c0.6,0.6,1.3,1.1,2,1.5c-4.2,6-11.9-6.8-4.6-7.7C49.4,26.6,50.3,28.8,52,30.5z M62.7,16.2c-2.8-1.5-6.2-1.5-9,0.2  C50.6,9.7,65.6,9.4,62.7,16.2z M53.7,16.4c-0.6,0.4-1.2,0.8-1.7,1.3c-1.8,1.8-2.7,4.2-2.6,6.5C42.1,23.6,49.3,10.5,53.7,16.4z   M45.3,37.2h4.3l-2.1,3.7l-2.1,3.7l-2.1-3.7L41,37.2H45.3z M37.3,31.8c0.6-0.4,1.2-0.8,1.7-1.3c1.8-1.8,2.7-4.2,2.6-6.5  C48.9,24.6,41.6,37.7,37.3,31.8z M33,26.5c-0.8-0.8-2.2-0.8-3,0c-0.6,0.6-0.8,1.5-0.5,2.3c-0.4-0.2-0.7-0.5-1-0.8  c-2.2-2.2-2.2-5.8,0-8c2.2-2.2,5.8-2.2,8,0c2.2,2.2,2.2,5.8,0,8c-1,1-2.3,1.6-3.7,1.6c0.1,0,0.1-0.1,0.2-0.1  C33.8,28.7,33.8,27.4,33,26.5z M41.6,23.9c-0.1-2.2-0.9-4.5-2.6-6.2c-0.6-0.6-1.3-1.1-2-1.5C41.1,10.2,48.9,23,41.6,23.9z   M36.9,16.2c-2.8-1.5-6.2-1.5-9,0.2C24.8,9.7,39.7,9.4,36.9,16.2z M27.8,16.4c-0.6,0.4-1.2,0.8-1.7,1.3c-1.8,1.8-2.7,4.2-2.6,6.5  C16.2,23.6,23.4,10.5,27.8,16.4z M23.5,24.3c0.1,2.2,0.9,4.5,2.6,6.2c0.6,0.6,1.3,1.1,2,1.5C24,38,16.2,25.2,23.5,24.3z M28.2,32  c2.8,1.5,6.2,1.5,9-0.2C40.3,38.5,25.3,38.8,28.2,32z M33.6,55.8c-0.2,0.2-0.4,0.3-0.6,0.4c-0.2,0.1-0.5,0.2-0.7,0.2  c-0.2,0-0.5,0-0.7-0.1c-0.4-0.2-0.8-0.5-1-1c-0.1-0.2-0.2-0.5-0.2-0.7c0-0.2-0.1-0.5,0-0.8c0.3,0.3,0.5,0.7,0.8,0.9  c0.3,0.3,0.5,0.5,0.8,0.6c0.3,0.1,0.6,0.1,1,0.1c0.4-0.1,0.7-0.2,1.2-0.3C34,55.5,33.8,55.7,33.6,55.8z M38.1,62.4  c-0.2,0.2-0.4,0.3-0.6,0.4c-0.2,0.1-0.5,0.2-0.7,0.2c-0.2,0-0.5,0-0.7-0.1c-0.4-0.2-0.8-0.5-1-1c-0.1-0.2-0.2-0.5-0.2-0.7  c0-0.2-0.1-0.5,0-0.8c0.3,0.3,0.5,0.7,0.8,0.9c0.3,0.3,0.5,0.5,0.8,0.6c0.3,0.1,0.6,0.1,1,0.1c0.4,0,0.7-0.2,1.2-0.3  C38.5,62,38.3,62.2,38.1,62.4z M40.7,56.8c0.3,0.2,0.6,0.3,1,0.3c0.3,0,0.6-0.1,0.9-0.2c0.3-0.2,0.6-0.4,1-0.7  c-0.1,0.3-0.2,0.5-0.3,0.7c-0.1,0.2-0.3,0.4-0.4,0.6c-0.2,0.2-0.4,0.3-0.6,0.4c-0.2,0.1-0.5,0.1-0.7,0.1c-0.5,0-0.9-0.3-1.2-0.6  c-0.2-0.2-0.3-0.4-0.4-0.6c-0.1-0.2-0.2-0.5-0.3-0.7C40,56.4,40.3,56.6,40.7,56.8z M43.4,68.2c-0.1,0.2-0.3,0.4-0.4,0.6  c-0.2,0.2-0.4,0.3-0.6,0.4c-0.2,0.1-0.5,0.1-0.7,0.1c-0.5,0-0.9-0.3-1.2-0.6c-0.2-0.2-0.3-0.4-0.4-0.6c-0.1-0.2-0.2-0.5-0.3-0.7  c0.4,0.2,0.7,0.5,1,0.6c0.3,0.2,0.6,0.3,1,0.3c0.3,0,0.6-0.1,0.9-0.2c0.3-0.2,0.6-0.4,1-0.7C43.7,67.7,43.6,68,43.4,68.2z M47,62.6  c-0.1,0.2-0.3,0.4-0.4,0.6c-0.2,0.2-0.4,0.3-0.6,0.4c-0.2,0.1-0.5,0.1-0.7,0.1c-0.5,0-0.9-0.3-1.2-0.6c-0.2-0.2-0.3-0.4-0.4-0.6  c-0.1-0.2-0.2-0.5-0.3-0.7c0.4,0.2,0.7,0.5,1,0.6c0.3,0.2,0.6,0.3,1,0.3c0.3,0,0.6-0.1,0.9-0.2c0.3-0.2,0.6-0.4,1-0.7  C47.2,62.1,47.1,62.3,47,62.6z M51.1,68.2c-0.1,0.2-0.3,0.5-0.4,0.7c-0.2,0.2-0.4,0.4-0.6,0.5c-0.2,0.1-0.5,0.2-0.7,0.2  c-0.5,0-0.9-0.3-1.2-0.7c-0.2-0.2-0.3-0.4-0.4-0.6c-0.1-0.2-0.2-0.5-0.3-0.8c0.4,0.3,0.7,0.5,1,0.7c0.3,0.2,0.6,0.3,1,0.3  c0.3,0,0.6-0.1,0.9-0.3c0.3-0.2,0.6-0.4,1-0.7C51.3,67.6,51.2,67.9,51.1,68.2z M50.5,57.5c-0.2-0.2-0.3-0.4-0.4-0.6  c-0.1-0.2-0.2-0.5-0.3-0.8c0.4,0.3,0.7,0.5,1,0.7c0.3,0.2,0.6,0.3,1,0.3c0.3,0,0.6-0.1,0.9-0.3c0.3-0.2,0.6-0.4,1-0.7  c-0.1,0.3-0.2,0.6-0.3,0.8c-0.1,0.2-0.3,0.5-0.4,0.7c-0.2,0.2-0.4,0.4-0.6,0.5c-0.2,0.1-0.4,0.2-0.7,0.2  C51.3,58.1,50.9,57.9,50.5,57.5z M56.1,61.9c-0.1,0.3-0.2,0.5-0.4,0.7c-0.1,0.2-0.3,0.4-0.5,0.5c-0.2,0.1-0.4,0.2-0.7,0.2  c-0.5,0-0.9-0.2-1.3-0.5c-0.2-0.2-0.4-0.4-0.5-0.6c-0.1-0.2-0.3-0.5-0.4-0.8c0.4,0.2,0.8,0.4,1.1,0.6c0.3,0.1,0.7,0.2,1,0.2  c0.3,0,0.6-0.1,0.9-0.4c0.3-0.2,0.6-0.5,0.9-0.8C56.2,61.4,56.2,61.7,56.1,61.9z M62.1,55.6c-0.1,0.3-0.2,0.5-0.3,0.7  c-0.1,0.2-0.3,0.4-0.5,0.6c-0.2,0.2-0.4,0.3-0.6,0.3c-0.5,0.1-0.9-0.1-1.3-0.4c-0.2-0.2-0.4-0.3-0.6-0.5c-0.2-0.2-0.3-0.4-0.4-0.7  c0.4,0.2,0.8,0.4,1.2,0.5c0.4,0.1,0.7,0.1,1,0.1c0.3-0.1,0.6-0.2,0.9-0.4c0.3-0.2,0.5-0.6,0.9-0.9C62.2,55.1,62.1,55.3,62.1,55.6z   M54.1,32c2.8,1.5,6.2,1.5,9-0.2C66.2,38.5,51.2,38.8,54.1,32z M63.1,31.8c0.6-0.4,1.2-0.8,1.7-1.3c1.8-1.8,2.7-4.2,2.6-6.5  C74.7,24.6,67.5,37.7,63.1,31.8z" />
</svg>
