<?xml version="1.0" encoding="UTF-8" standalone="no"?><!DOCTYPE svg PUBLIC "-//W3C//DTD SVG 1.1//EN" "http://www.w3.org/Graphics/SVG/1.1/DTD/svg11.dtd"><svg width="100%" height="100%" viewBox="0 0 400 400" version="1.1" xmlns="http://www.w3.org/2000/svg" xmlns:xlink="http://www.w3.org/1999/xlink" xml:space="preserve" xmlns:serif="http://www.serif.com/" style="fill-rule:evenodd;clip-rule:evenodd;stroke-linejoin:round;stroke-miterlimit:2;"><path id="Logo__x2014__FIXED" d="M125.65,362.584c150.941,0 233.534,-125.17 233.534,-233.533c0,-3.521 0,-7.043 -0.16,-10.564c16.006,-11.525 29.932,-26.091 40.976,-42.577c-14.726,6.562 -30.572,10.884 -47.219,12.965c16.967,-10.084 29.932,-26.251 36.175,-45.458c-15.847,9.444 -33.454,16.166 -52.181,19.848c-15.046,-16.007 -36.335,-25.931 -59.864,-25.931c-45.298,0 -82.113,36.815 -82.113,82.113c0,6.403 0.8,12.645 2.081,18.728c-68.188,-3.362 -128.692,-36.175 -169.188,-85.795c-7.043,12.165 -11.044,26.251 -11.044,41.297c0,28.491 14.565,53.621 36.494,68.347c-13.445,-0.48 -26.09,-4.161 -37.135,-10.244l0,1.121c0,39.695 28.332,72.989 65.787,80.512c-6.883,1.92 -14.086,2.881 -21.609,2.881c-5.282,0 -10.404,-0.48 -15.366,-1.441c10.404,32.653 40.816,56.343 76.671,56.983c-28.172,22.089 -63.546,35.214 -101.961,35.214c-6.563,0 -13.125,-0.32 -19.528,-1.12c36.174,23.049 79.392,36.654 125.65,36.654" style="fill:#500765;fill-rule:nonzero;"/></svg>